<?xml version="1.0" encoding="utf-8"?>
<!-- Generator: Adobe Illustrator 27.4.1, SVG Export Plug-In . SVG Version: 6.00 Build 0)  -->
<svg version="1.1" id="Слой_1" xmlns="http://www.w3.org/2000/svg" xmlns:xlink="http://www.w3.org/1999/xlink" x="0px" y="0px"
	 viewBox="0 0 37 37" style="enable-background:new 0 0 37 37;" xml:space="preserve">
<style type="text/css">
	.st0{fill:url(#SVGID_1_);}
	.st1{fill:url(#SVGID_00000020394230230943439910000011644945369529045636_);}
	.st2{fill:#706639;}
	.st3{fill-opacity:0.1961;}
	.st4{fill-opacity:0.3961;}
	.st5{fill-opacity:0.5961;}
	.st6{fill-opacity:0.7961;}
	.st7{fill:url(#SVGID_00000047057823348681578380000008321417577034292661_);}
	.st8{fill:url(#SVGID_00000072261413343940207660000015844712466633473701_);}
	.st9{fill:url(#SVGID_00000052813577749325599370000000650239173051896737_);}
	.st10{fill:url(#SVGID_00000116950734182956924620000008939307931354802069_);}
	.st11{fill:url(#SVGID_00000137132678916321331490000013622484763595505844_);}
	.st12{fill:url(#SVGID_00000102514111050055757550000011786073543317375890_);}
	.st13{fill:url(#SVGID_00000112626578518424845660000012847797418146125971_);}
	.st14{fill:url(#SVGID_00000039812679719264495410000015201588540854693566_);}
	.st15{fill:url(#SVGID_00000082368460746609004210000002124557753241682820_);}
	.st16{fill:url(#SVGID_00000067197399248779731150000017663916525437554326_);}
	.st17{fill:url(#SVGID_00000065034375666022068580000002000272908517566359_);}
	.st18{fill:url(#SVGID_00000153694056288867853580000009690077862029759160_);}
	.st19{fill:url(#SVGID_00000101067278689921245360000010087946869286912662_);}
	.st20{fill:url(#SVGID_00000127019304390163734460000000278544128457714359_);}
	.st21{fill:url(#SVGID_00000155859180492959091300000013275994092441164206_);}
	.st22{fill:url(#SVGID_00000014615369315615007610000015427342029254845608_);}
	.st23{fill:url(#SVGID_00000044179351156287931510000013587925249594305719_);}
	.st24{fill:url(#SVGID_00000040568856283372194240000003678465109332112556_);}
	.st25{fill:url(#SVGID_00000084517968267745551130000012826407003599354254_);}
	.st26{fill:url(#SVGID_00000060031041052272785020000011151999707097560471_);}
	.st27{fill:url(#SVGID_00000103970930077915789290000003140315462320251582_);}
	.st28{fill:url(#SVGID_00000156561060450612601340000005406514641422575760_);}
	.st29{fill:url(#SVGID_00000093152434508930719700000014286325057117791886_);}
	.st30{fill:url(#SVGID_00000045602296356792411430000016518945695985932970_);}
	.st31{fill:url(#SVGID_00000109006551073116579920000013369161135335611781_);}
	.st32{fill:url(#SVGID_00000013174019481866233360000009887919398055602621_);}
	.st33{fill:url(#SVGID_00000112614007824860385140000005802495202917347982_);}
	.st34{fill:url(#SVGID_00000102509302337929918280000005540513463689279363_);}
	.st35{fill:url(#SVGID_00000058554677366114781010000006093865354745120952_);}
	.st36{fill:url(#SVGID_00000159467889263705622260000005135706952344087466_);}
	.st37{fill:url(#SVGID_00000105390062111294389710000006878473204324294790_);}
	.st38{fill:url(#SVGID_00000070087412387125390830000009936799040431496111_);}
	.st39{fill:url(#SVGID_00000036210600178910367970000002155184132359265931_);}
	.st40{fill:url(#SVGID_00000139292201305610420950000009629614442623649156_);}
	.st41{fill:url(#SVGID_00000157295293361507622070000017558916923332498066_);}
	.st42{fill:url(#SVGID_00000070077693121839379000000009475322013738137021_);}
	.st43{fill:url(#SVGID_00000125596316019774614430000013330962107272667826_);}
	.st44{fill:url(#SVGID_00000007397123632045732450000017242401237035070894_);}
	.st45{fill:url(#SVGID_00000039855401826870238530000002190664146715976593_);}
	.st46{fill:url(#SVGID_00000174588714181896990020000016148274667337405095_);}
	.st47{fill:url(#SVGID_00000077322897105220634040000016903525512589003404_);}
	.st48{fill:url(#SVGID_00000150099257732235646800000012059973264273244832_);}
	.st49{fill:#2D1400;fill-opacity:0.2471;}
	.st50{fill:#2D1400;fill-opacity:0.498;}
	.st51{fill:#2D1400;fill-opacity:0.749;}
	.st52{fill:#2D1400;}
	.st53{fill:url(#SVGID_00000131348083740440698770000013762569853508459936_);}
	.st54{fill:url(#SVGID_00000031930325655147478830000008315327086120751500_);}
	.st55{fill:url(#SVGID_00000067205715701801315590000002257703536383889315_);}
	.st56{fill:#785C4B;}
</style>
<g transform="matrix( 1, 0, 0, 1, 2.85,2.85) ">
	<g transform="matrix( 1, 0, 0, 1, 0,0) ">
		<g>
			<g id="Shapes_Shape_51_0_Layer1_0_FILL">
				
					<linearGradient id="SVGID_1_" gradientUnits="userSpaceOnUse" x1="20.892" y1="5.7954" x2="5.792" y2="32.0954" gradientTransform="matrix(1 0 0 -1 2.85 35.15)">
					<stop  offset="0" style="stop-color:#2B3913"/>
					<stop  offset="1" style="stop-color:#0F1608"/>
					<stop  offset="1" style="stop-color:#0D1503"/>
				</linearGradient>
				<path class="st0" d="M31.4,5.3C31.4,2.5,29.9,1,27,1H5.3C2.5,1,1,2.5,1,5.3V27c0,2.9,1.5,4.4,4.3,4.4H27c2.9,0,4.4-1.5,4.4-4.4
					V5.3 M28.3,23.4l-0.5,0C28.1,22.9,28.3,22.9,28.3,23.4 M11.9,19.9l-0.1-0.2h0.1V19.9 M11.9,30l-0.3,0l0.3-0.1V30 M2.7,24.9
					L2.6,25l-0.1-0.1H2.7L2.7,24.9z"/>
				
					<linearGradient id="SVGID_00000026857207014586759680000010705261976107902655_" gradientUnits="userSpaceOnUse" x1="-0.725" y1="10.3" x2="25.425" y2="10.3" gradientTransform="matrix(1 0 0 -1 2.85 35.15)">
					<stop  offset="0" style="stop-color:#2B3913"/>
					<stop  offset="1" style="stop-color:#0F1608"/>
					<stop  offset="1" style="stop-color:#0D1503"/>
				</linearGradient>
				<path style="fill:url(#SVGID_00000026857207014586759680000010705261976107902655_);" d="M2.6,25l0.1-0.1l0,0l-0.2,0L2.6,25
					 M11.6,30l0.3,0v-0.1L11.6,30 M11.9,19.6l0.1,0.2L11.9,19.6L11.9,19.6 M27.8,23.4l0.5,0C28.3,22.9,28.1,22.9,27.8,23.4z"/>
			</g>
		</g>
	</g>
	<g transform="matrix( 1, 0, 0, 1, 0,0) ">
		<g>
			<g id="Shapes_Shape_51_0_Layer0_0_FILL">
				<path class="st2" d="M32.3,5.3C32.3,1.8,30.5,0,27,0H5.3C1.8,0,0,1.8,0,5.3V27c0,3.5,1.8,5.3,5.3,5.3H27c3.5,0,5.3-1.8,5.3-5.3
					V5.3 M27,1c2.9,0,4.4,1.5,4.4,4.3V27c0,2.9-1.5,4.4-4.4,4.4H5.3C2.5,31.4,1,29.9,1,27V5.3C1,2.5,2.5,1,5.3,1H27z"/>
			</g>
		</g>
	</g>
</g>
<g transform="matrix( 1, 0, 0, 1, 0,-0.05) ">
	<g transform="matrix( 1, 0, 0, 1, 0,0) ">
		<g>
			<g id="Shapes_Shape_52_0_Layer0_0_FILL">
				<path class="st3" d="M31.9,11.5c-0.3-0.2-0.6-0.4-0.9-0.4h-5.6l-0.1-1.5L25,8.9l-0.6-0.6l-2.1-0.2l-7.3,0
					c-0.3,0-0.6,0.1-0.8,0.2c-0.5,0.4-0.8,0.8-0.9,1.3l-0.1,0.1l-0.3,4.8v0.1v1.3l-6.2,0.8c-0.3,0-0.6,0.2-0.9,0.5
					c-0.2,0.2-0.3,0.5-0.3,0.8l0.1,7.5c0,0.3,0.1,0.6,0.4,0.9l0.8,0.4l7.4,0.4c0.5,0.7,1.1,1.3,1.9,1.7c1.2,0.8,2.5,1.1,4,1.1l1.4,0
					h0.2c1.4-0.3,2.6-1,3.6-1.9l2.6-0.6l1.7-0.6l0.2,0l0.8-0.4l0.8-0.3l0.2-0.2l0.4-0.7l0.1-0.7l-0.1-0.7V12.4
					C32.3,12.1,32.2,11.8,31.9,11.5 M31,11.4c0.3,0,0.6,0.1,0.8,0.3l0.3,0.8V24l0.1,0.6L32,25.1l-0.4,0.7L31.5,26
					c-0.2,0.2-0.4,0.3-0.8,0.3l-0.9,0.4l-0.1,0L28,27.2l-2.7,0.7c-0.9,0.9-2.1,1.5-3.5,1.9h-0.1l-1.4,0c-1.5,0-2.8-0.4-3.9-1.1
					c-0.7-0.4-1.4-1-1.9-1.7L7,26.5c-0.3,0-0.5-0.1-0.7-0.3c-0.2-0.2-0.4-0.5-0.4-0.7l0-7.5c0-0.3,0.1-0.5,0.2-0.7
					C6.3,17.1,6.5,17,6.8,17l6.5-0.9l0.1-1.5l0.3-4.8l0.1-0.1c0-0.4,0.3-0.8,0.8-1.1l0.7-0.2l7.4,0l1.9,0.2l0.4,0.5L25,9.6l0.2,1.8
					H31z"/>
				<path class="st4" d="M31.8,11.7c-0.2-0.2-0.4-0.3-0.8-0.3h-5.9L25,9.6l-0.2-0.5l-0.4-0.5l-1.9-0.2l-7.4,0l-0.7,0.2
					c-0.5,0.3-0.7,0.7-0.8,1.1l-0.1,0.1l-0.3,4.8l-0.1,1.5L6.8,17c-0.3,0-0.5,0.1-0.7,0.4C6,17.6,5.9,17.8,5.9,18l0,7.5
					c0,0.2,0.1,0.5,0.4,0.7c0.2,0.2,0.4,0.3,0.7,0.3l7.5,0.5c0.5,0.7,1.1,1.3,1.9,1.7c1.1,0.7,2.4,1.1,3.9,1.1l1.4,0h0.1
					c1.4-0.3,2.6-0.9,3.5-1.9l2.7-0.7l1.8-0.6l0.1,0l0.9-0.4c0.3,0,0.6-0.1,0.8-0.3l0.1-0.1l0.4-0.7l0.1-0.5L32,24V12.4L31.8,11.7
					 M31,11.6l0.5,0.2l0.2,0.6V24l0.1,0.6l-0.1,0.5l-0.3,0.5l-0.1,0.1L30.8,26l-1,0.4l-0.1,0L28,26.9L27.9,27l-2.7,0.7
					c-0.9,0.9-2.1,1.5-3.5,1.9h-0.1h-1.4c-1.4,0-2.7-0.3-3.8-1c-0.7-0.5-1.3-1.1-1.8-1.8L7,26.2c-0.2,0-0.4-0.1-0.6-0.2l-0.2-0.5
					L6.2,18l0.2-0.5c0.1-0.1,0.3-0.2,0.5-0.2l6.7-0.9l0.1-1.8l0.3-4.8c0-0.4,0.3-0.7,0.8-0.9c0.1-0.1,0.3-0.2,0.5-0.2l7.4,0l1.8,0.2
					l0.3,0.3l0.2,0.6l0.1,1.9H31z"/>
				<path class="st5" d="M31.5,11.9L31,11.6h-6.1l-0.1-1.9l-0.2-0.6l-0.3-0.3l-1.8-0.2l-7.4,0c-0.2,0-0.4,0.1-0.5,0.2
					c-0.5,0.2-0.7,0.6-0.8,0.9l-0.3,4.8l-0.1,1.8l-6.7,0.9c-0.2,0-0.4,0.1-0.5,0.2L6.2,18l0.1,7.5L6.4,26c0.2,0.1,0.3,0.2,0.6,0.2
					l7.7,0.5c0.5,0.7,1.1,1.3,1.8,1.8c1.1,0.7,2.4,1,3.8,1h1.4h0.1c1.4-0.3,2.5-0.9,3.5-1.9l2.7-0.7l0.1-0.1l1.7-0.5l0.1,0l1-0.4
					l0.6-0.2l0.1-0.1l0.3-0.5l0.1-0.5L31.8,24V12.4L31.5,11.9 M31,11.9l0.4,0.2l0.1,0.3V24l0.1,0.6L31.5,25l-0.2,0.5l-0.1,0
					l-0.6,0.2l-0.9,0.4l-0.1,0.1l-1.8,0.5l-2.8,0.7c-0.9,0.9-2.1,1.5-3.4,1.8h-0.1l-1.4,0c-1.4,0-2.6-0.3-3.6-1
					c-0.7-0.5-1.3-1.1-1.8-1.8L7.1,26l-0.4-0.1l-0.2-0.4L6.4,18c0-0.1,0.1-0.2,0.2-0.3l0.3-0.2l7-0.9l0-2c0-1.6,0.1-3.2,0.3-4.8V9.8
					c0-0.3,0.2-0.6,0.6-0.8l0.4-0.1l7.4,0c0.5-0.1,1,0,1.6,0.2l0.2,0.2l0,0.4l0.2,2.2H31z"/>
				<path class="st6" d="M31.4,12.1L31,11.9h-6.4l-0.2-2.2l0-0.4l-0.2-0.2c-0.5-0.3-1.1-0.4-1.6-0.2l-7.4,0L14.8,9
					c-0.3,0.2-0.5,0.5-0.6,0.8v0.1c-0.2,1.6-0.3,3.1-0.3,4.8l0,2l-7,0.9l-0.3,0.2c-0.1,0.1-0.2,0.2-0.2,0.3l0.1,7.5l0.2,0.4L7.1,26
					l7.8,0.5c0.5,0.7,1.1,1.3,1.8,1.8c1,0.7,2.2,1,3.6,1l1.4,0h0.1c1.3-0.3,2.5-0.9,3.4-1.8l2.8-0.7l1.8-0.5l0.1-0.1l0.9-0.4
					l0.6-0.2l0.1,0l0.2-0.5l0.1-0.4L31.5,24V12.4L31.4,12.1 M31,12.1l0.1,0.1l0.1,0.2v11.7l0.1,0.5L31.2,25L31,25.2v0l-0.4,0.2
					l-1.1,0.4h0l-1.8,0.6l-2.9,0.8c-0.9,0.9-2,1.5-3.2,1.8h0l-1.4,0c-1.3,0-2.5-0.3-3.5-1c-0.7-0.5-1.3-1.1-1.8-1.8l-7.9-0.5
					l-0.2-0.1l0-0.1L6.7,18l0.1-0.1l0.1-0.1l7.2-0.9l0.1-2.2l0.3-4.7v0c0-0.2,0.2-0.4,0.5-0.7l0.2-0.1h7.4L24,9.3l0.1,0.1l0,0.3
					l0.2,2.4H31z"/>
				<path d="M31.1,12.2L31,12.1h-6.6l-0.2-2.4l0-0.3L24,9.3l-1.4-0.2h-7.4l-0.2,0.1c-0.3,0.2-0.5,0.4-0.5,0.7v0l-0.3,4.7l-0.1,2.2
					l-7.2,0.9l-0.1,0.1L6.7,18l0.1,7.5l0,0.1l0.2,0.1l7.9,0.5c0.5,0.7,1.1,1.3,1.8,1.8c1,0.6,2.1,1,3.5,1l1.4,0h0
					c1.3-0.3,2.4-0.9,3.2-1.8l2.9-0.8l1.8-0.6h0l1.1-0.4l0.4-0.2v0l0.2-0.3l0.1-0.4l-0.1-0.5V12.4L31.1,12.2z"/>
			</g>
		</g>
	</g>
</g>
<g transform="matrix( 1, 0, 0, 1, 10.15,17.8) ">
	<g transform="matrix( 1, 0, 0, 1, 0,0) ">
		<g>
			<g id="Shapes_Shape_53_0_Layer0_0_FILL">
				
					<radialGradient id="SVGID_00000081627498152670018400000009515042447984966307_" cx="-10.15" cy="62.6125" r="5.325" gradientTransform="matrix(1 0 0 -1.1268 8.9 70.1993)" gradientUnits="userSpaceOnUse">
					<stop  offset="0" style="stop-color:#DFD3B8"/>
					<stop  offset="0.6314" style="stop-color:#85604F"/>
					<stop  offset="1" style="stop-color:#7D5645"/>
					<stop  offset="1" style="stop-color:#0D1503"/>
				</radialGradient>
				<path style="fill:url(#SVGID_00000081627498152670018400000009515042447984966307_);" d="M-4,0.3h7.9V-1H-4V0.3z"/>
				
					<radialGradient id="SVGID_00000088831652541842566320000011075960077044505992_" cx="-10.15" cy="62.6125" r="5.325" gradientTransform="matrix(1 0 0 -1.1268 8.9 70.1993)" gradientUnits="userSpaceOnUse">
					<stop  offset="0" style="stop-color:#8F7B58"/>
					<stop  offset="0.749" style="stop-color:#36251F"/>
				</radialGradient>
				<path style="fill:url(#SVGID_00000088831652541842566320000011075960077044505992_);" d="M-4,0.3V1h7.9V0.3H-4z"/>
			</g>
		</g>
	</g>
</g>
<g transform="matrix( 1, 0, 0, 1, 10.15,19.65) ">
	<g transform="matrix( 1, 0, 0, 1, 0,0) ">
		<g>
			<g id="Shapes_Shape_53_0_Layer0_0_FILL_00000119817359566524878330000008951121192362967464_">
				
					<radialGradient id="SVGID_00000075883374592505653110000000037914387930018492_" cx="-10.15" cy="60.7625" r="5.325" gradientTransform="matrix(1 0 0 -1.1268 8.9 68.1148)" gradientUnits="userSpaceOnUse">
					<stop  offset="0" style="stop-color:#DFD3B8"/>
					<stop  offset="0.6314" style="stop-color:#85604F"/>
					<stop  offset="1" style="stop-color:#7D5645"/>
					<stop  offset="1" style="stop-color:#0D1503"/>
				</radialGradient>
				<path style="fill:url(#SVGID_00000075883374592505653110000000037914387930018492_);" d="M-4,0.3h7.9V-1H-4V0.3z"/>
				
					<radialGradient id="SVGID_00000129904359277934019980000011943887985736045467_" cx="-10.15" cy="60.7625" r="5.325" gradientTransform="matrix(1 0 0 -1.1268 8.9 68.1148)" gradientUnits="userSpaceOnUse">
					<stop  offset="0" style="stop-color:#8F7B58"/>
					<stop  offset="0.749" style="stop-color:#36251F"/>
				</radialGradient>
				<path style="fill:url(#SVGID_00000129904359277934019980000011943887985736045467_);" d="M-4,0.3V1h7.9V0.3H-4z"/>
			</g>
		</g>
	</g>
</g>
<g transform="matrix( 1, 0, 0, 1, 10.15,21.5) ">
	<g transform="matrix( 1, 0, 0, 1, 0,0) ">
		<g>
			<g id="Shapes_Shape_53_0_Layer0_0_FILL_00000044879236099129098020000012849880866940003743_">
				
					<radialGradient id="SVGID_00000093892625465444791280000014304946236492323213_" cx="-10.15" cy="58.9125" r="5.325" gradientTransform="matrix(1 0 0 -1.1268 8.9 66.0303)" gradientUnits="userSpaceOnUse">
					<stop  offset="0" style="stop-color:#DFD3B8"/>
					<stop  offset="0.6314" style="stop-color:#85604F"/>
					<stop  offset="1" style="stop-color:#7D5645"/>
					<stop  offset="1" style="stop-color:#0D1503"/>
				</radialGradient>
				<path style="fill:url(#SVGID_00000093892625465444791280000014304946236492323213_);" d="M-4,0.3h7.9V-1H-4V0.3z"/>
				
					<radialGradient id="SVGID_00000019652186316161559620000005054348264940878769_" cx="-10.15" cy="58.9125" r="5.325" gradientTransform="matrix(1 0 0 -1.1268 8.9 66.0303)" gradientUnits="userSpaceOnUse">
					<stop  offset="0" style="stop-color:#8F7B58"/>
					<stop  offset="0.749" style="stop-color:#36251F"/>
				</radialGradient>
				<path style="fill:url(#SVGID_00000019652186316161559620000005054348264940878769_);" d="M-4,0.3V1h7.9V0.3H-4z"/>
			</g>
		</g>
	</g>
</g>
<g transform="matrix( 1, 0, 0, 1, 10.15,23.35) ">
	<g transform="matrix( 1, 0, 0, 1, 0,0) ">
		<g>
			<g id="Shapes_Shape_53_0_Layer0_0_FILL_00000071531022882058764550000002304059510784430497_">
				
					<radialGradient id="SVGID_00000002351886885613944250000007074199124878318219_" cx="-10.15" cy="57.0625" r="5.325" gradientTransform="matrix(1 0 0 -1.1268 8.9 63.9458)" gradientUnits="userSpaceOnUse">
					<stop  offset="0" style="stop-color:#DFD3B8"/>
					<stop  offset="0.6314" style="stop-color:#85604F"/>
					<stop  offset="1" style="stop-color:#7D5645"/>
					<stop  offset="1" style="stop-color:#0D1503"/>
				</radialGradient>
				<path style="fill:url(#SVGID_00000002351886885613944250000007074199124878318219_);" d="M-4,0.3h7.9V-1H-4V0.3z"/>
				
					<radialGradient id="SVGID_00000141425644796958118200000004857922663446861194_" cx="-10.15" cy="57.0625" r="5.325" gradientTransform="matrix(1 0 0 -1.1268 8.9 63.9458)" gradientUnits="userSpaceOnUse">
					<stop  offset="0" style="stop-color:#8F7B58"/>
					<stop  offset="0.749" style="stop-color:#36251F"/>
				</radialGradient>
				<path style="fill:url(#SVGID_00000141425644796958118200000004857922663446861194_);" d="M-4,0.3V1h7.9V0.3H-4z"/>
			</g>
		</g>
	</g>
</g>
<g transform="matrix( 1, 0, 0, 1, 10.15,25.3) ">
	<g transform="matrix( 1, 0, 0, 1, 0,0) ">
		<g>
			<g id="Shapes_Shape_53_0_Layer0_0_FILL_00000153701100485095813190000008609065723034949779_">
				
					<radialGradient id="SVGID_00000086663691576369431650000011374759052696398239_" cx="-10.15" cy="55.1125" r="5.325" gradientTransform="matrix(1 0 0 -1.1268 8.9 61.7486)" gradientUnits="userSpaceOnUse">
					<stop  offset="0" style="stop-color:#DFD3B8"/>
					<stop  offset="0.6314" style="stop-color:#85604F"/>
					<stop  offset="1" style="stop-color:#7D5645"/>
					<stop  offset="1" style="stop-color:#0D1503"/>
				</radialGradient>
				<path style="fill:url(#SVGID_00000086663691576369431650000011374759052696398239_);" d="M-4,0.3h7.9V-1H-4V0.3z"/>
				
					<radialGradient id="SVGID_00000165212817691583104530000008137749736497982392_" cx="-10.15" cy="55.1125" r="5.325" gradientTransform="matrix(1 0 0 -1.1268 8.9 61.7486)" gradientUnits="userSpaceOnUse">
					<stop  offset="0" style="stop-color:#8F7B58"/>
					<stop  offset="0.749" style="stop-color:#36251F"/>
				</radialGradient>
				<path style="fill:url(#SVGID_00000165212817691583104530000008137749736497982392_);" d="M-4,0.3V1h7.9V0.3H-4z"/>
			</g>
		</g>
	</g>
</g>
<g transform="matrix( 1, 0, 0, 1, 19.35,9.7) ">
	<g transform="matrix( 1, 0, 0, 1, 0,0) ">
		<g>
			<g id="Shapes_Shape_53_0_Layer0_0_FILL_00000074416328078558586710000006282477762152739752_">
				
					<radialGradient id="SVGID_00000061459296839617055050000000362795138348482957_" cx="-19.35" cy="70.7125" r="5.325" gradientTransform="matrix(1 0 0 -1.1268 18.1 79.3261)" gradientUnits="userSpaceOnUse">
					<stop  offset="0" style="stop-color:#DFD3B8"/>
					<stop  offset="0.6314" style="stop-color:#85604F"/>
					<stop  offset="1" style="stop-color:#7D5645"/>
					<stop  offset="1" style="stop-color:#0D1503"/>
				</radialGradient>
				<path style="fill:url(#SVGID_00000061459296839617055050000000362795138348482957_);" d="M-3.9,0.3H4V-1h-7.9V0.3z"/>
				
					<radialGradient id="SVGID_00000052075570118804079410000014068626759553172135_" cx="-19.35" cy="70.7125" r="5.325" gradientTransform="matrix(1 0 0 -1.1268 18.1 79.3261)" gradientUnits="userSpaceOnUse">
					<stop  offset="0" style="stop-color:#8F7B58"/>
					<stop  offset="0.749" style="stop-color:#36251F"/>
				</radialGradient>
				<path style="fill:url(#SVGID_00000052075570118804079410000014068626759553172135_);" d="M-3.9,0.3V1H4V0.3H-3.9z"/>
			</g>
		</g>
	</g>
</g>
<g transform="matrix( 1, 0, 0, 1, 19.35,11.55) ">
	<g transform="matrix( 1, 0, 0, 1, 0,0) ">
		<g>
			<g id="Shapes_Shape_53_0_Layer0_0_FILL_00000085246777914454202920000011220569817343920771_">
				
					<radialGradient id="SVGID_00000141447804408816270110000014143873621955482266_" cx="-19.35" cy="68.8625" r="5.325" gradientTransform="matrix(1 0 0 -1.1268 18.1 77.2416)" gradientUnits="userSpaceOnUse">
					<stop  offset="0" style="stop-color:#DFD3B8"/>
					<stop  offset="0.6314" style="stop-color:#85604F"/>
					<stop  offset="1" style="stop-color:#7D5645"/>
					<stop  offset="1" style="stop-color:#0D1503"/>
				</radialGradient>
				<path style="fill:url(#SVGID_00000141447804408816270110000014143873621955482266_);" d="M-3.9,0.3H4V-1h-7.9V0.3z"/>
				
					<radialGradient id="SVGID_00000031910968072138732050000014425533475157617555_" cx="-19.35" cy="68.8625" r="5.325" gradientTransform="matrix(1 0 0 -1.1268 18.1 77.2416)" gradientUnits="userSpaceOnUse">
					<stop  offset="0" style="stop-color:#8F7B58"/>
					<stop  offset="0.749" style="stop-color:#36251F"/>
				</radialGradient>
				<path style="fill:url(#SVGID_00000031910968072138732050000014425533475157617555_);" d="M-3.9,0.3V1H4V0.3H-3.9z"/>
			</g>
		</g>
	</g>
</g>
<g transform="matrix( 1, 0, 0, 1, 19.35,13.4) ">
	<g transform="matrix( 1, 0, 0, 1, 0,0) ">
		<g>
			<g id="Shapes_Shape_53_0_Layer0_0_FILL_00000057116729825063598680000009972780498300262053_">
				
					<radialGradient id="SVGID_00000005987190167389581220000005381570771254304145_" cx="-19.35" cy="67.0125" r="5.325" gradientTransform="matrix(1 0 0 -1.1268 18.1 75.1571)" gradientUnits="userSpaceOnUse">
					<stop  offset="0" style="stop-color:#DFD3B8"/>
					<stop  offset="0.6314" style="stop-color:#85604F"/>
					<stop  offset="1" style="stop-color:#7D5645"/>
					<stop  offset="1" style="stop-color:#0D1503"/>
				</radialGradient>
				<path style="fill:url(#SVGID_00000005987190167389581220000005381570771254304145_);" d="M-3.9,0.3H4V-1h-7.9V0.3z"/>
				
					<radialGradient id="SVGID_00000011713289603359801860000013896250721211016381_" cx="-19.35" cy="67.0125" r="5.325" gradientTransform="matrix(1 0 0 -1.1268 18.1 75.1571)" gradientUnits="userSpaceOnUse">
					<stop  offset="0" style="stop-color:#8F7B58"/>
					<stop  offset="0.749" style="stop-color:#36251F"/>
				</radialGradient>
				<path style="fill:url(#SVGID_00000011713289603359801860000013896250721211016381_);" d="M-3.9,0.3V1H4V0.3H-3.9z"/>
			</g>
		</g>
	</g>
</g>
<g transform="matrix( 1, 0, 0, 1, 19.35,15.25) ">
	<g transform="matrix( 1, 0, 0, 1, 0,0) ">
		<g>
			<g id="Shapes_Shape_53_0_Layer0_0_FILL_00000170969364059822063180000009999062291775354758_">
				
					<radialGradient id="SVGID_00000000184940945332115660000002108840922537082012_" cx="-19.35" cy="65.1625" r="5.325" gradientTransform="matrix(1 0 0 -1.1268 18.1 73.0725)" gradientUnits="userSpaceOnUse">
					<stop  offset="0" style="stop-color:#DFD3B8"/>
					<stop  offset="0.6314" style="stop-color:#85604F"/>
					<stop  offset="1" style="stop-color:#7D5645"/>
					<stop  offset="1" style="stop-color:#0D1503"/>
				</radialGradient>
				<path style="fill:url(#SVGID_00000000184940945332115660000002108840922537082012_);" d="M-3.9,0.3H4V-1h-7.9V0.3z"/>
				
					<radialGradient id="SVGID_00000092449708597543744530000013827846443234498946_" cx="-19.35" cy="65.1625" r="5.325" gradientTransform="matrix(1 0 0 -1.1268 18.1 73.0725)" gradientUnits="userSpaceOnUse">
					<stop  offset="0" style="stop-color:#8F7B58"/>
					<stop  offset="0.749" style="stop-color:#36251F"/>
				</radialGradient>
				<path style="fill:url(#SVGID_00000092449708597543744530000013827846443234498946_);" d="M-3.9,0.3V1H4V0.3H-3.9z"/>
			</g>
		</g>
	</g>
</g>
<g transform="matrix( 1, 0, 0, 1, 19.35,17.2) ">
	<g transform="matrix( 1, 0, 0, 1, 0,0) ">
		<g>
			<g id="Shapes_Shape_53_0_Layer0_0_FILL_00000135658214469470456350000010951959926129282235_">
				
					<radialGradient id="SVGID_00000022556973067789982940000010798321450522567046_" cx="-19.35" cy="63.2125" r="5.325" gradientTransform="matrix(1 0 0 -1.1268 18.1 70.8754)" gradientUnits="userSpaceOnUse">
					<stop  offset="0" style="stop-color:#DFD3B8"/>
					<stop  offset="0.6314" style="stop-color:#85604F"/>
					<stop  offset="1" style="stop-color:#7D5645"/>
					<stop  offset="1" style="stop-color:#0D1503"/>
				</radialGradient>
				<path style="fill:url(#SVGID_00000022556973067789982940000010798321450522567046_);" d="M-3.9,0.3H4V-1h-7.9V0.3z"/>
				
					<radialGradient id="SVGID_00000058561217500169503080000002295246712746789055_" cx="-19.35" cy="63.2125" r="5.325" gradientTransform="matrix(1 0 0 -1.1268 18.1 70.8754)" gradientUnits="userSpaceOnUse">
					<stop  offset="0" style="stop-color:#8F7B58"/>
					<stop  offset="0.749" style="stop-color:#36251F"/>
				</radialGradient>
				<path style="fill:url(#SVGID_00000058561217500169503080000002295246712746789055_);" d="M-3.9,0.3V1H4V0.3H-3.9z"/>
			</g>
		</g>
	</g>
</g>
<g transform="matrix( 1, 0, 0, 1, 19.35,18.9) ">
	<g transform="matrix( 1, 0, 0, 1, 0,0) ">
		<g>
			<g id="Shapes_Shape_53_0_Layer0_0_FILL_00000002383911053907973310000008046936392659423407_">
				
					<radialGradient id="SVGID_00000092453214726578319850000017112878333336538500_" cx="-19.35" cy="61.5125" r="5.325" gradientTransform="matrix(1 0 0 -1.1268 18.1 68.9599)" gradientUnits="userSpaceOnUse">
					<stop  offset="0" style="stop-color:#DFD3B8"/>
					<stop  offset="0.6314" style="stop-color:#85604F"/>
					<stop  offset="1" style="stop-color:#7D5645"/>
					<stop  offset="1" style="stop-color:#0D1503"/>
				</radialGradient>
				<path style="fill:url(#SVGID_00000092453214726578319850000017112878333336538500_);" d="M-3.9,0.3H4V-1h-7.9V0.3z"/>
				
					<radialGradient id="SVGID_00000031206404777668930490000010820083989256130468_" cx="-19.35" cy="61.5125" r="5.325" gradientTransform="matrix(1 0 0 -1.1268 18.1 68.9599)" gradientUnits="userSpaceOnUse">
					<stop  offset="0" style="stop-color:#8F7B58"/>
					<stop  offset="0.749" style="stop-color:#36251F"/>
				</radialGradient>
				<path style="fill:url(#SVGID_00000031206404777668930490000010820083989256130468_);" d="M-3.9,0.3V1H4V0.3H-3.9z"/>
			</g>
		</g>
	</g>
</g>
<g transform="matrix( 1, 0, 0, 1, 19.35,20.75) ">
	<g transform="matrix( 1, 0, 0, 1, 0,0) ">
		<g>
			<g id="Shapes_Shape_53_0_Layer0_0_FILL_00000021097646824177843510000015003388927483834000_">
				
					<radialGradient id="SVGID_00000146465717280065747720000002132722805254566842_" cx="-19.35" cy="59.6625" r="5.325" gradientTransform="matrix(1 0 0 -1.1268 18.1 66.8754)" gradientUnits="userSpaceOnUse">
					<stop  offset="0" style="stop-color:#DFD3B8"/>
					<stop  offset="0.6314" style="stop-color:#85604F"/>
					<stop  offset="1" style="stop-color:#7D5645"/>
					<stop  offset="1" style="stop-color:#0D1503"/>
				</radialGradient>
				<path style="fill:url(#SVGID_00000146465717280065747720000002132722805254566842_);" d="M-3.9,0.3H4V-1h-7.9V0.3z"/>
				
					<radialGradient id="SVGID_00000001640782213765712840000008901043828200928933_" cx="-19.35" cy="59.6625" r="5.325" gradientTransform="matrix(1 0 0 -1.1268 18.1 66.8754)" gradientUnits="userSpaceOnUse">
					<stop  offset="0" style="stop-color:#8F7B58"/>
					<stop  offset="0.749" style="stop-color:#36251F"/>
				</radialGradient>
				<path style="fill:url(#SVGID_00000001640782213765712840000008901043828200928933_);" d="M-3.9,0.3V1H4V0.3H-3.9z"/>
			</g>
		</g>
	</g>
</g>
<g transform="matrix( 1, 0, 0, 1, 19.35,22.6) ">
	<g transform="matrix( 1, 0, 0, 1, 0,0) ">
		<g>
			<g id="Shapes_Shape_53_0_Layer0_0_FILL_00000065038822559443762180000002048256719695200141_">
				
					<radialGradient id="SVGID_00000083791912051722386300000014693830626238361270_" cx="-19.35" cy="57.8125" r="5.325" gradientTransform="matrix(1 0 0 -1.1268 18.1 64.7909)" gradientUnits="userSpaceOnUse">
					<stop  offset="0" style="stop-color:#DFD3B8"/>
					<stop  offset="0.6314" style="stop-color:#85604F"/>
					<stop  offset="1" style="stop-color:#7D5645"/>
					<stop  offset="1" style="stop-color:#0D1503"/>
				</radialGradient>
				<path style="fill:url(#SVGID_00000083791912051722386300000014693830626238361270_);" d="M-3.9,0.3H4V-1h-7.9V0.3z"/>
				
					<radialGradient id="SVGID_00000178195288753787109890000001550475021194505368_" cx="-19.35" cy="57.8125" r="5.325" gradientTransform="matrix(1 0 0 -1.1268 18.1 64.7909)" gradientUnits="userSpaceOnUse">
					<stop  offset="0" style="stop-color:#8F7B58"/>
					<stop  offset="0.749" style="stop-color:#36251F"/>
				</radialGradient>
				<path style="fill:url(#SVGID_00000178195288753787109890000001550475021194505368_);" d="M-3.9,0.3V1H4V0.3H-3.9z"/>
			</g>
		</g>
	</g>
</g>
<g transform="matrix( 1, 0, 0, 1, 26.75,12.9) ">
	<g transform="matrix( 1, 0, 0, 1, 0,0) ">
		<g>
			<g id="Shapes_Shape_53_0_Layer0_0_FILL_00000083065222989525181230000002629732616354604418_">
				
					<radialGradient id="SVGID_00000069389793605431017810000008508039534803534995_" cx="-26.75" cy="67.5125" r="5.325" gradientTransform="matrix(1 0 0 -1.1268 25.5 75.7204)" gradientUnits="userSpaceOnUse">
					<stop  offset="0" style="stop-color:#DFD3B8"/>
					<stop  offset="0.6314" style="stop-color:#85604F"/>
					<stop  offset="1" style="stop-color:#7D5645"/>
					<stop  offset="1" style="stop-color:#0D1503"/>
				</radialGradient>
				<path style="fill:url(#SVGID_00000069389793605431017810000008508039534803534995_);" d="M-4,0.3H4V-1H-4V0.3z"/>
				
					<radialGradient id="SVGID_00000084518759487505584310000007208247401250493100_" cx="-26.75" cy="67.5125" r="5.325" gradientTransform="matrix(1 0 0 -1.1268 25.5 75.7204)" gradientUnits="userSpaceOnUse">
					<stop  offset="0" style="stop-color:#8F7B58"/>
					<stop  offset="0.749" style="stop-color:#36251F"/>
				</radialGradient>
				<path style="fill:url(#SVGID_00000084518759487505584310000007208247401250493100_);" d="M-4,0.3V1H4V0.3H-4z"/>
			</g>
		</g>
	</g>
</g>
<g transform="matrix( 1, 0, 0, 1, 26.75,14.75) ">
	<g transform="matrix( 1, 0, 0, 1, 0,0) ">
		<g>
			<g id="Shapes_Shape_53_0_Layer0_0_FILL_00000080173104647260599430000005811157572739521153_">
				
					<radialGradient id="SVGID_00000107554480828648802770000002194992809781302193_" cx="-26.75" cy="65.6625" r="5.325" gradientTransform="matrix(1 0 0 -1.1268 25.5 73.6359)" gradientUnits="userSpaceOnUse">
					<stop  offset="0" style="stop-color:#DFD3B8"/>
					<stop  offset="0.6314" style="stop-color:#85604F"/>
					<stop  offset="1" style="stop-color:#7D5645"/>
					<stop  offset="1" style="stop-color:#0D1503"/>
				</radialGradient>
				<path style="fill:url(#SVGID_00000107554480828648802770000002194992809781302193_);" d="M-4,0.3H4V-1H-4V0.3z"/>
				
					<radialGradient id="SVGID_00000093871497814825046590000013263978268839556754_" cx="-26.75" cy="65.6625" r="5.325" gradientTransform="matrix(1 0 0 -1.1268 25.5 73.6359)" gradientUnits="userSpaceOnUse">
					<stop  offset="0" style="stop-color:#8F7B58"/>
					<stop  offset="0.749" style="stop-color:#36251F"/>
				</radialGradient>
				<path style="fill:url(#SVGID_00000093871497814825046590000013263978268839556754_);" d="M-4,0.3V1H4V0.3H-4z"/>
			</g>
		</g>
	</g>
</g>
<g transform="matrix( 1, 0, 0, 1, 26.75,16.6) ">
	<g transform="matrix( 1, 0, 0, 1, 0,0) ">
		<g>
			<g id="Shapes_Shape_53_0_Layer0_0_FILL_00000096773443543796830370000009503545329903110029_">
				
					<radialGradient id="SVGID_00000003096131475673266920000010535569683637124282_" cx="-26.75" cy="63.8125" r="5.325" gradientTransform="matrix(1 0 0 -1.1268 25.5 71.5514)" gradientUnits="userSpaceOnUse">
					<stop  offset="0" style="stop-color:#DFD3B8"/>
					<stop  offset="0.6314" style="stop-color:#85604F"/>
					<stop  offset="1" style="stop-color:#7D5645"/>
					<stop  offset="1" style="stop-color:#0D1503"/>
				</radialGradient>
				<path style="fill:url(#SVGID_00000003096131475673266920000010535569683637124282_);" d="M-4,0.3H4V-1H-4V0.3z"/>
				
					<radialGradient id="SVGID_00000176031027341364853870000006992635055079088282_" cx="-26.75" cy="63.8125" r="5.325" gradientTransform="matrix(1 0 0 -1.1268 25.5 71.5514)" gradientUnits="userSpaceOnUse">
					<stop  offset="0" style="stop-color:#8F7B58"/>
					<stop  offset="0.749" style="stop-color:#36251F"/>
				</radialGradient>
				<path style="fill:url(#SVGID_00000176031027341364853870000006992635055079088282_);" d="M-4,0.3V1H4V0.3H-4z"/>
			</g>
		</g>
	</g>
</g>
<g transform="matrix( 1, 0, 0, 1, 26.75,18.45) ">
	<g transform="matrix( 1, 0, 0, 1, 0,0) ">
		<g>
			<g id="Shapes_Shape_53_0_Layer0_0_FILL_00000072970139790635785450000005460369795251989951_">
				
					<radialGradient id="SVGID_00000172402865166082022430000001833120519578067603_" cx="-26.75" cy="61.9625" r="5.325" gradientTransform="matrix(1 0 0 -1.1268 25.5 69.4669)" gradientUnits="userSpaceOnUse">
					<stop  offset="0" style="stop-color:#DFD3B8"/>
					<stop  offset="0.6314" style="stop-color:#85604F"/>
					<stop  offset="1" style="stop-color:#7D5645"/>
					<stop  offset="1" style="stop-color:#0D1503"/>
				</radialGradient>
				<path style="fill:url(#SVGID_00000172402865166082022430000001833120519578067603_);" d="M-4,0.3H4V-1H-4V0.3z"/>
				
					<radialGradient id="SVGID_00000158714541757718809570000004505688418854458301_" cx="-26.75" cy="61.9625" r="5.325" gradientTransform="matrix(1 0 0 -1.1268 25.5 69.4669)" gradientUnits="userSpaceOnUse">
					<stop  offset="0" style="stop-color:#8F7B58"/>
					<stop  offset="0.749" style="stop-color:#36251F"/>
				</radialGradient>
				<path style="fill:url(#SVGID_00000158714541757718809570000004505688418854458301_);" d="M-4,0.3V1H4V0.3H-4z"/>
			</g>
		</g>
	</g>
</g>
<g transform="matrix( 1, 0, 0, 1, 26.75,20.4) ">
	<g transform="matrix( 1, 0, 0, 1, 0,0) ">
		<g>
			<g id="Shapes_Shape_53_0_Layer0_0_FILL_00000083804071102030409390000006492298377400652982_">
				
					<radialGradient id="SVGID_00000070831307993959418270000017336116321839674045_" cx="-26.75" cy="60.0125" r="5.325" gradientTransform="matrix(1 0 0 -1.1268 25.5 67.2697)" gradientUnits="userSpaceOnUse">
					<stop  offset="0" style="stop-color:#DFD3B8"/>
					<stop  offset="0.6314" style="stop-color:#85604F"/>
					<stop  offset="1" style="stop-color:#7D5645"/>
					<stop  offset="1" style="stop-color:#0D1503"/>
				</radialGradient>
				<path style="fill:url(#SVGID_00000070831307993959418270000017336116321839674045_);" d="M-4,0.3H4V-1H-4V0.3z"/>
				
					<radialGradient id="SVGID_00000039826995688385154680000005365619636338358156_" cx="-26.75" cy="60.0125" r="5.325" gradientTransform="matrix(1 0 0 -1.1268 25.5 67.2697)" gradientUnits="userSpaceOnUse">
					<stop  offset="0" style="stop-color:#8F7B58"/>
					<stop  offset="0.749" style="stop-color:#36251F"/>
				</radialGradient>
				<path style="fill:url(#SVGID_00000039826995688385154680000005365619636338358156_);" d="M-4,0.3V1H4V0.3H-4z"/>
			</g>
		</g>
	</g>
</g>
<g transform="matrix( 1, 0, 0, 1, 26.75,22.1) ">
	<g transform="matrix( 1, 0, 0, 1, 0,0) ">
		<g>
			<g id="Shapes_Shape_53_0_Layer0_0_FILL_00000177453356466102510170000004925113855982922641_">
				
					<radialGradient id="SVGID_00000054960935155729258920000012654622107657689006_" cx="-26.75" cy="58.3125" r="5.325" gradientTransform="matrix(1 0 0 -1.1268 25.5 65.3542)" gradientUnits="userSpaceOnUse">
					<stop  offset="0" style="stop-color:#DFD3B8"/>
					<stop  offset="0.6314" style="stop-color:#85604F"/>
					<stop  offset="1" style="stop-color:#7D5645"/>
					<stop  offset="1" style="stop-color:#0D1503"/>
				</radialGradient>
				<path style="fill:url(#SVGID_00000054960935155729258920000012654622107657689006_);" d="M-4,0.3H4V-1H-4V0.3z"/>
				
					<radialGradient id="SVGID_00000026137061537318375570000005360322361303571114_" cx="-26.75" cy="58.3125" r="5.325" gradientTransform="matrix(1 0 0 -1.1268 25.5 65.3542)" gradientUnits="userSpaceOnUse">
					<stop  offset="0" style="stop-color:#8F7B58"/>
					<stop  offset="0.749" style="stop-color:#36251F"/>
				</radialGradient>
				<path style="fill:url(#SVGID_00000026137061537318375570000005360322361303571114_);" d="M-4,0.3V1H4V0.3H-4z"/>
			</g>
		</g>
	</g>
</g>
<g transform="matrix( 1, 0, 0, 1, 26.75,23.95) ">
	<g transform="matrix( 1, 0, 0, 1, 0,0) ">
		<g>
			<g id="Shapes_Shape_53_0_Layer0_0_FILL_00000079450929163554079580000006336789183298598048_">
				
					<radialGradient id="SVGID_00000160151276803260866560000014826715254597070482_" cx="-26.75" cy="56.4625" r="5.325" gradientTransform="matrix(1 0 0 -1.1268 25.5 63.2697)" gradientUnits="userSpaceOnUse">
					<stop  offset="0" style="stop-color:#DFD3B8"/>
					<stop  offset="0.6314" style="stop-color:#85604F"/>
					<stop  offset="1" style="stop-color:#7D5645"/>
					<stop  offset="1" style="stop-color:#0D1503"/>
				</radialGradient>
				<path style="fill:url(#SVGID_00000160151276803260866560000014826715254597070482_);" d="M-4,0.3H4V-1H-4V0.3z"/>
				
					<radialGradient id="SVGID_00000090986812318112292230000000234825876760733858_" cx="-26.75" cy="56.4625" r="5.325" gradientTransform="matrix(1 0 0 -1.1268 25.5 63.2697)" gradientUnits="userSpaceOnUse">
					<stop  offset="0" style="stop-color:#8F7B58"/>
					<stop  offset="0.749" style="stop-color:#36251F"/>
				</radialGradient>
				<path style="fill:url(#SVGID_00000090986812318112292230000000234825876760733858_);" d="M-4,0.3V1H4V0.3H-4z"/>
			</g>
		</g>
	</g>
</g>
<g transform="matrix( 1, 0, 0, 1, 26.75,25.8) ">
	<g transform="matrix( 1, 0, 0, 1, 0,0) ">
		<g>
			<g id="Shapes_Shape_53_0_Layer0_0_FILL_00000173870992805274418100000000918432619548299704_">
				
					<radialGradient id="SVGID_00000178185124208052189870000017138405922924068770_" cx="-26.75" cy="54.6125" r="5.325" gradientTransform="matrix(1 0 0 -1.1268 25.5 61.1852)" gradientUnits="userSpaceOnUse">
					<stop  offset="0" style="stop-color:#DFD3B8"/>
					<stop  offset="0.6314" style="stop-color:#85604F"/>
					<stop  offset="1" style="stop-color:#7D5645"/>
					<stop  offset="1" style="stop-color:#0D1503"/>
				</radialGradient>
				<path style="fill:url(#SVGID_00000178185124208052189870000017138405922924068770_);" d="M-4,0.3H4V-1H-4V0.3z"/>
				
					<radialGradient id="SVGID_00000005240176251969197230000014485147090342870172_" cx="-26.75" cy="54.6125" r="5.325" gradientTransform="matrix(1 0 0 -1.1268 25.5 61.1852)" gradientUnits="userSpaceOnUse">
					<stop  offset="0" style="stop-color:#8F7B58"/>
					<stop  offset="0.749" style="stop-color:#36251F"/>
				</radialGradient>
				<path style="fill:url(#SVGID_00000005240176251969197230000014485147090342870172_);" d="M-4,0.3V1H4V0.3H-4z"/>
			</g>
		</g>
	</g>
</g>
<g transform="matrix( 1, 0, 0, 1, 0,0) ">
	<g transform="matrix( 1, 0, 0, 1, 0,0) ">
		<g>
			<g id="Shapes_Shape_54_0_Layer1_0_FILL">
				<path class="st49" d="M25,18c-1.3-1.3-2.9-2-4.7-2c-1.8,0-3.4,0.6-4.6,2c-0.6,0.6-1,1.3-1.3,2l-0.4,1.2l-0.2,1.2v0.1v0.2V23
					l0.1,0.6l0.2,0.9l0.2,0.7v0.1l0.4,0.6h-0.1l1,1.4h0.1c1.3,1.3,2.8,1.9,4.6,1.9c1.8,0,3.4-0.6,4.7-1.9l0,0l1.4-2l0.1-0.2l0.1-0.4
					l0.1-0.2l0.1-0.9v-0.1v-0.5v-0.2v-0.1l-0.1-1l-0.3-1.3l-0.1-0.1L25.8,19L25,18 M20.3,16.3c1.7,0,3.2,0.6,4.5,1.9l0.8,0.9
					l0.7,1.1v0l0.3,1.2l0.1,1v0.1v0.2v0.5v0.1l-0.1,0.9l-0.1,0.1l-0.1,0.4l0,0.2l-1.4,2c-1.3,1.2-2.8,1.8-4.5,1.8
					c-1.7,0-3.2-0.6-4.4-1.8l0-0.1l-1-1.3l0,0l-0.3-0.6l-0.1-0.1l-0.2-0.8l-0.2-0.9L14,23v-0.1v-0.2v-0.1l0.2-1.2l-0.1,0.1l0.5-1.4
					c0.3-0.7,0.7-1.3,1.2-1.8h0C17.1,16.9,18.6,16.3,20.3,16.3z"/>
				<path class="st50" d="M24.8,18.2c-1.3-1.3-2.8-1.9-4.5-1.9c-1.7,0-3.2,0.6-4.4,1.9h0c-0.6,0.5-1,1.1-1.2,1.8l-0.5,1.4l0.1-0.1
					L14,22.5v0.1v0.2V23l0.1,0.5l0.2,0.9l0.2,0.8l0.1,0.1l0.3,0.6l0,0l1,1.3l0,0.1c1.2,1.2,2.7,1.8,4.4,1.8c1.7,0,3.2-0.6,4.5-1.8
					l1.4-2l0-0.2l0.1-0.4l0.1-0.1l0.1-0.9v-0.1v-0.5v-0.2v-0.1l-0.1-1l-0.3-1.2v0l-0.7-1.1L24.8,18.2 M20.3,16.5
					c1.7,0,3.1,0.6,4.3,1.8l0.8,0.9h-0.1l0.7,1.1l0,0l0.3,1.2l0.1,0.9v0.1v0.2v0.5v0.1l-0.1,0.8l-0.1,0.1L26,24.9l0,0.1l-1.3,1.9h0
					c-1.2,1.2-2.6,1.8-4.3,1.8s-3.1-0.6-4.2-1.8l-0.9-1.3v0l-0.4-0.5V25l-0.2-0.8l-0.1-0.8L14.2,23v-0.1v-0.2v-0.1
					c0-0.4,0.1-0.7,0.1-1c0.1-0.4,0.2-0.8,0.5-1.2c0.2-0.7,0.6-1.3,1.2-1.9C17.2,17.1,18.6,16.5,20.3,16.5z"/>
				<path class="st51" d="M24.6,18.4c-1.2-1.2-2.6-1.8-4.3-1.8s-3.1,0.6-4.2,1.8c-0.6,0.6-1,1.2-1.2,1.9c-0.2,0.4-0.4,0.8-0.5,1.2
					c-0.1,0.3-0.1,0.6-0.1,1v0.1v0.2V23l0.1,0.5l0.1,0.8l0.2,0.8v0.1l0.4,0.5v0l0.9,1.3c1.2,1.2,2.6,1.8,4.2,1.8s3.1-0.6,4.3-1.8h0
					L26,25l0-0.1l0.1-0.5l0.1-0.1l0.1-0.8v-0.1v-0.5v-0.2v-0.1l-0.1-0.9L26,20.4l0,0l-0.7-1.1h0.1L24.6,18.4 M20.3,16.8
					c1.6,0,3,0.6,4.2,1.8l0.6,0.8l0.6,1.1l0.3,1.1v0l0.1,0.9v0.1v0.2v0.5v0L26,24.2v0l-0.2,0.5v0.1l-1.3,1.9
					c-1.2,1.1-2.6,1.6-4.2,1.6s-2.9-0.5-4-1.6l-0.9-1.2L15,25l-0.2-0.8l-0.1-0.8L14.5,23v-0.1v-0.2v-0.1l0.2-1h-0.1
					c0.1-0.4,0.2-0.8,0.5-1.2v0.1c0.2-0.7,0.6-1.3,1.1-1.8C17.4,17.4,18.7,16.8,20.3,16.8z"/>
				<path class="st52" d="M24.5,18.5c-1.2-1.2-2.6-1.8-4.2-1.8s-2.9,0.6-4,1.8c-0.5,0.5-0.9,1.1-1.1,1.8v-0.1
					c-0.2,0.3-0.4,0.7-0.5,1.2h0.1l-0.2,1v0.1v0.2V23l0.1,0.5l0.1,0.8L15,25l0.3,0.5l0.9,1.2c1.1,1.1,2.4,1.6,4,1.6s3-0.5,4.2-1.6
					l1.3-1.9v-0.1l0.2-0.5v0l0.1-0.8v0v-0.5v-0.2v-0.1L26,21.6v0l-0.3-1.1l-0.6-1.1L24.5,18.5z"/>
			</g>
		</g>
	</g>
	<g transform="matrix( 1, 0, 0, 1, 0,0) ">
		<g>
			<g id="Shapes_Shape_54_0_Layer0_0_FILL">
				
					<linearGradient id="SVGID_00000136396859232937834330000003440259984627008700_" gradientUnits="userSpaceOnUse" x1="16.375" y1="19.325" x2="24.2255" y2="11.4745" gradientTransform="matrix(1 0 0 -1 0 38)">
					<stop  offset="0" style="stop-color:#C9B69D"/>
					<stop  offset="1" style="stop-color:#8B6551"/>
					<stop  offset="1" style="stop-color:#0D1503"/>
				</linearGradient>
				<path style="fill:url(#SVGID_00000136396859232937834330000003440259984627008700_);" d="M24.9,19.5l-0.6-0.8
					c-1.1-1.1-2.4-1.7-4-1.7c-1.5,0-2.8,0.6-3.9,1.7c-0.5,0.5-0.9,1.1-1.1,1.7l-0.4,1.1c-0.1,0.3-0.1,0.6-0.1,1v0.1v0.2V23l0.1,0.4
					c0,0.3,0.1,0.6,0.1,0.8l0.2,0.7l0.3,0.5l0.9,1.2c1.1,1.1,2.4,1.6,3.9,1.6c1.5,0,2.9-0.5,4-1.6l1.2-1.8l0.2-0.6l0.1-0.8v-0.5
					v-0.2v-0.1l-0.1-0.9l-0.3-1.1L24.9,19.5 M24,20.1l0.5,0.9l0.2,0.9l0,0.7v0.1v0.2v0.4l-0.1,0.6l-0.1,0.5l-1,1.4
					c-0.9,0.9-1.9,1.3-3.2,1.3c-1.2,0-2.3-0.4-3.1-1.3l-0.8-1l-0.2-0.4L16,23.9l-0.1-0.6l-0.1-0.3v-0.1v-0.2v-0.1l0.1-0.8l0.3-0.9
					c0.2-0.5,0.5-1,0.9-1.4c0.8-0.9,1.9-1.4,3.1-1.4c1.2,0,2.3,0.5,3.2,1.4L24,20.1z"/>
				
					<linearGradient id="SVGID_00000150781940703882505470000010366209173226549668_" gradientUnits="userSpaceOnUse" x1="12.5321" y1="10.8877" x2="28.0821" y2="19.8877" gradientTransform="matrix(1 0 0 -1 0 38)">
					<stop  offset="0" style="stop-color:#C9B69D"/>
					<stop  offset="1" style="stop-color:#8B6551"/>
					<stop  offset="1" style="stop-color:#0D1503"/>
				</linearGradient>
				<path style="fill:url(#SVGID_00000150781940703882505470000010366209173226549668_);" d="M24.5,21L24,20.1l-0.5-0.6
					c-0.9-0.9-1.9-1.4-3.2-1.4c-1.2,0-2.3,0.5-3.1,1.4c-0.4,0.4-0.7,0.9-0.9,1.4L16,21.7l-0.1,0.8v0.1v0.2v0.1l0.1,0.3l0.1,0.6
					l0.2,0.5l0.2,0.4l0.8,1c0.8,0.9,1.9,1.3,3.1,1.3c1.2,0,2.3-0.4,3.2-1.3l1-1.4l0.1-0.5l0.1-0.6v-0.4v-0.2v-0.1l0-0.7L24.5,21
					 M23,20.8l0.4,0.6l0.1,0.6l0,0.6v0.1V23l-0.1,0.5l-0.1,0.4l-0.8,1c-0.6,0.6-1.4,1-2.3,1s-1.7-0.3-2.3-1l-0.5-0.7L17.3,24
					l-0.1-0.5L17.1,23L17,22.9v-0.1v-0.1v-0.1l0.1-0.5l0.2-0.6l0.6-1c0.6-0.7,1.4-1,2.3-1s1.7,0.3,2.3,1L23,20.8z"/>
				
					<linearGradient id="SVGID_00000066486156658373977620000002688824399189864603_" gradientUnits="userSpaceOnUse" x1="23.9879" y1="11.6879" x2="16.5879" y2="19.0879" gradientTransform="matrix(1 0 0 -1 0 38)">
					<stop  offset="0.3412" style="stop-color:#A0806B"/>
					<stop  offset="1" style="stop-color:#8B6551"/>
					<stop  offset="1" style="stop-color:#0D1503"/>
				</linearGradient>
				<path style="fill:url(#SVGID_00000066486156658373977620000002688824399189864603_);" d="M23.4,21.4L23,20.8l-0.4-0.4
					c-0.6-0.7-1.4-1-2.3-1s-1.7,0.3-2.3,1l-0.6,1L17.1,22L17,22.5v0.1v0.1v0.1l0.1,0.2l0.1,0.5l0.1,0.5l0.2,0.2l0.5,0.7
					c0.6,0.6,1.4,1,2.3,1s1.7-0.3,2.3-1l0.8-1l0.1-0.4l0.1-0.5v-0.3v-0.1l0-0.6L23.4,21.4 M20.6,21.4H21l0.1,0.5L20.8,22l-0.2,0
					l-0.1,0.6L20,22.2l0-0.6l-0.1-0.1l-0.4,0.4l-0.3,0l0-0.2l0.8-1.4c0.3-0.4,0.5-0.4,0.6,0l0.2,0c0.4,0,0.6,0.2,0.6,0.5l0,0.2
					l-0.5-0.1c-0.1,0-0.1,0-0.1,0.1l-0.1,0.2V21.4 M21.5,23.9L21,23.7l0.1,0.3c0,0.3-0.1,0.5-0.4,0.5l-1-1c0-0.3,0.2-0.4,0.7-0.2
					c0.3,0.1,0.5,0.2,0.6,0.4l-0.1-0.4c0-0.4,0.3-0.4,0.9,0.1l0.2-0.3c0.2-0.1,0.3,0.1,0.3,0.5l-0.1,0.5L22,24.2
					c-0.2,0-0.3-0.1-0.3-0.2v-0.1H21.5 M22.6,24.2L22.3,24l0.5-0.8l0.3,0.4C23.1,23.9,22.9,24.1,22.6,24.2 M18.5,24.1l-0.1-0.4
					c0-0.5,0.3-0.5,0.9,0.1V24h0.5l0,0.2c0,0.2-0.2,0.4-0.6,0.4H19C18.8,24.6,18.6,24.4,18.5,24.1z"/>
				<path class="st56" d="M18.4,23.7l0.1,0.4c0.1,0.3,0.2,0.5,0.5,0.5h0.2c0.4,0,0.6-0.2,0.6-0.4l0-0.2h-0.5v-0.2
					C18.7,23.2,18.4,23.2,18.4,23.7 M22.3,24l0.3,0.2c0.3-0.1,0.5-0.3,0.5-0.6l-0.3-0.4L22.3,24 M21.1,24L21,23.7
					c-0.1-0.2-0.3-0.3-0.6-0.4c-0.5-0.2-0.7-0.1-0.7,0.2l1,1C21,24.5,21.1,24.4,21.1,24 M21,23.7l0.5,0.2h0.2V24
					c0,0.2,0.1,0.3,0.3,0.2l0.2-0.1l0.1-0.5c0-0.4-0.1-0.6-0.3-0.5l-0.2,0.3c-0.6-0.5-0.9-0.5-0.9-0.1L21,23.7 M21,21.4h-0.4v-0.1
					l0.1-0.2c0-0.1,0-0.1,0.1-0.1l0.5,0.1l0-0.2c0-0.4-0.2-0.5-0.6-0.5l-0.2,0c-0.1-0.4-0.4-0.4-0.6,0l-0.8,1.4l0,0.2l0.3,0l0.4-0.4
					l0.1,0.1l0,0.6l0.5,0.4l0.1-0.6l0.2,0l0.3-0.1L21,21.4z"/>
			</g>
		</g>
	</g>
</g>
</svg>
