<?xml version="1.0" encoding="utf-8"?>
<!-- Generator: Adobe Illustrator 27.4.1, SVG Export Plug-In . SVG Version: 6.00 Build 0)  -->
<svg version="1.1" id="Слой_1" xmlns="http://www.w3.org/2000/svg" xmlns:xlink="http://www.w3.org/1999/xlink" x="0px" y="0px"
	 viewBox="0 0 37 37" style="enable-background:new 0 0 37 37;" xml:space="preserve">
<style type="text/css">
	.st0{fill:url(#SVGID_1_);}
	.st1{fill:url(#SVGID_00000000904743186155072250000001646234241050642090_);}
	.st2{fill:#706639;}
	.st3{fill:#1B1310;fill-opacity:0.1373;}
	.st4{fill:#1B1310;fill-opacity:0.2824;}
	.st5{fill:#1B1310;fill-opacity:0.4235;}
	.st6{fill:#1B1310;fill-opacity:0.5686;}
	.st7{fill:#1B1310;fill-opacity:0.7098;}
	.st8{fill:#1B1310;fill-opacity:0.8549;}
	.st9{fill:#1B1310;}
	.st10{fill:#1B1310;fill-opacity:0.1608;}
	.st11{fill:#1B1310;fill-opacity:0.3294;}
	.st12{fill:#1B1310;fill-opacity:0.498;}
	.st13{fill:#1B1310;fill-opacity:0.6627;}
	.st14{fill:#1B1310;fill-opacity:0.8314;}
	.st15{fill:#59433F;}
	.st16{fill:url(#SVGID_00000059273583736835924010000013946168528129881228_);}
	.st17{fill:url(#SVGID_00000004525231384514725000000018281334268295268254_);}
	.st18{fill:url(#SVGID_00000150785153965944059860000002747410882803713185_);}
</style>
<g transform="matrix( 1, 0, 0, 1, 2.85,3.1) ">
	<g transform="matrix( 1, 0, 0, 1, 0,0) ">
		<g>
			<g id="Shapes_Shape_51_0_Layer1_0_FILL">
				
					<linearGradient id="SVGID_1_" gradientUnits="userSpaceOnUse" x1="20.892" y1="5.5454" x2="5.792" y2="31.8454" gradientTransform="matrix(1 0 0 -1 2.85 34.9)">
					<stop  offset="0" style="stop-color:#2B3913"/>
					<stop  offset="1" style="stop-color:#0F1608"/>
					<stop  offset="1" style="stop-color:#0D1503"/>
				</linearGradient>
				<path class="st0" d="M31.4,5.3C31.4,2.5,29.9,1,27,1H5.3C2.5,1,1,2.5,1,5.3V27c0,2.9,1.5,4.4,4.3,4.4H27c2.9,0,4.4-1.5,4.4-4.4
					V5.3 M28.3,23.4l-0.5,0C28.1,22.9,28.3,22.9,28.3,23.4 M11.9,19.9l-0.1-0.2h0.1V19.9 M11.9,30l-0.3,0l0.3-0.1V30 M2.7,24.9
					L2.6,25l-0.1-0.1H2.7L2.7,24.9z"/>
				
					<linearGradient id="SVGID_00000140717412037230043330000002326966323605157292_" gradientUnits="userSpaceOnUse" x1="-0.725" y1="10.05" x2="25.425" y2="10.05" gradientTransform="matrix(1 0 0 -1 2.85 34.9)">
					<stop  offset="0" style="stop-color:#2B3913"/>
					<stop  offset="1" style="stop-color:#0F1608"/>
					<stop  offset="1" style="stop-color:#0D1503"/>
				</linearGradient>
				<path style="fill:url(#SVGID_00000140717412037230043330000002326966323605157292_);" d="M2.6,25l0.1-0.1l0,0l-0.2,0L2.6,25
					 M11.6,30l0.3,0v-0.1L11.6,30 M11.9,19.6l0.1,0.2L11.9,19.6L11.9,19.6 M27.8,23.4l0.5,0C28.3,22.9,28.1,22.9,27.8,23.4z"/>
			</g>
		</g>
	</g>
	<g transform="matrix( 1, 0, 0, 1, 0,0) ">
		<g>
			<g id="Shapes_Shape_51_0_Layer0_0_FILL">
				<path class="st2" d="M32.3,5.3C32.3,1.8,30.5,0,27,0H5.3C1.8,0,0,1.8,0,5.3V27c0,3.5,1.8,5.3,5.3,5.3H27c3.5,0,5.3-1.8,5.3-5.3
					V5.3 M27,1c2.9,0,4.4,1.5,4.4,4.3V27c0,2.9-1.5,4.4-4.4,4.4H5.3C2.5,31.4,1,29.9,1,27V5.3C1,2.5,2.5,1,5.3,1H27z"/>
			</g>
		</g>
	</g>
</g>
<g transform="matrix( 1, 0, 0, 1, 8.65,8.6) ">
	<g transform="matrix( 1, 0, 0, 1, 0,0) ">
		<g>
			<g id="Shapes_Shape_63_0_Layer3_0_FILL">
				<path class="st3" d="M19.5,4.5c-2.2-2.2-4.8-3.2-7.9-3.2S5.9,2.3,3.7,4.5l0,0.1c-2.2,2.2-3.2,4.8-3.2,7.9c0,3.1,1.1,5.7,3.2,7.9
					c2.2,2.2,4.9,3.3,8,3.3c3.1,0,5.7-1.1,7.9-3.2l0,0c2.2-2.2,3.3-4.8,3.3-7.9C22.8,9.3,21.7,6.7,19.5,4.5 M11.6,1.7
					c3,0,5.5,1.1,7.5,3.2c2.1,2.1,3.1,4.6,3.1,7.6c0,2.9-1,5.4-3.1,7.5L19.1,20c-2.1,2.1-4.6,3.1-7.5,3.1S6.1,22.1,4,20
					c-2.1-2.1-3.1-4.6-3.1-7.6c0-3,1-5.5,3-7.6l0-0.1C6.1,2.7,8.6,1.7,11.6,1.7z"/>
				<path class="st4" d="M19.1,4.8c-2.1-2.1-4.6-3.2-7.5-3.2S6.1,2.7,4,4.8l0,0.1c-2.1,2.1-3.1,4.6-3,7.6c0,3,1,5.5,3.1,7.6
					c2.1,2.1,4.6,3.1,7.6,3.1s5.5-1,7.5-3.1l0.1-0.1c2.1-2.1,3.1-4.6,3.1-7.5C22.3,9.4,21.2,6.9,19.1,4.8 M11.6,2.2
					c2.8,0,5.2,1,7.2,2.9c2,2,3,4.4,3,7.3c0,2.8-1,5.2-3,7.2l-0.1,0c-2,2-4.4,3-7.2,3s-5.3-1-7.3-3c-2-2-3-4.4-3-7.2s1-5.2,3-7.2
					l0-0.1C6.3,3.1,8.8,2.2,11.6,2.2z"/>
				<path class="st5" d="M18.9,5.1c-2-2-4.4-2.9-7.2-2.9s-5.3,1-7.3,2.9l0,0.1c-2,2-3,4.4-3,7.2s1,5.2,3,7.2c2,2,4.5,3,7.3,3
					s5.2-1,7.2-3l0.1,0c2-2,3-4.4,3-7.2C21.9,9.5,20.9,7.1,18.9,5.1 M11.6,2.6c2.7,0,5,1,6.9,2.8c1.9,1.9,2.9,4.2,2.9,6.9
					c0,2.7-1,5-2.9,6.9l0,0.1c-1.9,1.9-4.2,2.9-6.9,2.9c-2.7,0-5.1-1-7-2.9c-1.9-1.9-2.9-4.2-2.8-6.9c0-2.7,0.9-5,2.8-6.9l0.1,0
					C6.5,3.5,8.9,2.6,11.6,2.6z"/>
				<path class="st6" d="M18.5,5.5c-1.9-1.9-4.2-2.8-6.9-2.8c-2.7,0-5.1,0.9-7,2.8l-0.1,0c-1.9,1.9-2.8,4.2-2.8,6.9
					c0,2.7,0.9,5,2.8,6.9c1.9,1.9,4.2,2.9,7,2.9c2.7,0,5-1,6.9-2.9l0-0.1c1.9-1.9,2.9-4.2,2.9-6.9C21.4,9.7,20.4,7.4,18.5,5.5
					 M11.6,3.1c2.6,0,4.8,0.9,6.6,2.7c1.8,1.8,2.8,4,2.8,6.6c0,2.6-0.9,4.8-2.8,6.6c-1.8,1.8-4,2.8-6.6,2.8S6.8,20.8,4.9,19
					c-1.8-1.8-2.7-4-2.7-6.6c0-2.6,0.9-4.8,2.7-6.6C6.8,4,9,3.1,11.6,3.1z"/>
				<path class="st7" d="M18.2,5.8c-1.8-1.8-4-2.7-6.6-2.7S6.8,4,4.9,5.8c-1.8,1.8-2.7,4-2.7,6.6c0,2.6,0.9,4.8,2.7,6.6
					c1.8,1.8,4.1,2.8,6.7,2.8s4.8-0.9,6.6-2.8c1.8-1.8,2.8-4,2.8-6.6C21,9.8,20,7.6,18.2,5.8 M11.6,3.5c2.5,0,4.5,0.8,6.2,2.6
					c1.8,1.8,2.6,3.9,2.6,6.3s-0.9,4.5-2.6,6.2c-1.7,1.8-3.8,2.6-6.2,2.6S7,20.4,5.3,18.6c-1.7-1.7-2.6-3.8-2.6-6.2s0.9-4.6,2.6-6.3
					C7,4.4,9.1,3.5,11.6,3.5z"/>
				<path class="st8" d="M17.9,6.1c-1.7-1.7-3.8-2.6-6.2-2.6S7,4.4,5.3,6.1c-1.7,1.8-2.6,3.9-2.6,6.3s0.9,4.5,2.6,6.2
					c1.7,1.8,3.8,2.6,6.3,2.6s4.5-0.9,6.2-2.6c1.8-1.7,2.6-3.8,2.6-6.2S19.6,7.8,17.9,6.1 M11.6,4c2.3,0,4.3,0.8,5.9,2.5
					C19.2,8,20,10,20,12.4c0,2.3-0.8,4.3-2.5,6c-1.6,1.6-3.6,2.5-5.9,2.5c-2.3,0-4.3-0.9-6-2.5c-1.6-1.6-2.4-3.6-2.4-6
					C3.1,10,4,8,5.6,6.4C7.3,4.8,9.3,4,11.6,4z"/>
				<path class="st9" d="M17.5,6.4C15.9,4.8,13.9,4,11.6,4s-4.3,0.8-6,2.5C4,8,3.1,10,3.1,12.4c0,2.3,0.8,4.3,2.4,6
					c1.7,1.6,3.7,2.5,6,2.5c2.3,0,4.3-0.9,5.9-2.5c1.7-1.6,2.5-3.6,2.5-6C20,10,19.2,8,17.5,6.4z"/>
			</g>
		</g>
	</g>
	<g transform="matrix( 1, 0, 0, 1, 0,0) ">
		<g>
			<g id="Shapes_Shape_63_0_Layer2_0_FILL">
				<path class="st10" d="M18.3,14.4l-0.5-0.5l-0.1,0.3l0.4,0.4v0.1c0.5,0.5,0.8,1.1,0.8,1.8v0.1c0,0.7-0.2,1.3-0.8,1.9l0,0
					c-0.5,0.5-1.1,0.8-1.9,0.8h0c-0.7,0-1.4-0.2-1.9-0.8l-0.2-0.2l-0.3,0.2l0.2,0.3c0.6,0.5,1.3,0.8,2.1,0.9h0
					c0.8,0,1.5-0.3,2.1-0.9l0,0c0.5-0.6,0.8-1.3,0.9-2.1v-0.1C19.1,15.7,18.8,15,18.3,14.4 M7.8,18.8l-0.4-0.1V19
					c0.1,0.7,0.4,1.2,0.9,1.8c0.6,0.6,1.3,0.8,2.1,0.8h0.1c0.8,0,1.5-0.3,2.1-0.8l0-0.1c0.4-0.5,0.7-1.1,0.8-1.7l0.1-0.4l-0.3,0.1
					c0,0.6-0.3,1.2-0.7,1.6l0,0.1c-0.5,0.5-1.2,0.8-1.9,0.8h-0.1c-0.7,0-1.3-0.2-1.8-0.8C8.1,20,7.8,19.4,7.8,18.8 M7.2,18.5
					l-0.3-0.2l-0.3,0.4c-0.5,0.5-1.2,0.8-1.9,0.8c-0.8,0-1.4-0.2-1.9-0.7h0c-0.6-0.5-0.9-1.1-0.9-1.9v0c0-0.7,0.2-1.4,0.8-1.9
					l0.7-0.7l-0.1-0.4l-0.8,0.8c-0.6,0.6-0.8,1.3-0.8,2.1V17c0,0.8,0.3,1.4,0.9,2l0,0c0.6,0.5,1.3,0.8,2.1,0.9c0.8,0,1.5-0.4,2.1-1
					L7.2,18.5 M2.7,8.2l0.1-0.3H2.4C1.8,8,1.2,8.3,0.7,8.8c-0.6,0.6-0.9,1.3-0.9,2.1v0.1c0,0.8,0.3,1.5,0.9,2.1v0.1
					c0.5,0.5,1.1,0.7,1.8,0.8h0.4h0.3L3,13.6H2.8H2.7c-0.7,0-1.2-0.3-1.8-0.8c-0.5-0.5-0.8-1.1-0.8-1.9v-0.1c0-0.7,0.3-1.3,0.8-1.8
					V9C1.4,8.5,2,8.3,2.7,8.2 M21,8.9L21,8.9c-0.6-0.7-1.4-0.9-2.2-0.9h-1l0.8-0.8h0c0.6-0.6,0.9-1.3,0.9-2.1V5
					c0-0.8-0.2-1.5-0.8-2.2h0c-0.6-0.6-1.3-0.9-2.1-1c-0.8,0-1.5,0.3-2.1,0.9l-0.6,0.7l0.2,0.1L14.8,3c0.5-0.5,1.1-0.7,1.9-0.7
					c0.7,0,1.4,0.2,1.9,0.8l0,0C19,3.6,19.2,4.3,19.2,5c0,0.7-0.3,1.4-0.9,1.9h0l-0.7,0.7l0.2,0.6h0.9c0.7,0,1.3,0.3,1.9,0.8
					c0.5,0.5,0.7,1.1,0.8,1.8V11c0,0.7-0.2,1.3-0.7,1.8h-0.1c-0.5,0.5-1.2,0.8-1.9,0.8h-0.9l-0.1,0.3h1c0.8,0,1.5-0.3,2.1-0.8L21,13
					c0.5-0.6,0.8-1.2,0.8-2v-0.1C21.7,10.1,21.5,9.4,21,8.9 M10.4-0.2h0.2c0.7,0,1.2,0.2,1.8,0.8l0.1,0.1c0.5,0.5,0.7,1.1,0.7,1.9
					v0.8l0.3,0.1V2.4c0-0.8-0.3-1.5-0.8-2.1l-0.1-0.1c-0.6-0.5-1.2-0.8-2-0.8h-0.2c-0.8,0-1.5,0.3-2,0.8l0,0
					C7.7,0.8,7.4,1.5,7.4,2.4v1.1L6.7,2.7C6.1,2.1,5.4,1.8,4.6,1.8h0C3.7,1.8,3,2.1,2.4,2.7l0,0C1.8,3.3,1.6,4,1.6,4.8v0
					c0,0.8,0.2,1.5,0.8,2.1l0,0L3,7.5l0.2-0.3L2.7,6.8V6.7C2.2,6.2,1.9,5.6,1.9,4.9v0c0-0.7,0.3-1.4,0.8-1.9v0
					c0.5-0.5,1.1-0.8,1.9-0.8h0c0.7,0,1.4,0.2,1.9,0.8l0.8,0.8l0.6-0.2V2.4c0-0.7,0.3-1.4,0.8-1.9C9.1,0,9.7-0.2,10.4-0.2z"/>
				<path class="st11" d="M6.7,17.9l-0.5,0.5c-0.4,0.5-1,0.7-1.6,0.8c-0.6,0-1.2-0.2-1.7-0.6c-0.5-0.5-0.8-1-0.8-1.6
					c0-0.6,0.2-1.2,0.7-1.7l0.6-0.6l-0.2-0.3L2.6,15c-0.5,0.5-0.8,1.1-0.8,1.9v0c0,0.7,0.3,1.4,0.9,1.9h0c0.5,0.5,1.1,0.7,1.9,0.7
					c0.7,0,1.4-0.3,1.9-0.8l0.3-0.4l0.3,0.2l0.2,0.1l0.4,0.1c0,0.7,0.3,1.2,0.8,1.7c0.5,0.5,1.1,0.8,1.8,0.8h0.1
					c0.7,0,1.3-0.2,1.9-0.8l0-0.1c0.4-0.5,0.7-1,0.7-1.6l0.3-0.1l0.3-0.1l0.3-0.2l0.2,0.2c0.5,0.5,1.1,0.8,1.9,0.8h0
					c0.7,0,1.3-0.2,1.9-0.8l0,0c0.5-0.5,0.8-1.1,0.8-1.9v-0.1c0-0.7-0.2-1.3-0.8-1.8v-0.1l-0.4-0.4l-0.1,0.4l0.3,0.3
					c0.4,0.4,0.7,1,0.7,1.6v0.1c0,0.6-0.2,1.2-0.7,1.6c-0.5,0.4-1,0.6-1.6,0.6h0c-0.6,0-1.2-0.2-1.6-0.6l-0.4-0.4l-1.4,0.6v0
					c0,0.6-0.2,1.1-0.6,1.6l0,0.1c-0.5,0.4-1,0.7-1.6,0.7h-0.1c-0.6,0-1.2-0.3-1.6-0.7c-0.5-0.5-0.7-1-0.7-1.7v-0.1L6.7,17.9
					 M6.9,3.9l0.3-0.1L6.5,2.9C6,2.4,5.3,2.2,4.6,2.2h0c-0.7,0-1.4,0.2-1.9,0.8v0C2.2,3.5,1.9,4.1,1.9,4.8v0c0,0.7,0.3,1.3,0.8,1.8
					v0.1l0.5,0.4L3,7.5L2.8,7.9L2.7,8.2C2,8.3,1.4,8.5,0.9,9v0.1c-0.5,0.5-0.8,1.1-0.8,1.8v0.1c0,0.7,0.3,1.3,0.8,1.9
					c0.5,0.5,1.1,0.7,1.8,0.8h0.1H3l-0.1-0.3H2.8c-0.7,0-1.2-0.2-1.6-0.6c-0.5-0.5-0.7-1-0.7-1.7v-0.1c0-0.6,0.2-1.2,0.7-1.6
					c0.4-0.5,1-0.8,1.6-0.8h0.1l0.6-1.4L2.9,6.5C2.5,6,2.2,5.5,2.2,4.9v0c0-0.6,0.2-1.2,0.7-1.6l0,0c0.4-0.4,1-0.7,1.6-0.7h0
					c0.6,0,1.2,0.2,1.7,0.7v0L6.9,3.9 M21,10.9V11c0,0.6-0.2,1.1-0.6,1.6l-0.1,0.1c-0.5,0.4-1,0.6-1.6,0.6H18l-0.1,0.3h0.9
					c0.7,0,1.4-0.2,1.9-0.8h0.1c0.5-0.5,0.7-1.1,0.7-1.8v-0.1c0-0.7-0.3-1.3-0.8-1.8c-0.5-0.5-1.1-0.8-1.9-0.8h-0.9L18,8.6h0.8
					c0.6,0,1.2,0.2,1.6,0.8h0.1C20.9,9.7,21,10.2,21,10.9 M10.6-0.2h-0.2C9.7-0.2,9.1,0,8.6,0.5C8.1,1,7.8,1.6,7.8,2.4v1.1l0.3-0.1
					v-1c0-0.6,0.2-1.2,0.7-1.6l0.1-0.1c0.4-0.4,0.9-0.6,1.5-0.6h0.2c0.6,0,1.1,0.2,1.6,0.6l0,0.1c0.4,0.5,0.6,1,0.6,1.7v1L14.2,4
					l0.8-0.7c0.5-0.4,1-0.7,1.7-0.7c0.6,0,1.2,0.3,1.6,0.7v0c0.4,0.4,0.6,1,0.6,1.7c0,0.6-0.3,1.2-0.7,1.7l-0.1,0l-0.6,0.6l0.1,0.3
					l0.7-0.7h0c0.5-0.5,0.8-1.2,0.9-1.9c0-0.7-0.2-1.4-0.8-1.9l0,0c-0.5-0.5-1.1-0.8-1.9-0.8c-0.7,0-1.4,0.2-1.9,0.7l-0.6,0.6
					l-0.2-0.1l-0.4-0.2l-0.3-0.1V2.4c0-0.7-0.2-1.4-0.7-1.9l-0.1-0.1C11.8,0,11.2-0.2,10.6-0.2z"/>
				<path class="st12" d="M21,11v-0.1c0-0.6-0.2-1.1-0.6-1.6h-0.1c-0.4-0.5-1-0.8-1.6-0.8H18l-0.1-0.3l-0.2-0.6l-0.1-0.3l0.6-0.6
					l0.1,0c0.4-0.5,0.7-1,0.7-1.7c0-0.7-0.2-1.2-0.6-1.7v0c-0.5-0.4-1-0.7-1.6-0.7c-0.6,0-1.2,0.2-1.7,0.7L14.2,4l-1.4-0.5v-1
					c0-0.6-0.2-1.2-0.6-1.7l0-0.1c-0.4-0.4-0.9-0.6-1.6-0.6h-0.2c-0.6,0-1.1,0.2-1.5,0.6L8.8,0.8c-0.5,0.4-0.7,1-0.7,1.6v1L7.8,3.5
					L7.2,3.7L6.9,3.9L6.2,3.2v0c-0.5-0.4-1-0.7-1.7-0.7h0c-0.6,0-1.2,0.2-1.6,0.7l0,0c-0.4,0.4-0.7,1-0.7,1.6v0
					c0,0.6,0.2,1.2,0.7,1.7l0.6,0.6L2.9,8.6H2.8c-0.6,0-1.2,0.2-1.6,0.8c-0.5,0.4-0.7,1-0.7,1.6v0.1c0,0.6,0.2,1.2,0.7,1.7
					c0.4,0.4,1,0.6,1.6,0.6h0.1L3,13.6l0.2,0.3l0,0.1l0.1,0.4l0.2,0.3l-0.6,0.6c-0.5,0.5-0.7,1-0.7,1.7c0,0.6,0.2,1.2,0.8,1.6
					c0.5,0.4,1,0.6,1.7,0.6c0.6,0,1.2-0.3,1.6-0.8l0.5-0.5l1.4,0.6v0.1c0,0.6,0.2,1.2,0.7,1.7c0.5,0.4,1,0.7,1.6,0.7h0.1
					c0.6,0,1.1-0.3,1.6-0.7l0-0.1c0.4-0.5,0.6-1,0.6-1.6v0l1.4-0.6l0.4,0.4c0.4,0.4,1,0.6,1.6,0.6h0c0.6,0,1.2-0.2,1.6-0.6
					c0.4-0.5,0.7-1,0.7-1.6v-0.1c0-0.6-0.2-1.2-0.7-1.6l-0.3-0.3l0.1-0.4l0.1-0.3v-0.1l0.1-0.3l0.1-0.3h0.8c0.6,0,1.2-0.2,1.6-0.6
					l0.1-0.1C20.9,12.1,21,11.6,21,11 M20.7,10.9L20.7,10.9c0,0.6-0.2,1-0.5,1.4l-0.1,0.1c-0.4,0.4-0.9,0.5-1.4,0.5h-1L17,14.6
					l0.5,0.5v0.1c0.4,0.4,0.6,0.8,0.6,1.3v0.1c0,0.5-0.2,1-0.6,1.4v0c-0.4,0.4-0.9,0.5-1.4,0.5h0c-0.5,0-1-0.2-1.4-0.5l-0.6-0.5
					l-1.8,0.8v0.3c0,0.5-0.2,1-0.5,1.4h0c-0.4,0.4-0.8,0.6-1.4,0.6h-0.1c-0.5,0-1-0.2-1.4-0.6c-0.4-0.4-0.6-0.9-0.6-1.4v-0.3
					l-1.8-0.8L6,18.2c-0.4,0.4-0.9,0.6-1.4,0.6c-0.6,0-1-0.2-1.4-0.5c-0.4-0.4-0.7-0.9-0.7-1.4c0-0.6,0.2-1,0.6-1.4l0.8-0.8
					c-0.3-0.6-0.6-1.1-0.7-1.8H2.8c-0.6,0-1-0.2-1.4-0.5H1.4c-0.4-0.4-0.6-0.9-0.6-1.5c0-0.5,0.2-1,0.6-1.4s0.9-0.6,1.4-0.6h0.3
					C3.3,8.2,3.6,7.6,4,7L3.1,6.2C2.8,5.8,2.6,5.4,2.6,4.9v0c0-0.6,0.2-1,0.6-1.4h0C3.6,3,4,2.8,4.5,2.8h0c0.5,0,1,0.2,1.4,0.6
					l0.8,0.9l1.6-0.7V2.4c0-0.6,0.2-1,0.6-1.4s0.9-0.6,1.4-0.5h0.1c0.5,0,1,0.2,1.4,0.5h0c0.3,0.4,0.5,0.8,0.5,1.4v1.2
					C13,3.8,13.7,4,14.2,4.4l0.9-1h0.1C15.6,3.1,16,2.9,16.6,3c0.5,0,1,0.2,1.4,0.6C18.4,4,18.5,4.4,18.5,5c0,0.5-0.2,1-0.6,1.4
					l-0.9,0.8l0.7,1.7h1c0.5,0,1,0.2,1.4,0.6l0.1,0.1C20.5,9.9,20.7,10.4,20.7,10.9z"/>
				<path class="st13" d="M20.7,10.9L20.7,10.9c0-0.6-0.2-1-0.5-1.4l-0.1-0.1c-0.4-0.4-0.9-0.6-1.4-0.6h-1l-0.7-1.7L18,6.4
					C18.3,6,18.5,5.5,18.5,5c0-0.6-0.2-1-0.5-1.5C17.6,3.2,17.1,3,16.6,3c-0.6,0-1,0.1-1.4,0.5h-0.1l-0.9,1C13.7,4,13,3.8,12.4,3.6
					V2.4c0-0.6-0.2-1-0.5-1.4h0c-0.4-0.4-0.8-0.6-1.4-0.5h-0.1c-0.5,0-1,0.2-1.4,0.5S8.4,1.8,8.4,2.4v1.2L6.8,4.3L6,3.4
					C5.6,3,5.1,2.8,4.6,2.8h0C4,2.8,3.6,3,3.2,3.4h0C2.8,3.8,2.6,4.2,2.6,4.8v0c0,0.5,0.2,1,0.6,1.3L4,7C3.6,7.6,3.3,8.2,3.1,8.9
					H2.8c-0.6,0-1,0.2-1.4,0.6s-0.6,0.9-0.6,1.4c0,0.6,0.2,1.1,0.6,1.5h0.1c0.4,0.4,0.8,0.5,1.4,0.5h0.4c0.1,0.6,0.4,1.2,0.7,1.8
					l-0.8,0.8c-0.4,0.4-0.6,0.8-0.6,1.4c0,0.5,0.2,1,0.7,1.4c0.4,0.4,0.8,0.5,1.4,0.5c0.5,0,1-0.2,1.4-0.6l0.6-0.7l1.8,0.8v0.3
					c0,0.5,0.2,1,0.6,1.4c0.4,0.4,0.9,0.6,1.4,0.6h0.1c0.5,0,1-0.2,1.4-0.6h0c0.3-0.4,0.5-0.9,0.5-1.4v-0.3l1.8-0.8l0.6,0.5
					c0.4,0.4,0.8,0.5,1.4,0.5h0c0.5,0,1-0.2,1.4-0.5v0c0.4-0.4,0.6-0.8,0.6-1.4v-0.1c0-0.5-0.2-1-0.6-1.3v-0.1L17,14.6l0.8-1.8h1
					c0.5,0,1-0.2,1.4-0.5l0.1-0.1C20.5,11.9,20.7,11.5,20.7,10.9 M20.4,10.9L20.4,10.9c0,0.5-0.1,0.9-0.4,1.2h-0.1
					c-0.3,0.3-0.7,0.5-1.1,0.5h-1.2c-0.2,0.7-0.5,1.4-0.9,2.1l0.7,0.7v0.1c0.3,0.3,0.5,0.7,0.5,1.2c0,0.4-0.2,0.8-0.5,1.1
					s-0.7,0.5-1.1,0.5c-0.5,0-0.9-0.2-1.2-0.5L14.3,17c-0.7,0.4-1.4,0.7-2.2,0.9v0.6l-0.5,1.2v0c-0.3,0.3-0.7,0.5-1.2,0.5
					c-0.5,0-0.9-0.1-1.1-0.5C9,19.4,8.8,19,8.8,18.5V18C8,17.8,7.3,17.4,6.6,17L5.7,18c-0.3,0.3-0.7,0.5-1.1,0.5
					c-0.5,0-0.9-0.1-1.2-0.5v0c-0.3-0.3-0.5-0.7-0.5-1.2c0-0.5,0.2-0.9,0.5-1.2l0.9-0.9c-0.4-0.7-0.7-1.4-0.9-2.1H2.8
					c-0.5,0-0.8-0.2-1.1-0.5H1.6c-0.3-0.3-0.5-0.7-0.5-1.2s0.2-0.8,0.5-1.1C2,9.4,2.4,9.2,2.8,9.2h0.6c0.2-0.8,0.5-1.6,1-2.3L3.4,6
					C3.1,5.7,2.9,5.3,2.9,4.8c0-0.5,0.2-0.9,0.5-1.2V3.6c0.3-0.3,0.7-0.4,1.2-0.4h0c0.4,0,0.8,0.1,1.2,0.4l1.1,1.1
					c0.6-0.4,1.3-0.6,2-0.8V2.4c0-0.5,0.2-0.9,0.5-1.2c0.3-0.3,0.7-0.5,1.1-0.5h0.1c0.4,0,0.8,0.2,1.1,0.5v0
					c0.3,0.3,0.5,0.7,0.5,1.2v1.5c0.8,0.2,1.5,0.5,2.2,0.9l1.1-1.1v0c0.3-0.3,0.7-0.4,1.2-0.4c0.4,0,0.8,0.2,1.1,0.5
					s0.5,0.7,0.5,1.2l-0.5,1.2l-1.1,1l0.9,2.1h1.2c0.5,0,0.9,0.2,1.2,0.5C20.2,10.1,20.4,10.5,20.4,10.9z"/>
				<path class="st14" d="M20.4,10.9L20.4,10.9c0-0.5-0.1-0.9-0.4-1.2c-0.3-0.3-0.7-0.5-1.2-0.5h-1.2l-0.9-2.1l1.1-1L18.2,5
					c0-0.5-0.2-0.9-0.5-1.2S17,3.3,16.6,3.3c-0.5,0-0.9,0.1-1.2,0.4v0l-1.1,1.1c-0.7-0.4-1.4-0.7-2.2-0.9V2.4c0-0.5-0.2-0.9-0.5-1.2
					v0c-0.3-0.3-0.7-0.5-1.1-0.5h-0.1c-0.4,0-0.8,0.2-1.1,0.5C9,1.5,8.8,1.9,8.8,2.4v1.5C8.1,4,7.4,4.3,6.8,4.7L5.7,3.6
					C5.4,3.3,5,3.2,4.6,3.2h0c-0.4,0-0.8,0.1-1.2,0.4v0.1C3.1,4,2.9,4.3,2.9,4.8c0,0.5,0.2,0.9,0.5,1.2l1,0.9
					c-0.5,0.7-0.8,1.5-1,2.3H2.8C2.4,9.2,2,9.4,1.6,9.8c-0.3,0.3-0.5,0.7-0.5,1.1s0.2,0.9,0.5,1.2h0.1c0.3,0.3,0.7,0.5,1.1,0.5h0.6
					c0.2,0.7,0.5,1.4,0.9,2.1l-0.9,0.9c-0.3,0.3-0.5,0.7-0.5,1.2c0,0.5,0.2,0.9,0.5,1.2v0c0.3,0.3,0.7,0.5,1.2,0.5
					c0.4,0,0.8-0.2,1.1-0.5L6.6,17C7.3,17.4,8,17.8,8.8,18v0.6c0,0.4,0.2,0.8,0.5,1.2c0.3,0.3,0.7,0.5,1.1,0.5
					c0.5,0,0.9-0.1,1.2-0.5v0l0.5-1.2V18c0.8-0.2,1.5-0.5,2.2-0.9l0.6,0.7c0.3,0.3,0.7,0.5,1.2,0.5c0.4,0,0.8-0.2,1.1-0.5
					s0.5-0.7,0.5-1.1c0-0.5-0.2-0.9-0.5-1.2v-0.1l-0.7-0.7c0.4-0.7,0.7-1.4,0.9-2.1h1.2c0.5,0,0.9-0.2,1.1-0.5H20
					C20.2,11.8,20.4,11.4,20.4,10.9 M17.5,4.1L17.5,4.1c0.3,0.2,0.4,0.5,0.4,0.9V5l-0.4,0.9v0l-1.3,1.2c0.5,0.8,0.9,1.6,1,2.5h1.5
					c0.4,0,0.7,0.1,0.9,0.4h0.1c0.2,0.2,0.3,0.5,0.3,0.9v0.1l-0.3,0.9h-0.1c-0.2,0.2-0.5,0.3-0.9,0.3h-1.5c-0.2,0.9-0.6,1.8-1.1,2.6
					l0.9,0.8c0.3,0.3,0.4,0.6,0.4,1c0,0.3-0.1,0.6-0.4,0.9c-0.3,0.3-0.6,0.4-0.9,0.4c-0.4,0-0.7-0.1-0.9-0.4l-0.9-0.9
					c-0.8,0.5-1.6,0.9-2.6,1.1v0.8l-0.3,0.9h-0.1c-0.3,0.3-0.6,0.4-0.9,0.4s-0.7-0.1-0.9-0.4c-0.3-0.3-0.4-0.6-0.4-0.9v-0.8
					c-0.9-0.2-1.8-0.6-2.6-1.1l-1,1.1c-0.3,0.3-0.6,0.4-1,0.4c-0.4,0-0.7-0.1-0.9-0.4c-0.3-0.3-0.5-0.6-0.5-0.9v-0.1
					c0-0.3,0.1-0.6,0.3-0.9h0.1l1.2-1.1c-0.6-0.8-0.9-1.6-1.1-2.6H2.8c-0.4,0-0.7-0.1-0.9-0.3c-0.3-0.3-0.4-0.6-0.4-1
					c0-0.4,0.1-0.7,0.4-0.9c0.3-0.3,0.6-0.4,0.9-0.4h0.9c0.2-1,0.6-1.9,1.1-2.7L3.6,5.8C3.4,5.5,3.2,5.2,3.2,4.8
					c0-0.4,0.1-0.7,0.4-0.9V3.9c0.2-0.3,0.6-0.4,0.9-0.3c0.4,0,0.7,0.1,1,0.4l1.2,1.2c0.7-0.5,1.5-0.8,2.4-0.9V2.4
					c0-0.4,0.1-0.7,0.4-0.9v0c0.2-0.2,0.5-0.4,0.9-0.4h0.1c0.3,0,0.6,0.1,0.9,0.4l0.1,0l0.3,0.9v1.8c0.9,0.2,1.8,0.5,2.6,1L15.6,4
					c0.3-0.2,0.6-0.4,1-0.4C16.9,3.6,17.2,3.8,17.5,4.1z"/>
				<path class="st9" d="M17.5,4.1L17.5,4.1c-0.3-0.3-0.6-0.5-0.9-0.5c-0.4,0-0.7,0.1-1,0.4l-1.3,1.2c-0.8-0.5-1.7-0.9-2.6-1V2.4
					l-0.3-0.9l-0.1,0c-0.3-0.2-0.6-0.4-0.9-0.4h-0.1c-0.4,0-0.7,0.1-0.9,0.4v0C9.3,1.7,9.1,2,9.1,2.4v1.8C8.3,4.3,7.5,4.6,6.7,5.1
					L5.5,3.9C5.3,3.6,5,3.5,4.6,3.5c-0.4,0-0.7,0.1-0.9,0.3v0.1C3.4,4.1,3.2,4.4,3.2,4.8c0,0.4,0.1,0.7,0.4,0.9l1.2,1.2
					c-0.6,0.8-1,1.7-1.1,2.7H2.8c-0.4,0-0.7,0.1-0.9,0.4c-0.3,0.2-0.4,0.5-0.4,0.9c0,0.4,0.1,0.7,0.4,1c0.3,0.2,0.6,0.3,0.9,0.3h0.9
					c0.2,0.9,0.5,1.8,1.1,2.6l-1.2,1.1H3.6c-0.2,0.3-0.3,0.6-0.3,0.9v0.1c0,0.3,0.1,0.6,0.5,0.9c0.2,0.3,0.5,0.4,0.9,0.4
					c0.4,0,0.7-0.2,1-0.4l1-1.1c0.8,0.5,1.6,0.9,2.6,1.1v0.8c0,0.3,0.1,0.6,0.4,0.9c0.2,0.3,0.5,0.4,0.9,0.4s0.7-0.1,0.9-0.4h0.1
					l0.3-0.9v-0.8c0.9-0.2,1.8-0.6,2.6-1.1l0.9,0.9c0.2,0.3,0.6,0.4,0.9,0.4c0.3,0,0.6-0.1,0.9-0.4c0.3-0.3,0.4-0.6,0.4-0.9
					c0-0.4-0.1-0.7-0.4-1l-0.9-0.8c0.5-0.8,0.9-1.7,1.1-2.6h1.5c0.4,0,0.7-0.1,0.9-0.3h0.1l0.3-0.9v-0.1c0-0.4-0.1-0.7-0.3-0.9h-0.1
					c-0.2-0.3-0.5-0.4-0.9-0.4h-1.5c-0.2-0.9-0.5-1.7-1-2.5L17.5,6v0L17.9,5V5C17.9,4.6,17.8,4.3,17.5,4.1z"/>
			</g>
		</g>
	</g>
	<g transform="matrix( 1, 0, 0, 1, 0,0) ">
		<g>
			<g id="Shapes_Shape_63_0_Layer1_0_FILL">
				<path class="st15" d="M20.6,11.9l0.3-0.8l-0.3-0.9c-0.2-0.2-0.5-0.3-0.8-0.3h-2.1c-0.2-1.3-0.7-2.4-1.4-3.4L18,4.9L18.4,4
					L18,3.2c-0.2-0.2-0.5-0.4-0.8-0.4s-0.6,0.1-0.8,0.3l-1.8,1.8c-1.1-0.8-2.2-1.3-3.5-1.4V1l-0.3-0.8c-0.2-0.2-0.5-0.3-0.8-0.3
					c-0.3,0-0.6,0.1-0.9,0.3C8.9,0.4,8.8,0.6,8.8,1v2.5C7.6,3.5,6.5,4,5.5,4.7L3.8,3C3.6,2.8,3.3,2.7,3,2.7C2.7,2.7,2.4,2.8,2.2,3
					C2,3.2,1.8,3.5,1.8,3.8S2,4.4,2.2,4.7l1.7,1.6C3,7.3,2.5,8.5,2.3,9.9H0.9c-0.3,0-0.6,0.1-0.8,0.3c-0.2,0.2-0.4,0.5-0.4,0.9
					l0.4,0.8c0.2,0.2,0.5,0.3,0.8,0.3h1.4c0.2,1.2,0.6,2.4,1.4,3.4l-1.5,1.6C2,17.4,1.8,17.7,1.8,18c0,0.3,0.1,0.6,0.4,0.8
					c0.2,0.2,0.5,0.3,0.8,0.3l0.8-0.4l1.5-1.5c1,0.8,2.2,1.2,3.5,1.5V20c0,0.3,0.1,0.6,0.3,0.9c0.2,0.2,0.5,0.3,0.9,0.3l0.8-0.3
					l0.3-0.9v-1.3c1.3-0.2,2.4-0.7,3.4-1.4l1.3,1.2c0.2,0.2,0.5,0.4,0.9,0.4l0.8-0.4l0.4-0.8c0-0.3-0.1-0.6-0.4-0.9l-1.3-1.3
					c0.8-1,1.2-2.2,1.4-3.4h2.1C20.1,12.2,20.4,12.1,20.6,11.9z"/>
			</g>
		</g>
	</g>
	<g transform="matrix( 1, 0, 0, 1, 0,0) ">
		<g>
			<g id="Shapes_Shape_63_0_Layer0_0_FILL">
				
					<linearGradient id="SVGID_00000000943803018286635680000003910763195221802429_" gradientUnits="userSpaceOnUse" x1="-1.5438" y1="24.5676" x2="5.4562" y2="9.9426" gradientTransform="matrix(1 0 0 -1 8.65 29.4)">
					<stop  offset="0" style="stop-color:#CFB7A6"/>
					<stop  offset="1" style="stop-color:#534228"/>
				</linearGradient>
				<path style="fill:url(#SVGID_00000000943803018286635680000003910763195221802429_);" d="M17.6,4.9L18,4.1l-0.3-0.8
					c-0.2-0.2-0.5-0.3-0.8-0.3c-0.3,0-0.6,0.1-0.8,0.3l-1.8,1.6c-1-0.8-2.1-1.2-3.4-1.4V1.1c0-0.3-0.1-0.6-0.4-0.8
					C10.4,0.1,10.2,0,9.9,0C9.6,0,9.3,0.1,9.1,0.3C8.8,0.5,8.7,0.8,8.8,1.1v2.4C7.6,3.6,6.5,4,5.5,4.7L3.9,3.1
					C3.7,2.8,3.4,2.7,3.1,2.8c-0.3,0-0.6,0.1-0.8,0.3C2.1,3.3,2,3.6,2,3.9c0,0.3,0.1,0.6,0.3,0.8l1.7,1.6c-0.8,1-1.3,2.2-1.5,3.5
					H1.1c-0.3,0-0.6,0.1-0.8,0.3C0.1,10.3,0,10.6,0,10.9c0,0.3,0.1,0.6,0.3,0.8C0.5,11.9,0.8,12,1.1,12h1.3c0.2,1.2,0.6,2.3,1.3,3.3
					l-1.5,1.6C2.1,17.1,2,17.3,2,17.6c0,0.3,0.1,0.5,0.3,0.8c0.2,0.2,0.5,0.4,0.8,0.4l0.8-0.4l1.4-1.5c1,0.8,2.1,1.2,3.4,1.4v1.3
					c0,0.3,0.1,0.6,0.3,0.8c0.2,0.2,0.5,0.4,0.8,0.4l0.8-0.4l0.4-0.8v-1.3c1.2-0.2,2.3-0.7,3.3-1.4l1.2,1.2c0.2,0.2,0.5,0.4,0.8,0.4
					l0.8-0.4l0.4-0.8c0-0.3-0.1-0.6-0.4-0.8l-1.2-1.2c0.7-1,1.2-2.1,1.4-3.3h2.1c0.3,0,0.6-0.1,0.8-0.4l0.4-0.8l-0.4-0.8
					c-0.2-0.2-0.5-0.3-0.8-0.3h-2.1c-0.2-1.2-0.6-2.3-1.3-3.3L17.6,4.9 M13.6,7.4c1,1,1.5,2.2,1.5,3.6s-0.5,2.6-1.5,3.6
					c-1,1-2.2,1.5-3.6,1.5c-1.4,0-2.6-0.5-3.6-1.5c-1-1-1.5-2.2-1.5-3.6s0.5-2.6,1.5-3.6S8.6,5.9,10,5.9C11.4,5.9,12.6,6.4,13.6,7.4
					z"/>
				
					<linearGradient id="SVGID_00000018956625413149936930000010534847700374629821_" gradientUnits="userSpaceOnUse" x1="2.9429" y1="15.3712" x2="-1.3571" y2="23.4212" gradientTransform="matrix(1 0 0 -1 8.65 29.4)">
					<stop  offset="0" style="stop-color:#BCA062"/>
					<stop  offset="1" style="stop-color:#56452B"/>
				</linearGradient>
				<path style="fill:url(#SVGID_00000018956625413149936930000010534847700374629821_);" d="M15.1,11c0-1.4-0.5-2.6-1.5-3.6
					S11.4,5.9,10,5.9c-1.4,0-2.6,0.5-3.6,1.5S4.9,9.6,4.9,11s0.5,2.6,1.5,3.6c1,1,2.2,1.5,3.6,1.5c1.4,0,2.6-0.5,3.6-1.5
					C14.6,13.6,15.1,12.4,15.1,11 M12.9,8c0.8,0.8,1.2,1.8,1.2,3c0,1.1-0.4,2.1-1.2,3c-0.9,0.8-1.9,1.2-3,1.2c-1.2,0-2.2-0.4-3-1.2
					c-0.9-0.9-1.3-1.9-1.2-3c0-1.2,0.4-2.2,1.2-3c0.8-0.8,1.8-1.2,3-1.2C11.1,6.8,12.1,7.2,12.9,8z"/>
				
					<linearGradient id="SVGID_00000151507505014600466850000015282403292602663042_" gradientUnits="userSpaceOnUse" x1="4.5421" y1="15.3886" x2="-4.5329" y2="23.8136" gradientTransform="matrix(1 0 0 -1 8.65 29.4)">
					<stop  offset="0" style="stop-color:#4E2E2B"/>
					<stop  offset="1" style="stop-color:#1A140F"/>
				</linearGradient>
				<path style="fill:url(#SVGID_00000151507505014600466850000015282403292602663042_);" d="M14.2,11c0-1.2-0.4-2.2-1.2-3
					c-0.9-0.8-1.9-1.2-3-1.2c-1.2,0-2.2,0.4-3,1.2c-0.9,0.8-1.3,1.8-1.2,3c0,1.1,0.4,2.1,1.2,3c0.8,0.8,1.8,1.2,3,1.2
					c1.1,0,2.1-0.4,3-1.2C13.8,13.1,14.2,12.1,14.2,11z"/>
			</g>
		</g>
	</g>
</g>
</svg>
