<?xml version="1.0" encoding="utf-8"?>
<!-- Generator: Adobe Illustrator 27.4.1, SVG Export Plug-In . SVG Version: 6.00 Build 0)  -->
<svg version="1.1" id="Слой_1" xmlns="http://www.w3.org/2000/svg" xmlns:xlink="http://www.w3.org/1999/xlink" x="0px" y="0px"
	 viewBox="0 0 37 37" style="enable-background:new 0 0 37 37;" xml:space="preserve">
<style type="text/css">
	.st0{fill:url(#SVGID_1_);}
	.st1{fill:url(#SVGID_00000090290419466010799530000010196825330425455790_);}
	.st2{fill:#706639;}
	.st3{fill:#333333;fill-opacity:0.1608;}
	.st4{fill:#333333;fill-opacity:0.3294;}
	.st5{fill:#333333;fill-opacity:0.498;}
	.st6{fill:#333333;fill-opacity:0.6627;}
	.st7{fill:#333333;fill-opacity:0.8314;}
	.st8{fill:#333333;}
	.st9{fill:#0A0F06;fill-opacity:0.1608;}
	.st10{fill:url(#SVGID_00000126302016305906816150000017949538540087982262_);}
	.st11{fill:url(#SVGID_00000145030296328374723020000011021956283616011963_);}
	.st12{fill:#5B3F1F;}
	.st13{fill:#E2C17D;}
	.st14{fill:#E1AD3E;}
	.st15{fill:url(#SVGID_00000158021045135615931990000009928922451193111945_);}
	.st16{fill:url(#SVGID_00000103986548781138877310000013105233588799394725_);}
	.st17{fill:#775A1A;}
	.st18{fill:url(#SVGID_00000081620122817972732310000017497824035472605365_);}
</style>
<g transform="matrix( 1, 0, 0, 1, 3.35,3.1) ">
	<g transform="matrix( 1, 0, 0, 1, 0,0) ">
		<g>
			<g id="Shapes_Shape_51_0_Layer1_0_FILL">
				
					<linearGradient id="SVGID_1_" gradientUnits="userSpaceOnUse" x1="19.392" y1="6.2954" x2="4.292" y2="32.5954" gradientTransform="matrix(1 0 0 -1 3.35 34.9)">
					<stop  offset="0" style="stop-color:#2B3913"/>
					<stop  offset="1" style="stop-color:#0F1608"/>
					<stop  offset="1" style="stop-color:#0D1503"/>
				</linearGradient>
				<path class="st0" d="M30.4,4.6c0-2.9-1.5-4.3-4.4-4.3H4.4C1.5,0.3,0,1.7,0,4.6v21.6c0,2.9,1.5,4.4,4.3,4.4H26
					c2.9,0,4.4-1.5,4.4-4.4V4.6 M27.3,22.6l-0.5,0C27.1,22.2,27.3,22.2,27.3,22.6 M10.9,19.1l-0.1-0.2h0.1V19.1 M10.9,29.2l-0.3,0
					l0.3-0.1V29.2 M1.7,24.1l-0.1,0.1l-0.1-0.1H1.7L1.7,24.1z"/>
				
					<linearGradient id="SVGID_00000052802094757051939750000010570189927853588645_" gradientUnits="userSpaceOnUse" x1="-2.225" y1="10.8" x2="23.925" y2="10.8" gradientTransform="matrix(1 0 0 -1 3.35 34.9)">
					<stop  offset="0" style="stop-color:#2B3913"/>
					<stop  offset="1" style="stop-color:#0F1608"/>
					<stop  offset="1" style="stop-color:#0D1503"/>
				</linearGradient>
				<path style="fill:url(#SVGID_00000052802094757051939750000010570189927853588645_);" d="M1.6,24.2l0.1-0.1l0,0l-0.2,0L1.6,24.2
					 M10.6,29.3l0.3,0v-0.1L10.6,29.3 M10.9,18.9l0.1,0.2L10.9,18.9L10.9,18.9 M26.8,22.6l0.5,0C27.3,22.2,27.1,22.2,26.8,22.6z"/>
			</g>
		</g>
	</g>
	<g transform="matrix( 1, 0, 0, 1, 0,0) ">
		<g>
			<g id="Shapes_Shape_51_0_Layer0_0_FILL">
				<path class="st2" d="M31.3,4.6c0-3.6-1.8-5.3-5.3-5.3H4.4C0.8-0.7-1,1-1,4.6v21.6c0,3.5,1.8,5.3,5.3,5.3H26
					c3.5,0,5.3-1.8,5.3-5.3V4.6 M26,0.3c2.9,0,4.4,1.5,4.4,4.3v21.6c0,2.9-1.5,4.4-4.4,4.4H4.4c-2.9,0-4.3-1.5-4.3-4.4V4.6
					c0-2.9,1.5-4.3,4.3-4.3H26z"/>
			</g>
		</g>
	</g>
</g>
<g transform="matrix( 1, 0, 0, 1, 6.45,6.3) ">
	<g transform="matrix( 1, 0, 0, 1, 0,0) ">
		<g>
			<g id="Shapes_Shape_60_0_Layer1_0_FILL">
				<path class="st3" d="M5.2,27.8L6,27.9l-0.4-0.2l-0.4-0.5l-0.1,0L4.7,27L5,27.5L5.2,27.8 M3.4-1.6L3.4-1.6C2.2-1.3,1.6-0.1,1.6,2
					v14.5l-1,0.4c-1.3,0.8-1.9,1.7-2,2.9l0,0.5c0.2,2.4,1.2,3.6,2.8,3.7l1.8,0.2l0.3,0h0.1l0.1-0.4l-2.2-0.3C0,23.4-0.8,22.3-1,20.2
					l0.1-0.4c0-1.1,0.6-1.9,1.8-2.6c0.3-0.2,0.6-0.3,1-0.2H2V2c0-1.9,0.5-3,1.5-3.2v0l2.2-0.2h12.4L19-1.6l1.6,0.2L21.5-1l1.4,1.1
					c0.5,0.3,0.9,1.2,1.1,2.7l-0.2,1.1L23,4.7L22,5h-1.2v1.7L24.5,7h-0.1l0.8,0.2c0.4,0.1,0.7,0.4,0.9,0.7c0.2,0.3,0.4,0.7,0.4,1.2
					l-0.3,1.1L26,10.5l-0.4,0.4l-4.2,4.5l-0.7,0.8v3.4v0.1l-0.1,0.4L20.5,21c-0.2,0.7-0.5,1.2-0.9,1.5h-0.1l-0.1,0.1l-0.2,0.2
					c-0.8,0.7-1.7,1.1-2.8,1.2l-5.6,0.2l-2.1,1.2L8.9,26v0.1c0,0.5-0.2,1-0.5,1.4L7.6,28l1.6-0.6l0.1-1.3V26v-0.4l1.7-1l5.5-0.2
					c1.2-0.1,2.2-0.5,3-1.2l0.3-0.2v-0.1h0.1c0.5-0.3,0.8-0.9,1-1.8l0.1-0.8l0.1-0.4v-0.2v-3.4l0.6-0.6l-0.1,0.1l4.4-4.6l0.4-0.6
					l0.1-0.1c0.3-0.4,0.4-0.9,0.4-1.3c0-0.5-0.1-0.9-0.4-1.4l-1.1-0.9l-0.9-0.2l0,0.1l-3.4-0.3V5.4H22c0.5,0,0.9-0.1,1.3-0.4l0.9-1
					c0.2-0.4,0.3-0.9,0.2-1.3c-0.3-1.6-0.7-2.5-1.2-2.8l-1.5-1.1l-1-0.4L19-2l-1,0.1H5.8C5.1-2.2,4.3-2.1,3.4-1.6z"/>
				<path class="st4" d="M5.7-1.5L3.5-1.2v0C2.5-1,2,0.1,2,2v14.9H1.8c-0.4,0-0.7,0-1,0.2C-0.4,17.9-1,18.7-1,19.8L-1,20.2
					c0.2,2.1,1.1,3.2,2.5,3.3l2.2,0.3l-0.1,0.4c-0.2,0.7-0.3,1.1-0.2,1.2C3.5,26.4,4,26.9,4.7,27l0.4,0.1l0.1,0l0.4,0.5L6,27.9
					l0.8,0.2h0.1h0.2L7.6,28l0.7-0.5c0.4-0.4,0.5-0.9,0.5-1.4V26l-0.1-0.6l2.1-1.2l5.6-0.2c1.1-0.1,2-0.5,2.8-1.2l0.2-0.2l0.1-0.1
					h0.1c0.4-0.3,0.7-0.8,0.9-1.5l0.1-0.8l0.1-0.4v-0.1v-3.4l0.7-0.8l4.2-4.5l0.4-0.4l0.1-0.2l0.3-1.1c0-0.4-0.1-0.8-0.4-1.2
					c-0.2-0.3-0.5-0.6-0.9-0.7L24.4,7h0.1l-3.8-0.3V5H22L23,4.7l0.8-0.8L24,2.7c-0.2-1.5-0.6-2.4-1.1-2.7L21.5-1l-0.9-0.3L19-1.6
					l-0.9,0.1H5.7 M3.7-0.9l1.9-0.2h12.5L19-1.2l1.6,0.2l0.7,0.2l1.4,1c0.4,0.3,0.7,1.1,0.9,2.5l-0.1,0.9l-0.5,0.7L22,4.6h-1.7v2.6
					l4.1,0.2L25,7.6l0.8,0.6L26,9.1L25.8,10l-0.1,0.1l-0.3,0.5L21,15.2l0.1-0.1L20.3,16v3.6v0.1v0.4h0l-0.1,0.8l-0.8,1.4h-0.1
					l-0.1,0.1L19,22.5c-0.7,0.6-1.6,1-2.5,1l-5.7,0.2c-0.8,0.5-1.6,1-2.4,1.5L8.5,26v0.1c0,0.4-0.2,0.8-0.4,1.1
					c-0.3,0.3-0.7,0.5-1.1,0.5H6.9l-1-0.4l-0.4-0.6l-0.3,0c-0.8,0-1.2-0.5-1.3-1.4c-0.1-0.1,0-0.8,0.4-1.9l-2.7-0.3
					c-1.3-0.1-2-1.1-2.2-3.1v-0.3c0-0.9,0.6-1.7,1.6-2.4c0.2-0.2,0.5-0.2,0.8-0.2h0.6V2C2.4,0.3,2.8-0.6,3.7-0.9L3.7-0.9z"/>
				<path class="st5" d="M5.6-1.1L3.7-0.9l0,0.1C2.8-0.6,2.4,0.3,2.4,2v15.3H1.8c-0.3,0-0.6,0-0.8,0.2c-1.1,0.6-1.6,1.4-1.6,2.4v0.3
					c0.2,1.9,0.9,2.9,2.2,3.1l2.7,0.3c-0.4,1.1-0.5,1.7-0.4,1.9c0.1,0.9,0.5,1.3,1.3,1.4l0.3,0l0.4,0.6l1,0.4h0.1
					c0.4,0,0.8-0.2,1.1-0.5c0.3-0.3,0.4-0.7,0.4-1.1V26l-0.2-0.8c0.8-0.5,1.6-1,2.4-1.5l5.7-0.2c1-0.1,1.8-0.4,2.5-1l0.1-0.1
					l0.1-0.1h0.1l0.8-1.4l0.1-0.8h0v-0.4v-0.1V16l0.8-0.8L21,15.2l4.4-4.6l0.3-0.5l0.1-0.1L26,9.1l-0.2-0.9L25,7.6l-0.7-0.2
					l-4.1-0.2V4.6H22l0.9-0.2l0.5-0.7l0.1-0.9c-0.2-1.3-0.5-2.2-0.9-2.5l-1.4-1l-0.7-0.2L19-1.2l-0.8,0.1H5.6 M20.5-0.6L21-0.4
					l1.3,1c0.4,0.3,0.6,1,0.9,2.2L23,3.5L22.6,4L22,4.2h-2.1v3.4l4.4,0.2L24.9,8l0.6,0.4l0.2,0.7l-0.2,0.7l-0.2,0.2l-0.2,0.3
					L20.8,15l-0.9,0.9v3.8v0.1V20l-0.2,0.7L19,21.9l-0.2,0.2l-0.1,0.1c-0.7,0.6-1.4,0.9-2.4,0.9l-5.8,0.2c-0.9,0.6-1.9,1.2-2.8,1.8
					l0.1,0.1L8.1,26v0.1L7.8,27l-0.8,0.3H6.9L6.1,27c-0.2-0.2-0.4-0.4-0.4-0.7v-0.1H5.2c-0.6,0-0.9-0.4-1-1
					c-0.1-0.2,0.1-0.9,0.6-2.1l-3.2-0.4c-1.1-0.1-1.7-1-1.9-2.6v-0.2c0-0.8,0.5-1.5,1.5-2l0.6-0.1h1V2c0-1.5,0.4-2.3,1-2.5l0.1-0.1
					l1.6-0.1h12.7l0.7-0.1L20.5-0.6z"/>
				<path class="st6" d="M21-0.4l-0.5-0.2l-1.6-0.2l-0.7,0.1H5.5L3.9-0.5L3.9-0.5c-0.7,0.2-1,1-1,2.5v15.7h-1l-0.6,0.1
					c-0.9,0.5-1.4,1.2-1.5,2v0.2c0.2,1.6,0.8,2.5,1.9,2.6l3.2,0.4c-0.5,1.2-0.7,1.9-0.6,2.1c0.1,0.7,0.4,1,1,1h0.5v0.1
					c0,0.3,0.2,0.5,0.4,0.7l0.8,0.2h0.1L7.8,27l0.3-0.9V26l-0.2-0.8l-0.1-0.1c1-0.6,1.9-1.2,2.8-1.8l5.8-0.2
					c0.9-0.1,1.7-0.4,2.4-0.9l0.1-0.1l0.2-0.2l0.7-1.1l0.2-0.7v-0.3v-0.1v-3.8l0.9-0.9l4.4-4.6l0.2-0.3l0.2-0.2l0.2-0.7l-0.2-0.7
					L24.9,8l-0.6-0.2l-4.4-0.2V4.2H22L22.6,4L23,3.5l0.1-0.7c-0.2-1.2-0.5-1.9-0.9-2.2L21-0.4 M20.5-0.2L20.8,0L22,0.9
					c0.3,0.2,0.6,0.9,0.8,2l0,0.5l-0.3,0.3L22,3.8h-2.5v4.3c1.8-0.3,3.4-0.3,4.6,0l0.6,0.2l0.4,0.3l0.1,0.5l-0.1,0.4L24.9,10
					l-0.1,0.1l-4.3,4.6l-1,1.1v3.9v0.1V20l-0.1,0.6l-0.6,1l-0.2,0.2l-0.1,0.1c-0.6,0.5-1.3,0.8-2.1,0.9L10.5,23l-3.7,2.2l0.3,0
					l0.4,0.2L7.7,26v0.1l-0.2,0.5l-0.6,0.2H6.9l-0.5-0.2l-0.2-0.5l0.1-0.5l0-0.1l-0.1,0.1l-0.2,0.1l-0.6,0.1c-0.4,0-0.6-0.3-0.7-0.8
					v0.1c-0.1-0.1,0.1-0.8,0.6-2v0l0.2-0.5l-3.6-0.4c-0.9-0.1-1.5-0.9-1.6-2.3v-0.2c0-0.7,0.5-1.2,1.3-1.7l0.4-0.1h1.4V2
					c0-1.3,0.3-2,0.9-2.2l1.3-0.2h12.9l0,0l0.4-0.1L20.5-0.2z"/>
				<path class="st7" d="M20.8,0l-0.3-0.1l-1.7-0.2l-0.4,0.1l0,0H5.4L4.1-0.1C3.5,0,3.2,0.7,3.2,2v16.1H1.8l-0.4,0.1
					c-0.8,0.5-1.2,1-1.3,1.7v0.2c0.1,1.4,0.7,2.2,1.6,2.3l3.6,0.4l-0.2,0.5v0c-0.5,1.2-0.7,1.9-0.6,2v-0.1c0,0.5,0.2,0.7,0.7,0.8
					l0.6-0.1l0.2-0.1l0.1-0.1l0,0.1l-0.1,0.5l0.2,0.5l0.5,0.2h0.1l0.6-0.2l0.2-0.5V26l-0.1-0.5l-0.4-0.2l-0.3,0l3.7-2.2l5.9-0.2
					c0.8-0.1,1.5-0.4,2.1-0.9l0.1-0.1l0.2-0.2l0.6-1l0.1-0.6v-0.3v-0.1v-3.9l1-1.1l4.3-4.6l0.1-0.1l0.2-0.4l0.1-0.4l-0.1-0.5
					l-0.4-0.3l-0.6-0.2c-1.3-0.4-2.8-0.4-4.6,0V3.8H22l0.4-0.2l0.3-0.3l0-0.5c-0.2-1.1-0.4-1.7-0.8-2L20.8,0 M20.4,0.2l0.1,0.1
					l1.2,0.9C22,1.4,22.2,2,22.4,3v0.2l-0.1,0.2L22,3.4h-2.9v5.2c1.9-0.4,3.6-0.4,4.9,0l0.6,0.2l0.2,0.1l0.1,0.2l-0.1,0.2l-0.2,0.2
					l-0.1,0.2l-4.4,4.6v0l-1,1.2v4.1V20L19,20.5l-0.4,0.8h0l-0.2,0.2l0,0.1c-0.5,0.5-1.1,0.7-1.9,0.8l-6,0.2L6,25.2l-0.1,0l-0.2,0.2
					l-0.3,0c-0.2,0-0.3-0.1-0.3-0.4c-0.1-0.1,0.1-0.7,0.6-1.8l0.3-1l-4-0.4c-0.7-0.1-1.2-0.8-1.3-2V20c0.1-0.6,0.4-1,1-1.4l0.2,0
					h1.8V2c0-1,0.2-1.6,0.7-1.8l1.1-0.1h13.1L18.5,0h0.2L20.4,0.2 M7.3,26L7.3,26l-0.1,0.3l-0.3,0.1H6.9l-0.2-0.1l-0.2-0.2l0.1-0.3
					l0.2-0.1l0.1,0L7,25.6l0.2,0.1L7.3,26z"/>
				<path class="st8" d="M7.3,26.1L7.3,26.1l-0.1-0.3L7,25.6l-0.2,0.1l-0.1,0l-0.2,0.1l-0.1,0.3l0.2,0.2l0.2,0.1h0.1l0.3-0.1
					L7.3,26.1 M20.5,0.3l-0.1-0.1L18.8,0h-0.2l-0.1,0.1H5.3L4.3,0.2C3.8,0.4,3.6,1,3.6,2v16.5H1.8l-0.2,0c-0.6,0.4-1,0.8-1,1.4V20
					c0.1,1.2,0.6,1.9,1.3,2l4,0.4l-0.3,1c-0.4,1.1-0.6,1.7-0.6,1.8c0,0.2,0.2,0.4,0.3,0.4l0.3,0l0.2-0.2l0.1,0l4.3-2.6l6-0.2
					c0.7,0,1.3-0.3,1.9-0.8l0-0.1l0.2-0.2h0l0.4-0.8l0.1-0.5v-0.3v-4.1l1-1.2v0l4.4-4.6l0.1-0.2l0.2-0.2l0.1-0.2l-0.1-0.2l-0.2-0.1
					L24,8.6c-1.3-0.4-3-0.4-4.9,0V3.4H22l0.2-0.1l0.1-0.2V3c-0.1-1-0.3-1.6-0.6-1.8L20.5,0.3z"/>
			</g>
		</g>
	</g>
	<g transform="matrix( 1, 0, 0, 1, 0,0) ">
		<g>
			<g id="Shapes_Shape_60_0_Layer0_0_FILL">
				<path class="st9" d="M6.9,26.9L6.9,26.9L6.9,26.9L6.9,26.9z"/>
				
					<linearGradient id="SVGID_00000126289479602290216630000011650245188122550447_" gradientUnits="userSpaceOnUse" x1="-0.6281" y1="16.5986" x2="6.2969" y2="4.6736" gradientTransform="matrix(1 0 0 -1 6.45 31.7)">
					<stop  offset="0" style="stop-color:#B7986F"/>
					<stop  offset="1" style="stop-color:#664D43"/>
					<stop  offset="1" style="stop-color:#0D1503"/>
				</linearGradient>
				<path style="fill:url(#SVGID_00000126289479602290216630000011650245188122550447_);" d="M16.4,22.8c-1.3-0.6-1-1.6,0.6-3h-2.1
					L10.2,23L16.4,22.8 M1,20.8c0.1,0.9,0.4,1.5,0.9,1.6l4.5,0.5L7,21.4L7.2,21l0.6-1.2H4H1.8C1.3,20,1,20.4,1,20.8z"/>
				
					<linearGradient id="SVGID_00000029728850940374742960000014581858307671605414_" gradientUnits="userSpaceOnUse" x1="-3.45" y1="29.55" x2="8.2" y2="17.9" gradientTransform="matrix(1 0 0 -1 6.45 31.7)">
					<stop  offset="0" style="stop-color:#E1D5C3"/>
					<stop  offset="1" style="stop-color:#D5C3B1"/>
					<stop  offset="1" style="stop-color:#0D1503"/>
				</linearGradient>
				<path style="fill:url(#SVGID_00000029728850940374742960000014581858307671605414_);" d="M17,19.7c-1.7,1.4-1.9,2.4-0.6,3
					c0.6,0,1.1-0.2,1.6-0.6l0.3-0.3l0.3-0.6l0.2-0.5v-0.2v-4.2l-3.9,3.5H17 M18.5,9.9l0.2,0v-6V3.8V1.3H5.2l-0.8,0
					C4.2,1.5,4,2,4,2.8v16.9h3.8c0.9-1.8,2.1-3.4,3.7-4.8C13.5,12.4,15.9,10.8,18.5,9.9z"/>
				<path class="st12" d="M6.7,22.5L6.7,22.5l-0.2,0.3L6,24.3l-0.5,1.6l0.3-0.2l0.2-0.2L6,25.2l0.2-0.9l0.3-1.5L6.7,22.5z"/>
				<path class="st13" d="M7.6,23L7.6,23L7.5,23l-1.2,1.4L6,25.2C7.1,24.1,7.6,23.3,7.6,23z"/>
				<path class="st14" d="M7.6,23L7.6,23l0.2,0.1l2.1-2.2L9.8,21l-0.1,0C9.2,21.3,8.6,21.9,7.6,23L7.6,23z"/>
				
					<linearGradient id="SVGID_00000172438285181273194060000011581204755472955025_" gradientUnits="userSpaceOnUse" x1="13.875" y1="23.9" x2="13.875" y2="32.3" gradientTransform="matrix(1 0 0 -1 6.45 31.7)">
					<stop  offset="0" style="stop-color:#B28E78"/>
					<stop  offset="1" style="stop-color:#755951"/>
					<stop  offset="1" style="stop-color:#0D1503"/>
				</linearGradient>
				<path style="fill:url(#SVGID_00000172438285181273194060000011581204755472955025_);" d="M21.5,2.3l-1.1-0.8l-1.6-0.2v0.1v2.5
					H22C21.8,3,21.6,2.5,21.5,2.3z"/>
				
					<linearGradient id="SVGID_00000003083344162387475590000017576662497511015310_" gradientUnits="userSpaceOnUse" x1="8.4876" y1="7.0197" x2="8.4626" y2="22.1947" gradientTransform="matrix(1 0 0 -1 6.45 31.7)">
					<stop  offset="0" style="stop-color:#A57819"/>
					<stop  offset="1" style="stop-color:#755816"/>
					<stop  offset="1" style="stop-color:#0D1503"/>
				</linearGradient>
				<path style="fill:url(#SVGID_00000003083344162387475590000017576662497511015310_);" d="M23.8,10l0.1-0.2
					c-1.4-0.4-3.1-0.4-5.2,0.1l-0.2,0c-2.6,0.9-4.9,2.5-7,5c-1.6,1.4-2.8,3-3.7,4.8L7.2,21L7,21.4l-0.6,1.5L6,24.3l0.6-1.4l0.1-0.4
					l0.1,0l-0.1,0.3l-0.3,1.5L7.5,23v-0.1V23l0.1,0l0.1,0c0.9-1,1.6-1.7,2-2l-0.1,0l1.4-1.2l3.9-4.5c1.1-1.1,2.4-2.1,3.9-3
					S21.9,10.6,23.8,10z"/>
				<path class="st17" d="M23.9,10.1L23.8,10c-1.9,0.6-3.6,1.3-5.1,2.2s-2.8,1.9-3.9,3l-3.9,4.5L9.6,21l0.1,0l0.2-0.1l0.3-0.2l1-0.9
					l4.1-4.2c1.1-1,2.2-2,3.5-2.8C20.3,11.7,22,10.8,23.9,10.1z"/>
				
					<linearGradient id="SVGID_00000119820014425008987660000005354490839674293166_" gradientUnits="userSpaceOnUse" x1="-6.926" y1="5.1888" x2="13.849" y2="17.1638" gradientTransform="matrix(1 0 0 -1 6.45 31.7)">
					<stop  offset="0" style="stop-color:#E1AD3E"/>
					<stop  offset="1" style="stop-color:#8B6410"/>
					<stop  offset="1" style="stop-color:#0D1503"/>
				</linearGradient>
				<path style="fill:url(#SVGID_00000119820014425008987660000005354490839674293166_);" d="M23.8,10l0.1,0.1
					c-1.9,0.7-3.6,1.6-5.2,2.6c-1.3,0.8-2.4,1.7-3.5,2.8l-4.1,4.2l-1,0.9l-0.3,0.2L9.6,21l0.1,0l0.1-0.1l-2.1,2.2L7.6,23
					c0,0.3-0.5,1-1.6,2.2l-0.1,0.3l-0.1,0.2l4.4-2.7l4.6-3.3l3.9-3.5l1.1-1.3l4.4-4.6l0.2-0.4l-0.6-0.1L23.8,10z"/>
			</g>
		</g>
	</g>
</g>
</svg>
