<?xml version="1.0" encoding="utf-8"?>
<!-- Generator: Adobe Illustrator 27.4.1, SVG Export Plug-In . SVG Version: 6.00 Build 0)  -->
<svg version="1.0" id="_Слой_1" xmlns="http://www.w3.org/2000/svg" xmlns:xlink="http://www.w3.org/1999/xlink" x="0px"
	 y="0px" viewBox="0 0 41 40.8" enable-background="new 0 0 41 40.8" xml:space="preserve">
<g id="Shapes_Shape_223_0_Layer1_0_FILL">
	
		<linearGradient id="SVGID_1_" gradientUnits="userSpaceOnUse" x1="-212.0026" y1="469.3328" x2="-199.2019" y2="491.4382" gradientTransform="matrix(1.5642 0 0 1.5597 341.9705 -729.0572)">
		<stop  offset="0" style="stop-color:#60D3F9"/>
		<stop  offset="1" style="stop-color:#3E7C97"/>
	</linearGradient>
	<path fill="url(#SVGID_1_)" d="M0.1,18.6v0.7L0,20.4C0,26,2,30.8,5.9,34.8c3.8,3.8,8.4,5.8,13.7,6h0.8c5.7,0,10.6-2,14.5-6
		c4-4,6-8.8,6-14.4S39,10,35,6c-1.5-1.5-3.2-2.8-5-3.8l-1.9-0.8l-3.3-1l-2.3-0.3L20.5,0l-3,0.2l-1.8,0.3c-1.9,0.4-3.6,1-5.2,2L5.9,6
		c-1.3,1.3-2.4,2.7-3.3,4.3l-1.8,4.3l-0.6,2.7L0.1,18.6 M1.8,14.8l1.7-4.1c0.8-1.5,1.9-2.8,3.1-4C7.9,5.4,9.4,4.3,11,3.4
		c1.5-0.9,3.2-1.6,5-1.9l1.7-0.3L20.5,1l2,0.1l2.2,0.3l3.1,0.9l1.8,0.8l4.7,3.6C38.1,10.5,40,15,40,20.4c0,5.4-1.9,9.9-5.7,13.8
		c-3.8,3.8-8.4,5.7-13.9,5.7h-0.7c-5.1-0.2-9.5-2.1-13-5.7C2.9,30.3,1,25.7,1,20.4l0.1-1.1v-0.7l0.2-1.3C1.2,17.4,1.8,14.8,1.8,14.8
		z"/>
	<path fill="#1DB9FD" d="M3.5,10.7l-1.7,4.1l-0.6,2.5l-0.2,1.3v0.7L1,20.4c0,5.4,1.9,9.9,5.7,13.8c3.6,3.5,7.9,5.4,13,5.7h0.7
		c5.4,0,10.1-1.9,13.9-5.7c3.8-3.8,5.7-8.4,5.7-13.8c0-5.4-1.9-9.9-5.7-13.7l-4.7-3.6l-1.8-0.8l-3.1-0.9l-2.2-0.3l-2-0.1l-2.8,0.2
		l-1.7,0.3c-1.8,0.3-3.4,1-5,1.9c-1.6,0.9-3,2-4.3,3.3C5.4,7.9,4.4,9.3,3.5,10.7 M17.1,5.9l1.3-0.2l2.1-0.2L22,5.6l1.7,0.2l2.4,0.7
		l1.4,0.7l3.6,2.7c2.9,2.9,4.4,6.5,4.4,10.6s-1.5,7.6-4.4,10.5c-2.9,2.9-6.5,4.3-10.6,4.3H20c-3.9-0.1-7.2-1.6-10-4.3
		C7.1,28,5.6,24.5,5.6,20.4l0.1-0.8v-0.5L5.8,18l0.5-2l1.3-3.1L10,9.8l3.3-2.5C14.4,6.7,15.7,6.2,17.1,5.9z"/>
	<path fill="#478EB2" d="M18.4,5.7l-1.3,0.2c-1.4,0.3-2.6,0.8-3.8,1.5L10,9.8l-2.4,3.1l-1.3,3.1l-0.5,2l-0.1,1.1v0.5l-0.1,0.8
		c0,4.1,1.5,7.6,4.4,10.5c2.8,2.8,6.1,4.2,10,4.3h0.6c4.2,0,7.7-1.4,10.6-4.3c2.9-2.9,4.4-6.4,4.4-10.5s-1.5-7.6-4.4-10.6l-3.6-2.7
		l-1.4-0.7l-2.4-0.7L22,5.6l-1.5-0.1L18.4,5.7 M17.3,7.1l1.2-0.2l2.1-0.2l1.3,0.1L23.4,7l2.2,0.7l1.2,0.6c1.2,0.7,2.3,1.5,3.3,2.5
		c2.8,2.7,4.1,5.9,4.1,9.7s-1.4,7-4.1,9.7c-2.6,2.7-5.9,4-9.7,4H20c-3.6-0.2-6.7-1.5-9.2-4c-2.6-2.7-4-5.9-4-9.7l0.1-0.7v-0.5
		l0.1-0.9l0.4-1.9l1.2-2.9l2.2-2.8l3.1-2.4C14.9,7.8,16.1,7.3,17.3,7.1z"/>
	<path fill="#FEFDFE" d="M18.5,6.9l-1.2,0.2c-1.3,0.2-2.4,0.6-3.5,1.2l-3.1,2.4l-2.2,2.8l-1.2,2.9l-0.4,1.9l-0.1,0.9v0.5l-0.1,0.7
		c0,3.8,1.3,7,4,9.7c2.6,2.5,5.7,3.8,9.2,4h0.6c3.8,0,7-1.3,9.7-4c2.8-2.7,4.1-5.9,4.1-9.7s-1.4-7-4.1-9.7c-1-1-2.1-1.9-3.3-2.5
		l-1.2-0.6L23.4,7l-1.6-0.2l-1.3-0.1C20.5,6.7,18.5,6.9,18.5,6.9z"/>
</g>
<g id="Shapes_Shape_223_0_Layer0_0_FILL">
	<path fill="#FEFDFE" d="M32.5,29.6L31.2,31l-3.8,2.8l2.6,3.8l4.3-3.3l0.8-0.8L32.5,29.6 M15.8,34.6c-2.1-0.7-4-1.8-5.6-3.4
		l-2.7,3.8c1.7,1.5,3.5,2.6,5.5,3.4L15.8,34.6 M16.1,6.2l-2.7-3.8L11,3.5L7.8,5.8l2.6,3.8l2.9-2.1L16.1,6.2 M1.1,18.8v0.7L1,20.5
		l0.2,3.4H6l-0.4-3.4l0.1-0.8v-0.5l0.1-1.1l0.2-0.8H1.3l-0.1,0.2L1.1,18.8 M31.2,9.9l1.3,1.5l2.6-3.8l-0.8-0.8L30,3.4l-2.6,3.7
		l0.2,0.1L31.2,9.9 M39.8,17.3h-4.5l0.3,3.2l-0.3,3.4h4.5l0.2-3.4L39.8,17.3z"/>
</g>
</svg>
