<?xml version="1.0" encoding="UTF-8"?><svg id="_Слой_1" xmlns="http://www.w3.org/2000/svg" xmlns:xlink="http://www.w3.org/1999/xlink" viewBox="0 0 12.8168476354 13.6711956522"><defs><linearGradient id="_Безымянный_градиент_3" x1="-419.5737821892" y1="5.6524840508" x2="375.0195529477" y2="5.6524840508" gradientTransform="translate(4.1999998093 17.9402173913) scale(1 -1)" gradientUnits="userSpaceOnUse"><stop offset="0" stop-color="#f8c4ff"/><stop offset="1" stop-color="#600a90"/></linearGradient><linearGradient id="_Безымянный_градиент_4" x1="-.5547514572" y1="17.8902349521" x2="6.3498019877" y2=".5548748454" gradientTransform="translate(4.1999998093 17.9402173913) scale(1 -1)" gradientUnits="userSpaceOnUse"><stop offset="0" stop-color="#8b7836"/><stop offset="1" stop-color="#473d1b"/></linearGradient></defs><g id="Layer2_0_FILL"><path d="m12.8168476354,7.0009291179c0-1.8446168082-.617229172-3.4257168117-1.8516879808-4.7433004522-1.2669445302-1.3175835228-2.7937743672-1.9599055207-4.5804909051-1.9269658465-1.7867164798-.0329396742-3.2973039789.6093823237-4.5317625553,1.9269658465C.5859618962,3.5752123062-.0312675082,5.1563123097.0012182133,7.0009291179c-.0324857214,1.844617515.5847436829,3.4092480937,1.8516879808,4.6938912649,1.2344585764,1.2846441136,2.7450460755,1.9434361842,4.5317625553,1.9763752694,1.7867165379-.0329390852,3.3135463749-.6917311558,4.5804909051-1.9763752694,1.2344588088-1.2846431712,1.8516879808-2.8492737499,1.8516879808-4.6938912649m-2.0466023094-4.5456629076c1.2019726226,1.2517043216,1.8029591663,2.7669252123,1.8029591663,4.5456629076,0,1.778737931-.6009865437,3.2939594106-1.8029591663,4.5456634966-1.2019730873,1.251704086-2.6638319462,1.877556129-4.3855765765,1.877556129-1.7217449208,0-3.1836038377-.625852043-4.3855766927-1.877556129C.7971193179,10.2948885285.1961327742,8.7796670488.1961327742,7.0009291179.1961327742,5.2221914225.7971193179,3.7069705318,1.9990920567,2.4552662102c1.201972855-1.2846439369,2.6638317719-1.9269659348,4.3855766927-1.9269659348,1.7217446303,0,3.1836034892.6423219979,4.3855765765,1.9269659348Z" style="fill:rgba(34,34,34,.2470588237);"/><path d="m12.5732044922,7.0009291179c0-1.7787376954-.6009865437-3.293958586-1.8029591663-4.5456629076-1.2019730873-1.2846439369-2.6638319462-1.9269659348-4.3855765765-1.9269659348-1.7217449208,0-3.1836038377.6423219979-4.3855766927,1.9269659348C.7971193179,3.7069705318.1961327742,5.2221914225.1961327742,7.0009291179c0,1.778737931.6009865437,3.2939594106,1.8029592825,4.5456634966,1.201972855,1.251704086,2.6638317719,1.877556129,4.3855766927,1.877556129,1.7217446303,0,3.1836034892-.625852043,4.3855765765-1.877556129,1.2019726226-1.251704086,1.8029591663-2.7669255657,1.8029591663-4.5456634966m-1.9491451451-4.397434786c1.1370016445,1.2187646474,1.705502002,2.6845762034,1.705502002,4.397434786,0,1.7128583469-.5685003575,3.162201185-1.705502002,4.3480261582-1.1694873659,1.2187640584-2.5826174102,1.8281465588-4.2393905977,1.8281465588-1.6567734198,0-3.0699036965-.6093825004-4.23939083-1.8281465588-1.1370014121-1.1858249732-1.705502002-2.6351678112-1.705502002-4.3480261582,0-1.7128585825.5685005899-3.1786701386,1.705502002-4.397434786,1.1694871335-1.2187647652,2.5826174102-1.8281471478,4.23939083-1.8281471478,1.6567731875,0,3.0699032318.6093823826,4.2393905977,1.8281471478Z" style="fill:rgba(34,34,34,.4980392158);"/><path d="m12.3295613491,7.0009291179c0-1.7128585825-.5685003575-3.1786701386-1.705502002-4.397434786-1.1694873659-1.2187647652-2.5826174102-1.8281471478-4.2393905977-1.8281471478-1.6567734198,0-3.0699036965.6093823826-4.23939083,1.8281471478C1.0082765072,3.8222589793.4397759174,5.2880705353.4397759174,7.0009291179c0,1.7128583469.5685005899,3.162201185,1.705502002,4.3480261582,1.1694871335,1.2187640584,2.5826174102,1.8281465588,4.23939083,1.8281465588,1.6567731875,0,3.0699032318-.6093825004,4.2393905977-1.8281465588,1.1370016445-1.1858249732,1.705502002-2.6351678112,1.705502002-4.3480261582m-1.8516879808-4.2492066643c1.104515923,1.1858253266,1.6567736522,2.6022276658,1.6567736522,4.2492066643,0,1.6469792341-.5522577292,3.0469115596-1.6567736522,4.1997974475-1.1370016445,1.1528849456-2.5014028743,1.7293283607-4.0932046189,1.7293283607-1.5918018608,0-2.9399606946-.5764434152-4.0444762691-1.7293283607-1.1370014121-1.152885888-1.705502002-2.5528182134-1.705502002-4.1997974475,0-1.6469789985.5685005899-3.0633813378,1.705502002-4.2492066643,1.1045155745-1.152885564,2.4526744083-1.7293284196,4.0444762691-1.7293283607,1.5918017446-.0000000589,2.9562029744.5764427967,4.0932046189,1.7293283607Z" style="fill:rgba(34,34,34,.7490196228);"/><path d="m12.1346470204,7.0009291179c0-1.6469789985-.5522577292-3.0633813378-1.6567736522-4.2492066643-1.1370016445-1.152885564-2.5014028743-1.7293284196-4.0932046189-1.7293283607-1.5918018608-.0000000589-2.9399606946.5764427967-4.0444762691,1.7293283607-1.1370014121,1.1858253266-1.705502002,2.6022276658-1.705502002,4.2492066643,0,1.6469792341.5685005899,3.0469115596,1.705502002,4.1997974475,1.1045155745,1.1528849456,2.4526744083,1.7293283607,4.0444762691,1.7293283607,1.5918017446,0,2.9562029744-.5764434152,4.0932046189-1.7293283607,1.104515923-1.152885888,1.6567736522-2.5528182134,1.6567736522-4.1997974475Z" style="fill:#222;"/></g><g id="Layer1_0_FILL"><path d="m6.6283118925.0342064581c-.8446294545-.0988186692-1.7217449789.0164697782-2.6313460359.3458656957-1.5593162119.6258522197-2.6638319026,1.7128585384-3.3135467961,3.2610191474C.2286184957,4.6622184923.0661898885,5.6833459191.1961327742,6.7044731102l.3411005398,1.6305096915c.422314611,1.1199453891,1.0720297369,2.0257838972,1.9491450289,2.7175159955.3898290639.3623355917.8446295706.6587920706,1.3644016255.8893684943.3573432662.1317582256.747172301.2470469087,1.1694870863.3458660491,1.5918017446.3293965065,3.0699036965.0329390852,4.434305391-.8893694367s2.2090309166-2.2234217069,2.533888131-3.9033409686c.3248572144-1.6469792341.0487288145-3.1786700208-.828386129-4.59507236l-.389829122-.543503152c-.5847439153-.7576105042-1.3319159731-1.3669929457-2.2415171028-1.8281471478-.5847434506-.2635166869-1.1857299943-.4282145867-1.8029591663-.4940938174h-.0974571643m3.2648180251,1.6305096179l.1949143286.1482281474.097457629.1482281474c1.1045149936,1.1858251131,1.6730158158,2.6022274523,1.705502002,4.249206922-.0324861862,1.6469797053-.6009870084,3.0633815734-1.705502002,4.2492065465l-.097457629.0988191404.0487288145.098818198-.2923719577.1482287107c-1.0720297369.9223085219-2.3064883133,1.3834623116-3.7033754969,1.3834623116h-.4872864025l-1.7542306059-.3952746769c-.519772015-.2305773661-1.0070583303-.5435033876-1.4618588371-.9387780645l-.194914561-.0988191404.0487286983-.0494095702-.2923718415-.2470469087c-.9096012459-.9552476071-1.4456158819-2.1081330239-1.6080447215-3.4586567215v-1.7293281251c.194914561-1.2846441136.7309294294-2.3881201958,1.6080447215-3.3104286219l.194914561-.1482281474-.0487286983-.0494093825.3411004236-.2470469013C3.5259224456.6600587367,4.7441381903.2318440321,6.1410256063.2318440321c1.4293731374,0,2.6800745745.4776240392,3.7521043114,1.4328720438m-3.1186322787,10.6230172646l-.4385577041.0494095702.6334722651-.0988191404-.194914561.0494095702m3.4110042363-1.6305101627v.0494095702l-.1949147933.1482287107-.5360146361.3458651067.4385574718-.2964564789.2923719577-.2470469087Z" style="fill:rgba(51,51,51,.8313725591);"/><path d="m9.990587082,10.8548614587l-.0974571643.0494086278-.4385574718.2964564789.5360146361-.3458651067Z" style="fill:#333;"/><path d="m6.3359399349,12.3371429108l.4385577041-.0494095702.194914561-.0494095702-.6334722651.0988191404Z" style="fill:url(#_Безымянный_градиент_3);"/><path d="m10.0880442463,1.8129442234l-.1949143286-.1482281474C8.8211001808.7094680713,7.5703987437.2318440321,6.1410256063.2318440321c-1.396887416,0-2.6151031607.4282147045-3.6546472633,1.2846439075l-.2923717253.2964562838-.194914561.1482281474c-.8771152921.9223084262-1.4131301605,2.0257845083-1.6080447215,3.3104286219v1.7293281251c.1624288395,1.3505236976.6984434756,2.5034091144,1.6080447215,3.4586567215l.2923718415.2470469087.1461858626.1482287107c.4548005068.3952746769.9420868221.7082006984,1.4618588371.9387780645l1.7542306059.3952746769h.4872864025c1.3968871836,0,2.63134576-.4611537897,3.7033754969-1.3834623116l.2436431431-.2470469087.097457629-.0988191404c1.1045149936-1.1858249732,1.6730158158-2.6022268412,1.705502002-4.2492065465-.0324861862-1.6469794697-.6009870084-3.063381809-1.705502002-4.249206922l-.097457629-.1482281474Z" style="fill:url(#_Безымянный_градиент_4);"/></g><g id="Layer0_0_FILL"><path d="m1.9503634745,8.4338014709h-.1461858626l-.0487285822.5435029164v.0988191404h.1949144448v-.6423220568M11.0138884691,3.2458162709h-.1461859788c.0649719076.1317583434-.1299428858.3623355917-.5847434506.6917312736l.1461859788.0494095702c.389829122,0,.5847434506-.1811677959.5847434506-.5435032698v-.1976375741M2.5351070413,9.3231704364l-.194914561-.2470469087-.1461858626.2964560077.0487285822.0494095702.2923718415-.0988186692m-.5360149846-5.3362133217l-.3411004236-.0494095702h-.2436431431v.0494095702l.4872862863.1482280038.0974572805-.1482280038m-.3411004236-.8399596309h-.194914561v.098818787l.2923719577.1976375741.4872861701.0494093346.1461858626-.1976374563v-.0494094524l-.7309294294-.098818787m9.0635248783,5.7808978044l.0487288145-.0988186692-.5847434506-.1976378097-.097457629.1482282394.6334722651.1482282394m-.1949143286-.8399593953h-.0974571643l-.0487288145.1482277682h.4872862863c0-.0988186692-.1137002574-.148227297-.3411003075-.1482277682m-4.6779485342,2.9151533339h-.0974571643l-.0974572805.5435033876.1949144448.1482277682c.0324859538-.0658781704.0487288145-.1811668534.0487288145-.3458651067s-.0162428607-.2799869363-.0487288145-.3458660491m.7309294294,0h-.1461857465l.3411003075.4446842471.0487285822-.0494095702-.2436431431-.3952746769m3.9470191048-6.4726289602l.1949143286.0494093346c.1949143286,0,.2923719577-.0494093346.2923719577-.1482282394v-.0988186692l-.4872862863.1976375741M6.3359399349.5283002754v.8893689066h.194914561l-.0487285822-.8893689066h-.1461859788m-1.0233011547.9387782706v-.790550149l-.0487285822-.0494093346h-.0974572805v.8399594836h.1461858626Z" style="fill:#b6a45a;"/><path d="m.3910473352,5.2716009927v1.7787376954h1.1207585514l-.0487288145-.8399593953.0974573967-.9387783001H.3910473352m7.6991234162,5.3362135573l.6334722651.9387780645h.0487283498l1.3644016945-.9881876347-.6822006149-.9881876347-.0487288145.049409099-1.31567288.9881881059m-3.8008331259.0494086278l-.0974572514-.0494086278c-.4872862863-.2305773661-.9258439614-.527033845-1.3156729671-.8893694367l-.0487286402-.049409099-.6334721489.9387785357c.4548005648.4282147045.942086793.7740798112,1.4618588298,1.0375962625l.633472178-.9881876347m6.4809077005-4.446843885l-.0487288145.8399593953h1.1207585514l.0487288145-.8399593953-.097457629-.9387783001h-1.1207580867l.0974571643.9387783001M8.7236430165.8741659711l-.0487288145-.0494093346-.6334722651.9881875869.389829122.1976375336.9745725726.7905500901h.0487288145l.6334718004-.9387782412-.0487283498-.0494093825-1.31567288-.9387782522m-4.5804912827.9387782522h.0487286402l-.6822008182-.9387782522-1.4131302186.9881876347.6822008473.9881876347.0487285822-.0494093935c.3898290639-.4282146456.8283866809-.7576105042,1.3156729671-.9881876237m5.1165059188,1.4328720475l-.1461859788-.1482281216c-.4223143787-.4282146456-.8771149435-.7576105042-1.3644012298-.9881876347-.5197722401-.1976375262-1.0557873409-.2964562911-1.6080448377-.2964562911-.6172292882-.0329395895-1.1694871335.0658791754-1.6567734779.2964562911l-.4872862718.2964563022-.8771153066.6917313325-.1461859207.1482281216c-.5197720077.559973048-.8608723152,1.218764883-1.0233011547,1.9763753872l-.0974572805.9881876347.0974572805.8399593953v.0494095702c.1299428858.790549825.4872861701,1.4987514659,1.072029795,2.1246030377l.0974572805.0988191404c.4223147563.4282147045.8771152921.7576102686,1.3644015783.9881876347l1.072029795.2964564789h.5847436829c.5522574968,0,1.0882725976-.115288683,1.6080448377-.3458660491.4872862863-.1976373385.9420868511-.51056336,1.3644012298-.9387780645l.1461859788-.1482282394c.5197720077-.5929129578.8608727799-1.2846441136,1.0233013871-2.0751939387l.0974571643-.8893689655-.0974571643-.9881876347c-.1624286072-.7576105042-.5035293794-1.4164023392-1.0233013871-1.9763753872Z" style="fill:#ded3a9;"/><path d="m5.3126387802,1.4670785461h-.1461858626l-.9258439323.2964562948-.0487286112.0494093825h-.0487286402c-.4872862863.2305771194-.9258439033.559972978-1.3156729671.9881876237l-.0487285822.0494093935-.0487286983.0494093346h-.0487285822l-.2923718415.3952751481-.1461858626.1976374563-.2436431431.4940939352-.0974572805.1482280038-.3411003075,1.0870065395v.0494093346l-.0974573967.9387783001.0487288145.8399593953.0487285822.0494095702c.0974571643.7246707122.3573431682,1.3834627828.7796580116,1.9763752694l.194914561.2470469087.2923717253.3458655779.0487286402.049409099c.3898290058.3623355917.8283866809.6587920706,1.3156729671.8893694367l.0974572514.0494086278.0974572805.0494095702,1.4618587427.2964564789.2923719577.0494095702.2923717253-.0494095702h.1461857465l1.413130509-.3458660491.0974571643-.0494086278,1.31567288-.9881881059.0487288145-.049409099.0487283498-.0494095702.5847434506-.741140726.097457629-.1482282394.1949143286-.3952751481.0487288145-.1482277682.2923714929-.9881876347v-.0494095702l.0487288145-.8399593953-.0974571643-.9387783001v-.0988189048l-.1461859788-.6423218212c-.2274005148-.5929124866-.5685003575-1.136415992-1.0233013871-1.6305096915l-.0487283498-.0988187281h-.0487288145l-.9745725726-.7905500901-.389829122-.1976375336-.0487283498-.0494093825-1.4618590912-.3458656589h-.194914561l-1.0233011547.0494093641m3.8008328936,1.6305096032l.1461859788.1482281216c.5197720077.559973048.8608727799,1.218764883,1.0233013871,1.9763753872l.0974571643.9881876347-.0974571643.8893689655c-.1624286072.790549825-.5035293794,1.4822809809-1.0233013871,2.0751939387l-.1461859788.1482282394c-.4223143787.4282147045-.8771149435.741140726-1.3644012298.9387780645-.5197722401.2305773661-1.0557873409.3458660491-1.6080448377.3458660491h-.5847436829l-1.072029795-.2964564789c-.4872862863-.2305773661-.9420868221-.5599729302-1.3644015783-.9881876347l-.0974572805-.0988191404c-.5847436249-.6258515718-.9420869092-1.3340532126-1.072029795-2.1246030377v-.0494095702l-.0974572805-.8399593953.0974572805-.9881876347c.1624288395-.7576105042.503529147-1.4164023392,1.0233011547-1.9763753872l.1461859207-.1482281216.8771153066-.6917313325.4872862718-.2964563022c.4872863444-.2305771157,1.0395441897-.3293958807,1.6567734779-.2964562911.5522574968,0,1.0882725976.0988187649,1.6080448377.2964562911.4872862863.2305771305.9420868511.5599729891,1.3644012298.9881876347Z" style="fill:#5b4f23;"/></g></svg>