<?xml version="1.0" encoding="utf-8"?>
<!-- Generator: Adobe Illustrator 27.4.1, SVG Export Plug-In . SVG Version: 6.00 Build 0)  -->
<svg version="1.0" id="_Слой_1" xmlns="http://www.w3.org/2000/svg" xmlns:xlink="http://www.w3.org/1999/xlink" x="0px"
	 y="0px" viewBox="0 0 41 41" enable-background="new 0 0 41 41" xml:space="preserve">
<g id="Shapes_Shape_219_0_Layer1_0_FILL">
	
		<linearGradient id="SVGID_1_" gradientUnits="userSpaceOnUse" x1="-211.1533" y1="469.2651" x2="-198.3262" y2="491.5937" gradientTransform="matrix(1.5606 0 0 1.5597 339.8705 -729.0572)">
		<stop  offset="0" style="stop-color:#018F8E"/>
		<stop  offset="1" style="stop-color:#006666"/>
	</linearGradient>
	<path fill="url(#SVGID_1_)" d="M22.5,0.1L20.5,0l-3,0.2l-1.8,0.3c-1.9,0.4-3.6,1-5.2,2L5.9,6c-1.3,1.3-2.4,2.7-3.3,4.3l-1.8,4.3
		l-0.6,2.7l-0.2,1.4v0.7L0,20.5C0,26.1,2,31,5.9,35c3.8,3.8,8.4,5.8,13.7,6h0.8c5.7,0,10.6-2,14.5-6c4-4,6-8.8,6-14.5S39,10,35,6
		c-1.5-1.5-3.2-2.8-5-3.8l-1.9-0.8l-3.3-1L22.5,0.1 M29.6,3.1l4.7,3.6c3.8,3.8,5.7,8.4,5.7,13.7c0,5.4-1.9,10-5.7,13.8
		c-3.8,3.8-8.4,5.7-13.9,5.7h-0.7c-5.1-0.2-9.5-2.1-13-5.7C2.9,30.5,1,25.9,1,20.5l0.1-1.1v-0.7l0.2-1.3l0.6-2.6l1.7-4.1
		c0.8-1.5,1.9-2.8,3.1-4C7.9,5.4,9.4,4.3,11,3.5c1.5-0.9,3.2-1.6,5-1.9l1.7-0.3L20.5,1l2,0.1l2.2,0.3l3.1,0.9
		C27.8,2.3,29.6,3.1,29.6,3.1z"/>
	
		<linearGradient id="SVGID_00000152965522904345844680000010002023845496216985_" gradientUnits="userSpaceOnUse" x1="-217.1749" y1="480.5777" x2="-192.1642" y2="480.5777" gradientTransform="matrix(1.5606 0 0 1.5597 339.8705 -729.0572)">
		<stop  offset="0" style="stop-color:#00CC99"/>
		<stop  offset="1" style="stop-color:#009966"/>
	</linearGradient>
	<path fill="url(#SVGID_00000152965522904345844680000010002023845496216985_)" d="M34.3,6.7l-4.7-3.6l-1.8-0.8l-3.1-0.9l-2.2-0.3
		l-2-0.1l-2.8,0.2l-1.7,0.3c-1.8,0.3-3.4,1-5,1.9c-1.6,0.9-3,2-4.3,3.3c-1.3,1.2-2.3,2.6-3.1,4l-1.7,4.1l-0.6,2.6l-0.2,1.3v0.7
		L1,20.5c0,5.4,1.9,10,5.7,13.8c3.6,3.6,7.9,5.5,13,5.7h0.7c5.4,0,10.1-1.9,13.9-5.7c3.8-3.8,5.7-8.4,5.7-13.8
		C40,15.1,38.1,10.5,34.3,6.7 M22,5.6l1.7,0.2l2.4,0.7l1.4,0.7l3.6,2.7c2.9,3,4.4,6.5,4.4,10.6s-1.5,7.6-4.4,10.5s-6.5,4.4-10.6,4.4
		H20c-3.9-0.1-7.2-1.6-10-4.4c-2.9-2.9-4.4-6.4-4.4-10.5l0.1-0.8v-0.5l0.1-1.1l0.5-2L7.6,13L10,9.9l3.3-2.5c1.2-0.7,2.4-1.2,3.8-1.5
		l1.3-0.2l2.1-0.2C20.5,5.5,22,5.6,22,5.6z"/>
	<path fill="#006666" d="M23.8,5.8L22,5.6l-1.5-0.1l-2.1,0.2l-1.3,0.2c-1.4,0.3-2.6,0.8-3.8,1.5L10,9.9L7.6,13l-1.3,3.1l-0.5,2
		l-0.1,1.1v0.5l-0.1,0.8c0,4.1,1.5,7.6,4.4,10.5c2.8,2.8,6.1,4.3,10,4.4h0.6c4.2,0,7.7-1.5,10.6-4.4c2.9-2.9,4.4-6.4,4.4-10.5
		s-1.5-7.7-4.4-10.6l-3.6-2.7l-1.4-0.7L23.8,5.8 M21.9,6.8L23.4,7l2.2,0.7l1.2,0.6c1.2,0.7,2.3,1.5,3.3,2.6c2.8,2.7,4.1,5.9,4.1,9.7
		s-1.4,7-4.1,9.7c-2.6,2.7-5.9,4-9.7,4H20c-3.6-0.2-6.7-1.5-9.2-4c-2.6-2.7-4-5.9-4-9.7l0.1-0.7v-0.5l0.1-0.9l0.4-1.9l1.2-2.9
		l2.2-2.8l3.1-2.4c1.1-0.6,2.3-1,3.5-1.2l1.2-0.2l2.1-0.2C20.5,6.7,21.9,6.8,21.9,6.8z"/>
	<path fill="#FEFDFE" d="M23.4,7l-1.6-0.2l-1.3-0.1l-2.1,0.2l-1.2,0.2c-1.3,0.2-2.4,0.6-3.5,1.2l-3.1,2.4l-2.2,2.8l-1.2,2.9
		l-0.4,1.9l-0.1,0.9v0.5l-0.1,0.7c0,3.8,1.3,7,4,9.7c2.6,2.5,5.7,3.9,9.2,4h0.6c3.8,0,7-1.3,9.7-4c2.8-2.7,4.1-5.9,4.1-9.7
		s-1.4-7-4.1-9.7c-1-1-2.1-1.9-3.3-2.6l-1.2-0.6C25.7,7.7,23.4,7,23.4,7z"/>
</g>
<g id="Shapes_Shape_219_0_Layer0_0_FILL">
	<path fill="#FEFDFE" d="M31.2,31.1l-3.8,2.8l2.6,3.8l4.3-3.3l0.8-0.8l-2.6-3.9L31.2,31.1 M15.8,34.8c-2.1-0.7-4-1.8-5.6-3.5
		l-2.7,3.9c1.7,1.5,3.5,2.6,5.5,3.5L15.8,34.8 M16.1,6.3l-2.7-3.9L11,3.5L7.8,5.8l2.6,3.8l2.9-2.1L16.1,6.3 M1.1,18.8v0.7L1,20.6
		l0.2,3.4H6l-0.4-3.4l0.1-0.8v-0.5l0.1-1.1l0.2-0.8H1.3l-0.1,0.2L1.1,18.8 M27.4,7.2l0.2,0.1l3.6,2.7l1.3,1.5l2.6-3.8l-0.8-0.8
		L30,3.5L27.4,7.2 M39.8,17.4h-4.5l0.3,3.2l-0.3,3.4h4.5l0.2-3.4L39.8,17.4z"/>
</g>
</svg>
