<?xml version="1.0" encoding="utf-8"?>
<!-- Generator: Adobe Illustrator 27.4.1, SVG Export Plug-In . SVG Version: 6.00 Build 0)  -->
<svg version="1.0" id="_Слой_1" xmlns="http://www.w3.org/2000/svg" xmlns:xlink="http://www.w3.org/1999/xlink" x="0px"
	 y="0px" viewBox="0 0 41 41" enable-background="new 0 0 41 41" xml:space="preserve">
<g id="Shapes_Shape_215_0_Layer1_0_FILL">
	
		<linearGradient id="SVGID_1_" gradientUnits="userSpaceOnUse" x1="-318.9904" y1="-298.6022" x2="-294.9244" y2="-309.457" gradientTransform="matrix(1.5606 0 0 -1.5597 499.6415 -453.6623)">
		<stop  offset="0" style="stop-color:#FDF5B5"/>
		<stop  offset="1" style="stop-color:#AA860F"/>
	</linearGradient>
	<path fill="url(#SVGID_1_)" d="M22.7,0.1l-2-0.1l-3,0.2l-1.8,0.4c-1.8,0.4-3.6,1-5.2,1.9L6,6c-1.3,1.3-2.4,2.8-3.3,4.3l-1.8,4.3
		l-0.6,2.8l-0.2,1.4v0.6L0,20.5C0,26.1,1.9,31,5.9,35c3.8,3.8,8.4,5.8,13.7,6h0.8c5.7,0,10.6-2,14.5-6c4-4,6-8.9,6-14.5S39,10,35,6
		c-1.5-1.5-3.2-2.8-5-3.8l-1.6-0.8l-3.3-1L22.7,0.1 M29.8,3.2l4.8,3.6c3.8,3.8,5.7,8.4,5.7,13.8s-1.9,10-5.7,13.9
		c-3.8,3.8-8.5,5.7-13.9,5.7h-0.7c-5.1-0.2-9.5-2.1-13.1-5.7c-3.8-3.9-5.7-8.5-5.7-13.9l0.1-1v-0.6l0.2-1.3l0.5-2.7l1.7-4.1
		C4.5,9.3,5.5,8,6.9,6.7c1.2-1.3,2.7-2.4,4.3-3.3c1.5-0.9,3.2-1.5,5-1.9l1.7-0.3L20.8,1l1.9,0.1l2.2,0.3l3.2,0.9
		C28,2.3,29.8,3.2,29.8,3.2z"/>
	<path fill="#F4BE20" d="M34.6,6.7l-4.7-3.6L28,2.3l-3.2-0.9l-2.2-0.3L20.7,1l-2.9,0.2l-1.7,0.3c-1.7,0.3-3.4,0.9-5,1.9
		c-1.5,0.9-3,1.9-4.2,3.3C5.6,8,4.5,9.3,3.7,10.8l-1.7,4.1l-0.6,2.5l-0.2,1.3v0.6l-0.1,1c0,5.4,1.9,10,5.7,13.9
		c3.6,3.6,8,5.5,13.1,5.7h0.7c5.4,0,10.1-1.9,13.9-5.7c3.8-3.9,5.7-8.5,5.7-13.9C40.2,15.1,38.3,10.5,34.6,6.7 M20.7,5.5l1.5,0.1
		l1.7,0.2l2.4,0.7l1.4,0.6l3.7,2.8c3,3,4.4,6.5,4.4,10.6s-1.5,7.6-4.4,10.5s-6.4,4.4-10.6,4.4h-0.6c-3.9-0.1-7.3-1.5-10-4.4
		c-3-2.9-4.4-6.4-4.4-10.5l0.1-0.8v-0.5l0.1-1l0.5-1.9l1.3-3.2l2.4-3.2l3.3-2.4c1.1-0.7,2.5-1.2,3.8-1.5l1.3-0.2L20.7,5.5z"/>
	<path fill="#CD8A22" d="M22.2,5.6l-1.5-0.1l-2.1,0.2l-1.3,0.2c-1.3,0.3-2.7,0.8-3.8,1.5l-3.3,2.4l-2.4,3.2l-1.3,3.2l-0.5,1.9
		l-0.1,1v0.5l-0.1,0.8c0,4.1,1.4,7.6,4.4,10.5c2.8,2.8,6.1,4.3,10,4.4h0.6c4.2,0,7.8-1.4,10.6-4.4s4.4-6.4,4.4-10.5
		s-1.5-7.6-4.4-10.6l-3.7-2.8l-1.4-0.6l-2.4-0.6L22.2,5.6 M22,6.8L23.5,7l2.2,0.6L27,8.3c1.3,0.6,2.4,1.4,3.4,2.5
		c2.8,2.7,4.1,5.9,4.1,9.7s-1.3,7-4.1,9.7c-2.7,2.7-5.8,4.1-9.7,4.1h-0.5c-3.6-0.2-6.6-1.5-9.3-4.1c-2.7-2.7-4-5.9-4-9.7L7,19.8
		v-0.5l0.1-0.9l0.4-1.9l1.1-2.9l2.2-2.8l3.1-2.3c1.1-0.6,2.2-1,3.6-1.2L18.6,7l2-0.2C20.7,6.7,22,6.8,22,6.8z"/>
	<path fill="#FEFDFE" d="M23.6,7l-1.5-0.2l-1.4-0.1l-2,0.2l-1.1,0.2c-1.2,0.2-2.5,0.6-3.6,1.2l-3.1,2.3l-2.2,2.8l-1.1,2.9l-0.4,1.9
		L7,19.2v0.5l-0.1,0.8c0,3.8,1.3,7,4,9.7c2.6,2.5,5.7,3.9,9.3,4.1h0.6c3.8,0,7.1-1.3,9.7-4.1c2.8-2.7,4.1-5.9,4.1-9.7
		s-1.3-7-4.1-9.7c-1-1-2-1.9-3.3-2.5L26,7.6C25.9,7.6,23.6,7,23.6,7z"/>
</g>
<g id="Shapes_Shape_215_0_Layer0_0_FILL">
	<path fill="#FEFDFE" d="M32.7,29.7l-1.3,1.4l-3.8,2.8l2.7,3.8l4.3-3.3l0.8-0.8L32.7,29.7 M16,34.8c-2-0.6-4-1.8-5.6-3.5l-2.8,3.9
		c1.7,1.5,3.6,2.7,5.5,3.5L16,34.8 M16.3,6.2l-2.8-3.9l-2.4,1.1L7.9,5.8l2.7,3.8l2.9-2.1L16.3,6.2 M1.2,18.9v0.6l-0.1,1l0.2,3.4h4.8
		l-0.4-3.4l0.1-0.7v-0.5l0.1-1l0.2-0.8H1.4l-0.1,0.2L1.2,18.9 M31.4,10l1.3,1.5l2.7-3.8l-0.8-0.8l-4.3-3.4l-2.7,3.7l0.2,0.1L31.4,10
		 M40,17.3h-4.5l0.3,3.2l-0.3,3.4H40l0.2-3.4L40,17.3z"/>
</g>
</svg>
