<?xml version="1.0" encoding="utf-8"?>
<!-- Generator: Adobe Illustrator 27.4.1, SVG Export Plug-In . SVG Version: 6.00 Build 0)  -->
<svg version="1.1" id="Слой_1" xmlns="http://www.w3.org/2000/svg" xmlns:xlink="http://www.w3.org/1999/xlink" x="0px" y="0px"
	 viewBox="0 0 14 14" style="enable-background:new 0 0 14 14;" xml:space="preserve">
<style type="text/css">
	.st0{fill:url(#SVGID_1_);}
	.st1{fill:#020301;}
	.st2{fill:#4F2015;}
	.st3{fill:#F25F40;}
</style>
<g transform="matrix( 1, 0, 0, 1, 0,0) ">
	<g transform="matrix( 1, 0, 0, 1, 0,0) ">
		<g>
			<g id="Shapes_Shape_26_0_Layer1_0_FILL">
				
					<radialGradient id="SVGID_1_" cx="-22.9403" cy="31.5134" r="45.2188" fx="4.6263" fy="29.203" gradientTransform="matrix(1.0108 0 0 1.0108 -0.1011 -0.1011)" gradientUnits="userSpaceOnUse">
					<stop  offset="0" style="stop-color:#E0DA85"/>
					<stop  offset="1" style="stop-color:#827A40"/>
				</radialGradient>
				<path class="st0" d="M14,2.2C14,0.7,13.3,0,11.8,0H2.2C0.7,0,0,0.7,0,2.2v9.5l0,0.5C0.2,13.4,0.9,14,2.2,14h9.6
					c1.3,0,2-0.6,2.2-1.8v-0.5V2.2 M11.8,0.9c0.9,0,1.3,0.4,1.3,1.3v9.5l0,0.5c-0.2,0.6-0.6,0.9-1.3,0.9H2.2c-0.7,0-1.2-0.3-1.3-0.9
					l0-0.5V2.2c0-0.9,0.4-1.3,1.3-1.3H11.8z"/>
				<path class="st1" d="M13.1,2.2c0-0.9-0.4-1.3-1.3-1.3H2.2c-0.9,0-1.3,0.4-1.3,1.3v9.5l0,0.5c0.1,0.6,0.6,0.9,1.3,0.9h9.6
					c0.7,0,1.1-0.3,1.3-0.9l0-0.5V2.2z"/>
			</g>
		</g>
	</g>
	<g transform="matrix( 1, 0, 0, 1, 0,0) ">
		<g>
			<g id="Shapes_Shape_26_0_Layer0_0_FILL">
				<path class="st2" d="M12.5,2.6L12.5,2.6C10,4.1,7.8,5.9,5.8,8C4.4,6.5,2.8,5.6,1.2,5.3H1.1l0,0v0.1v0C3,7.5,4.4,9.7,5.5,11.9
					l0,0.1h0.1l0,0c1.8-3,4.1-6.1,6.9-9.2L12.5,2.6L12.5,2.6L12.5,2.6 M5.8,8.3L5.8,8.3c1.9-2,3.8-3.6,5.9-5
					c-2.5,2.8-4.6,5.5-6.2,8.3c-1-2.1-2.3-4.1-4.1-6.1C3,5.9,4.4,6.8,5.7,8.3L5.8,8.3L5.8,8.3z"/>
				<path class="st3" d="M5.9,8.3L5.9,8.3L5.9,8.3H5.7C4.4,6.8,3,5.9,1.5,5.6c1.7,2,3.1,4,4.1,6.1c1.6-2.8,3.7-5.6,6.2-8.3
					C9.7,4.7,7.7,6.3,5.9,8.3z"/>
			</g>
		</g>
	</g>
</g>
</svg>
