<?xml version="1.0" encoding="utf-8"?>
<!-- Generator: Adobe Illustrator 27.4.1, SVG Export Plug-In . SVG Version: 6.00 Build 0)  -->
<svg version="1.1" id="Слой_1" xmlns="http://www.w3.org/2000/svg" xmlns:xlink="http://www.w3.org/1999/xlink" x="0px" y="0px"
	 viewBox="0 0 14 14" style="enable-background:new 0 0 14 14;" xml:space="preserve">
<style type="text/css">
	.st0{fill:url(#SVGID_1_);}
	.st1{fill:#020301;}
</style>
<g transform="matrix( 1, 0, 0, 1, 0,0) ">
	<g>
		<g id="Layer0_0_FILL">
			
				<radialGradient id="SVGID_1_" cx="-24.4375" cy="33.5547" r="48.1572" fx="4.9204" fy="31.0942" gradientTransform="matrix(0.9492 0 0 0.9492 -9.491526e-02 -9.491526e-02)" gradientUnits="userSpaceOnUse">
				<stop  offset="0" style="stop-color:#E0DA85"/>
				<stop  offset="1" style="stop-color:#827A40"/>
			</radialGradient>
			<path class="st0" d="M14,2.2C14,0.7,13.3,0,11.8,0H2.2C0.7,0,0,0.7,0,2.2v9.5l0,0.5C0.2,13.4,0.9,14,2.2,14h9.6
				c1.3,0,2-0.6,2.2-1.8v-0.5V2.2 M11.8,0.9c0.9,0,1.3,0.4,1.3,1.3v9.5l0,0.5c-0.2,0.6-0.6,0.9-1.3,0.9H2.2c-0.7,0-1.2-0.3-1.3-0.9
				l0-0.5V2.2c0-0.9,0.4-1.3,1.3-1.3H11.8z"/>
			<path class="st1" d="M13.1,2.2c0-0.9-0.4-1.3-1.3-1.3H2.2c-0.9,0-1.3,0.4-1.3,1.3v9.5l0,0.5c0.1,0.6,0.6,0.9,1.3,0.9h9.6
				c0.7,0,1.1-0.3,1.3-0.9l0-0.5V2.2z"/>
		</g>
	</g>
</g>
</svg>
