<?xml version="1.0" encoding="UTF-8"?><svg id="_Слой_1" xmlns="http://www.w3.org/2000/svg" xmlns:xlink="http://www.w3.org/1999/xlink" viewBox="0 0 193.0000061989 187.7999954224"><defs><radialGradient id="_Безымянный_градиент_13" cx="10.0508988265" cy="153.8026536725" fx="10.0508988265" fy="153.8026536725" r="18.1526004169" gradientTransform="translate(0 5.0921060146) scale(1 .9740663894)" gradientUnits="userSpaceOnUse"><stop offset="0" stop-color="#b3a766"/><stop offset="1" stop-color="#4e4929"/></radialGradient><linearGradient id="_Безымянный_градиент_14" x1="17.810976922" y1="4.3612935728" x2="7.8835403086" y2="8.9393503985" gradientTransform="translate(0 162.9032187308) scale(1 -1)" gradientUnits="userSpaceOnUse"><stop offset="0" stop-color="#b3a766"/><stop offset="1" stop-color="#635b35"/></linearGradient><radialGradient id="_Безымянный_градиент_15" cx="9.8547369339" cy="10.1029397841" fx="9.8547369339" fy="10.1029397841" r="18.2424632227" gradientTransform="translate(0 5.0921060146) scale(1 .9740663894)" gradientUnits="userSpaceOnUse"><stop offset="0" stop-color="#b3a766"/><stop offset="1" stop-color="#4e4929"/></radialGradient><linearGradient id="_Безымянный_градиент_16" x1="17.8207537438" y1="159.2432461904" x2="7.8927043146" y2="154.664900351" gradientTransform="translate(0 162.9032187308) scale(1 -1)" gradientUnits="userSpaceOnUse"><stop offset="0" stop-color="#b3a766"/><stop offset="1" stop-color="#635b35"/></linearGradient><radialGradient id="_Безымянный_градиент_17" cx="177.2828952497" cy="154.0974186386" fx="177.2828952497" fy="154.0974186386" r="18.2130862172" gradientTransform="translate(0 5.0921060146) scale(1 .9740663894)" gradientUnits="userSpaceOnUse"><stop offset="0" stop-color="#b3a766"/><stop offset="1" stop-color="#4e4929"/></radialGradient><linearGradient id="_Безымянный_градиент_18" x1="175.1898342423" y1="3.9677374017" x2="185.1182463268" y2="8.5462564926" gradientTransform="translate(0 162.9032187308) scale(1 -1)" gradientUnits="userSpaceOnUse"><stop offset="0" stop-color="#b3a766"/><stop offset="1" stop-color="#635b35"/></linearGradient><radialGradient id="_Безымянный_градиент_19" cx="177.2472675844" cy="9.1974259584" fx="177.2472675844" fy="9.1974259584" r="18.2415165971" gradientTransform="translate(0 5.0921060146) scale(1 .9740663894)" gradientUnits="userSpaceOnUse"><stop offset="0" stop-color="#b3a766"/><stop offset="1" stop-color="#4e4929"/></radialGradient><linearGradient id="_Безымянный_градиент_20" x1="174.975473392" y1="158.4136574642" x2="184.9043863162" y2="153.834915025" gradientTransform="translate(0 162.9032187308) scale(1 -1)" gradientUnits="userSpaceOnUse"><stop offset="0" stop-color="#b3a766"/><stop offset="1" stop-color="#635b35"/></linearGradient><radialGradient id="_Безымянный_градиент_21" cx="171.3110176696" cy="183.8294421411" fx="171.3110176696" fy="183.8294421411" r="10.7098987023" gradientTransform="translate(0 5.0921060146) scale(1 .9740663894)" gradientUnits="userSpaceOnUse"><stop offset="0" stop-color="#b3a766"/><stop offset="1" stop-color="#4e4929"/></radialGradient><linearGradient id="_Безымянный_градиент_22" x1="170.0286525995" y1="-23.1970418517" x2="175.8521642603" y2="-20.3101819977" gradientTransform="translate(0 162.9032187308) scale(1 -1)" gradientUnits="userSpaceOnUse"><stop offset="0" stop-color="#b3a766"/><stop offset="1" stop-color="#635b35"/></linearGradient><radialGradient id="_Безымянный_градиент_23" cx="18.8910525903" cy="184.0865688681" fx="18.8910525903" fy="184.0865688681" r="10.7136369138" gradientTransform="translate(0 5.0921060146) scale(1 .9740663894)" gradientUnits="userSpaceOnUse"><stop offset="0" stop-color="#b3a766"/><stop offset="1" stop-color="#4e4929"/></radialGradient><linearGradient id="_Безымянный_градиент_24" x1="21.8153670459" y1="-23.2910500884" x2="16.0065386847" y2="-20.4114654986" gradientTransform="translate(0 162.9032187308) scale(1 -1)" gradientUnits="userSpaceOnUse"><stop offset="0" stop-color="#b3a766"/><stop offset="1" stop-color="#635b35"/></linearGradient></defs><g id="Shapes_Shape_113_0_Layer1_0_FILL"><path d="m8.7500004768,140.3629652299l-.1500005722-.2435165974-1.0999994278.3409291815c-.3000001907.0324609527-.8000001907.2597470737-1.5.6818435-.7333335876.4220964263-1.4499998093.9902968658-2.1500005722,1.7046161815l-.3000001907.2435165974-.0999994278.0487062921v.0487062921l-.4500002861.3896206105v.0487062921c-2,2.1104821314-3,4.6592763024-3,7.6464122391,0,2.9871507998,1,5.5521754471,3,7.6951333943,2.0333333015,2.1429430841,4.4500002861,3.2144369208,7.2500004768,3.2144220577h.4499998093l.9999990463-.0974125842.1500015259-.0487062921c1.3333339691-.1948103053,2.5833339691-.7792709472,3.75-1.7533224736l.0999984741-.048691429.0500011444-.0487062921.6000003815-.4870331947.3499984741-.4383269026c.4666690826-.5519848262.7666664124-1.1526462184.9000015259-1.8020287657v.0487062921l.0999984741-.3409291815v-.0487062921l.0500011444-.8766538053c0-1.2987502315-.4666671753-2.4189354972-1.3999996185-3.3605260709-.9666671753-.9416054368-2.1166667938-1.412378429-3.4500007629-1.4123932921-.9333324432.0000148631-1.75.2435314604-2.4499998093.7305497921h-.0500001907l-1.25.9253600973v.0487062921c-.9666671753.8766538053-1.4499998093,1.9643483921-1.4499998093,3.2631134867,0,.9416054368.2666664124,1.8020287657.8000001907,2.5812848498-.9000005722-.3896354736-1.6999998093-.9578507762-2.4000005722-1.7046161815v-.0487062921c-1.3666667938-1.4286386315-2.0500001907-3.2631283498-2.0500001907-5.5034840181,0-1.8831811474.7166662216-3.5391058998,2.1500005722-4.9677296682l.0500001907-.0487062921.2999992371-.2435165974c1.9999990463-1.5584973052,4.4333333969-2.3377385263,7.3000011444-2.3377533894l1.5499992371.0973977211.8999996185.1461188763h.0500011444c1.7999992371.3246987052,3.3999996185,1.0227726815,4.7999992371,2.094236792,1.9666671753,1.5260363526,2.9500026703,3.3605260709,2.9500007629,5.503469155l.6499996185,2.5812848498v.0973977211h.0499992371v.0487062921l.2000007629.2922228894.1000003815.0487062921.0499992371-.0974125842c.1000003815-.0974125842.2166671753-.1461040132.3500003815-.1461040132h.1999988556l.0500011444-.2922228894-.0500011444-.4383269026h-.1499996185v-.9740663894l-.1499996185-1.363701863c0-2.500102742-1.0833339691-4.6268004867-3.25-6.3801229603l-.0499992371-.0487062921c-1.5333347321-1.2013525104-3.2833347321-1.9806085946-5.25-2.3377682525h-.0500011444l-.8999996185-.0973977211-1.6499996185-.1461188763h-.0500011444c-3.0333328247-.0000148631-5.6333322525.8604233289-7.7999992371,2.5812848498v.0487062921l-.4499998093.3409143185-.0500001907.0487062921-.25.2435165974h-.0500001907l-.0500001907.0487062921c-1.9666662216,1.6559098894-2.9500002861,3.6365036209-2.9499998093,5.9417960577-.0000004768,2.4676417893.7666664124,4.4969418129,2.3000001907,6.0879149339,1.5,1.5260512156,3.2833328247,2.3702292051,5.3500003815,2.5325785577l1.2999992371.4870331947h-.8999996185c-2.5,0-4.6500005722-.9740663894-6.4499998093-2.9221991683-1.8000001907-1.9805937315-2.7166666985-4.3832987524-2.75-7.2080853365.0333333015-2.7598498157.9166665077-5.1138336814,2.6499996185-7.0619813233v-.0487062921l.3000001907-.1948103053.1499996185-.1461188763c.6333341599-.6818435,1.1833333969-1.136415742,1.6500005722-1.363687l2.1499996185-1.4123932921.4499998093-.3409291815-.0499992371-.0487062921m.3499994278,15.8772851203c0-1.0390031578.3833332062-1.9319023025,1.1500005722-2.6786825709l.5999994278-.4870331947.0500001907-.0487062921.0500001907-.0487062921c.5666666031-.3571596579,1.2166662216-.5357097607,1.9499998093-.5357246237,1.0666675568.0000148631,1.9833335876.3733901342,2.75,1.1201704026.7333335876.7467802684,1.1000003815,1.6396794131,1.1000003815,2.6786825709l-.0500011444.7305497921.0500011444-.0487062921-.1000003815.2922228894-.0499992371.0487062921c-.1000003815.5194941474-.3333339691,1.0065273421-.7000007629,1.4610995841l-.1000003815.0973977211-.6999988556.5844457789v.0487062921h-.0500011444l-.1000003815.0487062921-.5499992371.2922080264-.1000003815.0487062921-.6499996185.1948103053h-.0499992371l-.7000007629.0487062921-1.75-.3896206105-.1000003815-.0487062921-.1499996185-.0487062921-.6499996185-.5844309158c-.766667366-.7792560842-1.1500005722-1.7046310446-1.1500005722-2.7760951551Z" style="fill:url(#_Безымянный_градиент_13);"/><path d="m10.2500004768,153.5615677793c-.766667366.7467802684-1.1500005722,1.6396794131-1.1500005722,2.6786825709,0,1.0714641105.3833332062,1.9968390709,1.1500005722,2.7760951551l.6499996185.5844309158.1499996185.0487062921.1000003815.0487062921,1.75.3896206105.7000007629-.0487062921h.0499992371l.6499996185-.1948103053.1000003815-.0487062921.5499992371-.2922080264.1000003815-.0487062921h.0500011444v-.0487062921l.6999988556-.5844457789.1000003815-.0973977211c.3666667938-.454572242.6000003815-.9416054368.7000007629-1.4610995841l.0499992371-.0487062921.1000003815-.2922228894-.0500011444.0487062921.0500011444-.7305497921c0-1.0390031578-.3666667938-1.9319023025-1.1000003815-2.6786825709-.7666664124-.7467802684-1.6833324432-1.1201555395-2.75-1.1201704026-.7333335876.0000148631-1.3833332062.1785649659-1.9499998093.5357246237l-.0500001907.0487062921-.0500001907.0487062921-.5999994278.4870331947Z" style="fill:url(#_Безымянный_градиент_14);"/><path d="m8.7500004768,21.7703860331c-.1000003815.0649367684-.1500005722.1785761132-.1500005722.34092175v118.0081408495l.1500005722.2435165974.0499992371.0487062921.3000001907.0974125842.3500003815-.1461188763.1499996185-.3409143185V22.1113077831l-.1499996185-.34092175-.3500003815-.1461114447c-.1333332062,0-.25.0487062921-.3499994278.1461114447m177.7000026703-1.1688804105l-.0500030518.0974051526-.1000061035.2435165974v121.4173769282l.1500091553.3409291815.3499908447.1461040132.3000030518-.0974125842.0500030518-.048691429.1499938965-.3409291815V20.9424273727l-.1499938965-.34092175-.3500061035-.1461114447h-.049987793c-.1000061035-.0000037158-.1999969482.0487025763-.3000030518.1461114447Z" style="fill:#7d723f;"/><path d="m10.7000002861,0h-.4499998093c-2.8000001907,0-5.2166671753,1.0714752578-7.2500004768,3.2144220577v.0487025763C1,5.3736030497,0,7.922408368,0,10.9095443047c0,2.9871396525,1,5.5521791629,3,7.6951259628l.4500002861.4383306184.0999994278.0974051526.3000001907.2435165974,2.4499998093,1.8020213341c.9333333969.5195015789,1.6333332062.8441891368,2.1000003815.9740663894l.1999998093.0487062921v-.0974088684c0-.1623456368.0500001907-.2759849816.1500005722-.34092175l-1.6500005722-1.1201778341-2.5500001907-1.9481327789-.1499996185-.146107729-.3000001907-.2435165974c-1.7333331108-1.9806011631-2.616666317-4.350834084-2.6499996185-7.1106876154.0333333015-2.8247902999.9499998093-5.2112536971,2.75-7.159386476,1.7999992371-1.9806011631,3.9499998093-2.9709017446,6.4499998093-2.9709017446h.0500001907l.8499994278.0487025763c-.4666662216.0974088684-.8999996185.2435165974-1.2999992371.4383306184-2.0666675568.1623456368-3.8500003815,1.0065347736-5.3500003815,2.5325711262-1.5333337784,1.5909768368-2.3000006676,3.6202805761-2.3000001907,6.0879149339-.0000004768,2.3052924367.9833335876,4.2858935998,2.9499998093,5.941807205l.0500001907.0487025763h.0500001907l.25.2435165974.0500001907.0487025763.4499998093.3896280421c2.1666669846,1.7208503736,4.7666664124,2.5812737025,7.7999992371,2.5812737025h.0500011444l1.6499996185-.146107729.8999996185-.0974088684h.0500011444c1.9666652679-.3571559421,3.7166652679-1.1364120263,5.25-2.3377571052h.0499992371c2.1666660309-1.785787142,3.25-3.9287339419,3.25-6.4288403997l.25-1.9968353552h-.1499996185l-.3500003815-.1461114447-.1499996185-.34092175v-.1461114447l-.2000007629-.2922191737v.0487025763h-.0499992371v.0974088684l-.6499996185,2.5325711262c.0000019073,2.1429467999-.9833335876,3.9774365182-2.9500007629,5.5034765866-1.3999996185,1.0714715421-3,1.7695492341-4.7999992371,2.0942405078h-.0500011444l-.8999996185.1461114447-1.5499992371.0974051526c-2.8666677475-.0000037158-5.3000020981-.7792523684-7.3000011444-2.3377571052l-.2999992371-.2435165974-.0500001907-.0487025763c-1.4333343506-1.4286311999-2.1500005722-3.0845448051-2.1500005722-4.9677408155,0-2.2403519525.6833333969-4.0748416709,2.0500001907-5.5034728708.7000007629-.7792523684,1.5-1.3636944315,2.4000005722-1.7533224736-.5333337784.7792523684-.8000001907,1.6396794131-.8000001907,2.5812774183,0,1.2987539473.483332634,2.4026938736,1.4499998093,3.3118272104l1.25.9253600973.0500001907.0487062921c.6999998093.4545648105,1.516667366.6818397842,2.4499998093.6818435,1.3333339691-.0000037158,2.4833335876-.4707952868,3.4500007629-1.4123932921.9333324432-.9415980052,1.3999996185-2.0617721236,1.3999996185-3.3605297867l-.0500011444-.8279586605v-.0487025763l-.0999984741-.3896243263v.0487025763c-.1333351135-.6493751158-.4333324432-1.2338171789-.9000015259-1.7533187578v-.0487062921l-.3499984741-.4383269026-.6000003815-.4383306184-.0500011444-.0487025763-.0999984741-.0974088684c-1.1666660309-.9740663894-2.4166660309-1.5585047368-3.75-1.7533187578h-.1500015259l-.9999990463-.1461114447m4.3499994278,2.727388863l.0500011444.0487025763.6999988556.6331409237.1000003815.0974088684c.3666667938.4220927105.6000003815.8928917131.7000007629,1.4123970078l.0499992371.0487025763.1000003815.34092175-.0500011444-.0487025763.0500011444.6818472158c0,1.0390031578-.3666667938,1.9318985867-1.1000003815,2.6786825709-.7666664124.7467802684-1.6833324432,1.1201704026-2.75,1.1201741184-.7333335876-.0000037158-1.3833332062-.1785761132-1.9499998093-.535735771l-.0500001907-.0487025763-.0500001907-.0487025763-.5999994278-.4870331947c-.766667366-.7467839842-1.1500005722-1.6396794131-1.1500005722-2.6786825709,0-1.0714715421.3833332062-1.9968390709,1.1500005722-2.7760914393l.6499996185-.535735771.1499996185-.0487025763.1000003815-.0487025763c.5333328247-.2922228894,1.1166667938-.4383306184,1.75-.4383306184l.7000007629.0487025763h.0499992371l.6499996185.194814021.1000003815.0487025763.5499992371.2922191737.1000003815.0487062921Z" style="fill:url(#_Безымянный_градиент_15);"/><path d="m15.1000008583,2.7760914393l-.0500011444-.0487025763-.1000003815-.0487062921-.5499992371-.2922191737-.1000003815-.0487025763-.6499996185-.194814021h-.0499992371l-.7000007629-.0487025763c-.6333332062,0-1.2166671753.146107729-1.75.4383306184l-.1000003815.0487025763-.1499996185.0487025763-.6499996185.535735771c-.766667366.7792523684-1.1500005722,1.7046198973-1.1500005722,2.7760914393,0,1.0390031578.3833332062,1.9318985867,1.1500005722,2.6786825709l.5999994278.4870331947.0500001907.0487025763.0500001907.0487025763c.5666666031.3571596579,1.2166662216.5357320553,1.9499998093.535735771,1.0666675568-.0000037158,1.9833335876-.37339385,2.75-1.1201741184.7333335876-.7467839842,1.1000003815-1.6396794131,1.1000003815-2.6786825709l-.0500011444-.6818472158.0500011444.0487025763-.1000003815-.34092175-.0499992371-.0487025763c-.1000003815-.5195052947-.3333339691-.9903042973-.7000007629-1.4123970078l-.1000003815-.0974088684-.6999988556-.6331409237Z" style="fill:url(#_Безымянный_градиент_16);"/><path d="m186.2999939919,141.5318419246l-.049987793.0974125842-.0500030518.3896206105.0999908447.1948251683v-.6818583631m-9.1499938965,1.7533224736l-.9499969482.0974125842h-.0500030518l-.1999969482.0487062921c-1.8999938965.3896206105-3.5833282471,1.1526313553-5.0500030518,2.2890470973v.0487062921c-2.1999969482,1.7533224736-3.3000030518,3.8800350814-3.3000030518,6.3801378234l-.0999908447,1.0714641105.0999908447.0487062921.1500091553.2922228894v.1461040132l-.1500091553.2435165974-.25.1461188763-.0999908447.7305497921h.1999969482l.3499908447.1461040132.1500091553.3409291815v.1461040132l.0999908447-.0487062921.200012207-.2922080264v-.1461188763l.6499938965-2.5812699867c0-2.1429579472.9833374023-3.9774328025,2.9499969482-5.5034840181,1.200012207-.9415905737,2.5666656494-1.590973121,4.1000061035-1.9481327789l.75-.1461040132.8999938965-.1461040132,1.6000061035-.0974125842c2.8333435059,0,5.25.7792560842,7.25,2.3377533894l.3000030518.2435165974.049987793.0487062921c1.4333343506,1.4286386315,2.1500091553,3.0845336578,2.1500091553,4.9677445313v.7792560842c-.1666564941,1.8831811474-.8333282471,3.4579386551-2,4.7242130709v.0487062921c-.7333374023.7467802684-1.5333404541,1.3149807079-2.4000091553,1.7046161815.4999847412-.7792560842.7499847412-1.6396794131.75-2.5812699867-.0000152588-1.2987502315-.4666595459-2.3864596815-1.3999938965-3.2631283498l-.0500030518-.0487062921-.6499938965-.5844309158-.5500030518-.3409291815h-.0500030518c-.7333221436-.4870331947-1.5666503906-.7305497921-2.5-.7305497921-1.1666717529,0-2.1833343506.3571447948-3.0500030518,1.0714789736l-.3999938965.3409143185c-.9333343506.9416054368-1.3999786377,2.0617609763-1.3999938965,3.3605260709l.049987793.8766686683.0500030518.0487062921.1000061035.3409143185-.0500030518-.0487062921c.1333465576.6493676842.4333343506,1.2500588025.8999938965,1.8020287657h.0500030518l.3000030518.4383269026.6499938965.4870331947.0500030518.0487062921.0500030518.0487062921c1.1666717529.9740663894,2.4166717529,1.5585121683,3.75,1.7533224736h.0500030518l.0999908447.048691429,1,.0974125842h.450012207c2.8000030518,0,5.2333221436-1.0714641105,7.299987793-3.2144220577,1.6666564941-1.8507201947,2.6333312988-3.9936484157,2.9000091553-6.4288292524l.0500030518-1.2662892789c.0000152588-2.9871359367-.9833526611-5.5359598338-2.950012207-7.6464271022l-.049987793-.0487062921-.4000091553-.3896206105-.0500030518-.0487062921-.049987793-.0487062921-.3000030518-.2435165974-1.9000091553-1.5097910132v.6331372079l-.1499938965.3409291815-.0500030518.048691429,1.4000091553,1.1688915578.1499938965.1461040132.25.1948103053.0500030518.0487062921c1.6999969482,1.9481327789,2.5666503906,4.3021315077,2.5999908447,7.0619813233l-.0999908447,1.5585121683c-.3000030518,2.1754040368-1.1666564941,4.0586000472-2.6000061035,5.6495731682-1.8333435059,1.9481179158-4,2.9221843052-6.5,2.9221991683h-.8999938965l1.3499908447-.4870331947c2.0333404541-.1623493526,3.8000030518-1.0065422052,5.3000030518-2.5325636947h.0500030518c1.4000091553-1.4610995841,2.1500091553-3.3118197788,2.25-5.5521754471v-.5357394868c0-2.3052924367-.9833374023-4.2858861682-2.9499969482-5.9418109207l-.0500030518-.0487062921h-.0500030518l-.25-.2435165974-.0500030518-.048691429-.3999938965-.3409291815-.0500030518-.0487062921c-2.1666717529-1.7208466578-4.7666625977-2.5812699867-7.8000030518-2.5812699867l-1.6499938965.1461040132m-.8999938965,13.3447065625c.0000152588-1.0390031578.3666687012-1.9318874394,1.0999908447-2.6786825709.5333404541-.5195090105,1.1499938965-.8604084658,1.8500061035-1.0227578184l.8999938965-.0974125842.9000091553.0974125842c.3666687012.0973977211.7166442871.2435017343,1.049987793.4383269026l.0500030518.0487062921.1000061035.048691429.5500030518.4870331947c.7666473389.7467951315,1.1499938965,1.6396794131,1.1499938965,2.6786825709,0,1.0714789736-.3833465576,1.9968390709-1.1499938965,2.7760951551l-.6500091553.5844457789-.1499938965.048691429-.0500030518.0487062921c-.5666656494.2597619368-1.1666717529.3896503367-1.8000030518.3896354736l-.6499938965-.0487062921h-.0500030518l-.6499938965-.1948103053-.1500091553-.0487062921-.5500030518-.2922228894-.049987793-.0487062921h-.0500030518l-.0500030518-.0487062921-.6999969482-.5844309158-.0500030518-.0974125842c-.4000091553-.454557379-.6500091553-.9415905737-.75-1.4610995841v-.0487062921l-.1000061035-.2922080264v.048691429l-.049987793-.7305497921Z" style="fill:url(#_Безымянный_градиент_17);"/><path d="m167.7999939919,154.9739610713l-.3499908447-.1461040132H25.5000004768c-.1333332062,0-.25.048691429-.3500003815.1461040132l-.0499992371.0974125842-.1000003815.2435165974.1499996185.3409143185.3500003815.1461188763h141.9500026703l.3499908447-.1461188763.1500091553-.1948103053v-.1461040132l-.1500091553-.3409291815m-.1499938965-147.4736491296l-.1999969482-.0487025763H25.5000004768c-.1333332062,0-.25.0487025763-.3500003815.1461114447l-.1499996185.2435165974v.0974051526l.1499996185.34092175.3500003815.1461114447h141.9500026703l.3499908447-.1461114447.1500091553-.34092175-.1500091553-.34092175-.1499938965-.0974088684Z" style="fill:#7a6f3d;"/><path d="m167.7500061989,153.7076717925v-.1461040132l-.1500091553-.2922228894-.0999908447-.0487062921-.25-.0973977211H25.6000008583v.9740663894h141.7499961853l.25-.1461188763.1500091553-.2435165974M11.9499993324,21.5268694358l-.3499984741-.1461114447c-.1333332062,0-.2500019073.0487062921-.3500003815.1461114447-.1000003815.0649367684-.1500005722.1785761132-.1500005722.34092175v117.9594345574l.1500005722.3409291815.3500003815.1461040132.3499984741-.1461040132.1500015259-.3409291815V21.8677911858l-.1500015259-.34092175m172.7000007629-1.1688804105c-.0999908447-.0974088684-.2166748047-.1461151605-.3500061035-.1461114447-.1333312988-.0000037158-.2499847412.0487025763-.3499908447.1461114447s-.1500244141.2110444974-.1500091553.34092175v121.4660832203l.1500091553.3409143185.3499908447.1461188763.3500061035-.1461188763.1499938965-.3409143185V20.6989107753l-.1499938965-.34092175m-17.1999969482-10.7147302837l-.1500091553-.34092175-.3999938965-.1461114447H26.8500008583c-.1666660309,0-.2833347321.0487025763-.3500003815.1461114447l-.1499996185.34092175.1499996185.34092175c.0666656494.0974088684.1833343506.1461114447.3500003815.1461114447h140.0499992371l.3999938965-.1461114447.1500091553-.34092175Z" style="fill:#3e3918;"/><path d="m177.3499970436,153.9511883898c-.7333221436.7467951315-1.0999755859,1.6396794131-1.0999908447,2.6786825709l.049987793.7305497921v-.048691429l.1000061035.2922080264v.0487062921c.0999908447.5195090105.3499908447,1.0065422052.75,1.4610995841l.0500030518.0974125842.6999969482.5844309158.0500030518.0487062921h.0500030518l.049987793.0487062921.5500030518.2922228894.1500091553.0487062921.6499938965.1948103053h.0500030518l.6499938965.0487062921c.6333312988.0000148631,1.2333374023-.1298735368,1.8000030518-.3896354736l.0500030518-.0487062921.1499938965-.048691429.6500091553-.5844457789c.7666473389-.7792560842,1.1499938965-1.7046161815,1.1499938965-2.7760951551,0-1.0390031578-.3833465576-1.9318874394-1.1499938965-2.6786825709l-.5500030518-.4870331947-.1000061035-.048691429-.0500030518-.0487062921c-.3333435059-.1948251683-.6833190918-.3409291815-1.049987793-.4383269026l-.9000091553-.0974125842-.8999938965.0974125842c-.700012207.1623493526-1.3166656494.503248808-1.8500061035,1.0227578184Z" style="fill:url(#_Безымянный_градиент_18);"/><path d="m186.4000000954,20.6989107753l-.1999969482.2922228894.0500030518.34092175.049987793.0974051526v-.4870331947l.1000061035-.2435165974m-9.0500030518-18.312447378l-.0500030518.0487025763-.6499938965.4383306184-.3000030518.4383306184-.0500030518.0487025763c-.4666595459.5195015789-.7666473389,1.1039399263-.8999938965,1.7533187578l.0500030518-.0487025763-.1000061035.3896280421-.0500030518.0487025763-.049987793.8279549447c.0000152588.9415980052.2500152588,1.7857908578.75,2.532574842l.25-2.532574842.049987793-.6818435v.0487025763l.1000061035-.3409254658v-.0487025763c.0999908447-.5195015789.3499908447-.9903005815.75-1.4123970078l.0500030518-.0974051526.6999969482-.6331446394h.0500030518l.0500030518-.0487025763.049987793-.0487025763.5500030518-.2922191737.1500091553-.0487025763.6499938965-.194814021h.0500030518l.6499938965-.0487025763c.6333312988,0,1.2333374023.146107729,1.8000030518.4383269026l.0500030518.0487062921.1499938965.0487025763.6500091553.535735771c.7666473389.7792523684,1.1499938965,1.7046161815,1.1499938965,2.7760877236,0,1.0390068736-.3833465576,1.9318985867-1.1499938965,2.6786825709l-.5500030518.4870331947-.1000061035.0487062921-.0500030518.0487025763c-.5666656494.3571559421-1.2166595459.535735771-1.9499969482.535735771-.1000061035,0-.2333221436.3246875579-.3999938965.9740663894h.3999938965c.9333496094,0,1.7666778564-.2272824052,2.5-.6818472158l.0500030518-.0487025763,1.1999969482-.9253638131h.0500030518c.9333343506-.9091259052,1.3999786377-2.0130658315,1.3999938965-3.3118234946-.0000152588-.9415980052-.2500152588-1.8020250499-.75-2.5812774183.8666687012.3896243263,1.6666717529.9740663894,2.4000091553,1.7533187578,1.3333435059,1.4286311999,2,3.2631209183,2,5.5034765866l-.0500030518,1.0714715421c-.2333374023,1.4610995841-.9333496094,2.7598535315-2.1000061035,3.8962655577l-.049987793.0487025763-.3000030518.2435165974c-2,1.5585084525-4.4166564941,2.3377608209-7.25,2.3377608209l-1.1000061035-.0487025763-.5-.0487025763-.8999938965-.1461114447-.75-.1461114447-1.0500030518-.2922191737c-1.0999908447-.3896280421-2.1166534424-.9415980052-3.0500030518-1.6559136052-1.9666595459-1.5260326368-2.9499969482-3.3605297867-2.9499969482-5.5034728708l-.6499938965-2.532574842v-.146107729l-.200012207-.2922191737-.3999938965-.0974088684.1499938965.0974088684.1500091553.34092175-.1500091553.34092175-.3499908447.1461114447h-.1500091553l.3000030518,2.3864633972c0,2.500102742,1.1000061035,4.6430458261,3.3000030518,6.4288366839,1.1333465576.8766612368,2.4000091553,1.5422705447,3.8000030518,1.9968353552l1.25.2922228894.1999969482.0487025763h.0500030518l.9499969482.0974051526.6999969482.0974088684.9499969482.0487025763c3.0333404541,0,5.6333312988-.8604270447,7.8000030518-2.5812774183h.0500030518l.3999938965-.3896243263.0500030518-.0487062921.25-.2435165974h.0500030518l.0500030518-.0487025763c1.6000061035-1.3312223315,2.549987793-2.8734928762,2.8499908447-4.6268153498l.1000061035-1.3149881394c0-2.4676343578-.75-4.4969418129-2.25-6.0879149339h-.0500030518c-1.5-1.5260400683-3.2666625977-2.3702292051-5.3000030518-2.532574842l-1.3499908447-.4383269026.8499908447-.0487062921h.0500030518c2.5,0,4.6666564941.9903005815,6.5,2.9709054604,1.7666778564,1.9481364946,2.6666564941,4.3345961761,2.6999969482,7.159386476v.2922191737c-.0999908447,2.6299799946-.9666595459,4.9028003313-2.5999908447,6.818464726h-.0500030518l-.25.2435165974-.1499938965.1461114447-1.75,1.3636907157h.049987793l.3500061035.1461114447.1499938965.34092175v.3409254658l1.9000091553-1.5098021605.3000030518-.2435165974.049987793-.0974088684h.0500030518l.4000091553-.4383306184h.049987793c1.8333282471-2.0130658315,2.8166809082-4.3832950366,2.950012207-7.1106838997v-.5844383473c.0000152588-2.9871396525-.9833526611-5.5359486865-2.950012207-7.6464233865v-.0487025763c-2.0666656494-2.1429430841-4.4999847412-3.214418342-7.299987793-3.214418342h-.450012207l-1,.1461114447h-.1499938965c-1.3333282471.194814021-2.5833282471.7792523684-3.75,1.7533187578l-.0500030518.0974051526Z" style="fill:url(#_Безымянный_градиент_19);"/><path d="m177.2000031471,3.7988604051l-.0500030518.0974051526c-.4000091553.4220964263-.6500091553.8928954289-.75,1.4123970078v.0487025763l-.1000061035.3409254658v-.0487025763l-.049987793.6818435-.25,2.532574842.6499938965.8279549447c.8666534424.8441928526,1.8833465576,1.3149881394,3.0500030518,1.4123970078.1666717529-.6493788315.299987793-.9740663894.3999938965-.9740663894.7333374023,0,1.3833312988-.1785798289,1.9499969482-.535735771l.0500030518-.0487025763.1000061035-.0487062921.5500030518-.4870331947c.7666473389-.7467839842,1.1499938965-1.6396756973,1.1499938965-2.6786825709,0-1.0714715421-.3833465576-1.9968353552-1.1499938965-2.7760877236l-.6500091553-.535735771-.1499938965-.0487025763-.0500030518-.0487062921c-.5666656494-.2922191737-1.1666717529-.4383269026-1.8000030518-.4383269026l-.6499938965.0487025763h-.0500030518l-.6499938965.194814021-.1500091553.0487025763-.5500030518.2922191737-.049987793.0487025763-.0500030518.0487025763h-.0500030518l-.6999969482.6331446394m1.1499938965,1.0714715421l-.25.194814021-.1499938965.194814021-.1000061035.0974051526.1999969482-.34092175.3000030518-.1461114447Z" style="fill:url(#_Безымянный_градиент_20);"/><path d="m178.0999970436,5.0651459682l.25-.194814021-.3000030518.1461114447-.1999969482.34092175.1000061035-.0974051526.1499938965-.194814021Z" style="fill:#91854c;"/></g><g id="Shapes_Shape_113_0_Layer0_0_FILL"><path d="m168.0999970436,178.4002607096c.8000030518-.7143193157,1.7333374023-1.1526610814,2.8000030518-1.314995571l.5500030518-.0973977211.8999938965-.0974125842c1.6666564941,0,3.1000061035.5032785341,4.3000030518,1.5098058762l.1499938965.1461040132h.0500030518c.8333282471.909129621,1.25,1.9643781183,1.25,3.1657157656,0,1.3961628157-.3999938965,2.5488090341-1.1999969482,3.4579386551l-1.3999938965,1.1201852657c.3000030518-.4870183316.4499969482-1.0390180209.4499969482-1.6559247525,0-.8117318999-.2666778564-1.4935753999-.8000030518-2.0455305l-.0500030518-.0487062921-.6999969482-.5844457789h-.0500030518c-.4333343506-.2922228894-.9166717529-.4383269026-1.4499969482-.4383269026-.8000030518,0-1.4666748047.2922228894-2,.8766686683-.5666656494.5844309158-.8333282471,1.2987502315-.8000030518,2.1429430841v.5357394868l.1000061035.2435165974-.0500030518-.0487062921.5500030518,1.1201704026v.0487062921l.1999969482.2435165974.3500061035.2922228894.0999908447.0973977211.4000091553.2922228894,1.0999908447.1948103053,1.3000030518-.1461040132.3500061035-.1461040132c1.1999969482-.0974125842,2.2333221436-.6169067316,3.0999908447-1.5585121683.8999938965-1.0065273421,1.3500061035-2.2890470973,1.3500061035-3.8475592656,0-1.4610995841-.5666656494-2.7111583867-1.6999969482-3.7501615445l-.0500030518-.0487062921h-.0500030518l-.1499938965-.1461040132-.25-.2435165974c-1.2666778564-1.1039547893-2.8000030518-1.6559098894-4.6000061035-1.6559098894l-1,.0973977211-.5.0487062921h-.0500030518c-1.1666717529.227286121-2.1999969482.7305497921-3.0999908447,1.5098058762-1.1333312988.9416054368-1.7666778564,2.0780211788-1.9000091553,3.409232363v.1948103053l-.0999908447.0974125842.25.0487062921-.25.048691429.0999908447.1948251683v.048691429l-.0500030518.1461188763v.1461040132l-.0999908447.6818435.1999969482.0974125842.1499938965.1948103053-.049987793.0974125842-.0500030518.1461040132v.1461188763l-.0500030518.048691429-.25.0974125842.1000061035.0487062921.1499938965-.0487062921h.0500030518v-.0487062921h.25l.3999938965-1.6072035973c0-1.363687.5833282471-2.5163332183,1.75-3.4579386551m4.8000030518,3.7501615445c.4333343506-.0324758157.8166503906.0649367684,1.1499938965.2922080264l.1000061035.0974125842.3000030518.2922228894c.3666687012.3571596579.5833435059.7792709472.6499938965,1.2662892789l.0500030518.4383269026v.1461040132c-.0333251953.5844457789-.2666625977,1.1202001288-.6999969482,1.6072184604l-.3500061035.3409143185h-.0999908447l-.0500030518.0487062921-1.0500030518.2435165974h-.3999938965l-.4000091553-.1461040132h-.0500030518l-.3499908447-.1948251683-.0500030518-.048691429-.4499969482-.3896354736-.0500030518-.0487062921-.1499938965-.2922080264-.25-.633152071v-.0487062921l-.0500030518-.048691429-.0500030518-.0974125842v-.0487062921l.0500030518.0487062921-.0500030518-.2922228894v-.1461040132c0-.6818583631.2166748047-1.2500588025.6499938965-1.7046161815.4333343506-.4870331947.9666595459-.7143193157,1.6000061035-.6818435Z" style="fill:url(#_Безымянный_градиент_21);"/><path d="m174.5000061989,183.0757823515l-.3000030518-.2922228894-.1000061035-.0974125842c-.3333435059-.2272712579-.7166595459-.3246838421-1.1499938965-.2922080264-.6333312988-.0324758157-1.1666564941.1948103053-1.6000061035.6818435-.3999938965.4220964263-.6166687012.9415905737-.6499938965,1.5584973052v.1461188763l.0500030518.2922228894-.0500030518-.0487062921v.0487062921l.0500030518.048691429v.0487062921l.049987793.0487062921v.0487062921l.200012207.5357394868.1499938965.2922080264.0500030518.0487062921.4499969482.3896354736.0500030518.048691429.3499908447.1948251683h.0500030518l.4000091553.1461040132h.3999938965l1.0500030518-.2435165974.0500030518-.0487062921h.0999908447l.3500061035-.3409143185c.4333343506-.4870183316.6666717529-1.0227726815.6999969482-1.6072184604v-.1461040132l-.0500030518-.4383269026-.5999908447-1.0227726815Z" style="fill:url(#_Безымянный_градиент_22);"/><path d="m26.5499997139,182.7835594621l-.1000003815.0974125842v.048691429l-.0499992371.0974125842v.0974125842l.0499992371.1948103053.1000003815.0973977211.3000011444.0974125842h138.5499992371l.25-.0974125842.0500030518-.048691429v-.1461188763l.0500030518-.1461040132.049987793-.0974125842-.1499938965-.1948103053-.1999969482-.0974125842H26.8500008583l-.3000011444.0974125842Z" style="fill:#7a6f3d;"/><path d="m26.5000004768,181.3224598779l-.1000003815.1461040132-.0499992371.1461188763.0999984741.2922228894h.0500011444c.0666656494.0973977211.1833343506.1461040132.3500003815.1461040132h138.4499931335l.25-.0487062921v-.1461040132l.0500030518-.1461188763v-.048691429l-.0999908447-.1948251683.25-.048691429-.25-.0487062921.0999908447-.0974125842-.3000030518-.0973977211H26.8500008583c-.1666660309.0000148631-.2833347321.0487062921-.3500003815.1461040132Z" style="fill:#3e3918;"/><path d="m20.4000000954,177.2313840149l.5499992371.0973977211c1.0666675568.1623344895,2.0166664124.6006762552,2.8500003815,1.314995571,1.1333332062.9416054368,1.7000007629,2.0942516551,1.7000007629,3.4579386551l.3999996185,1.6072035973v.0974125842l.1499996185.1461040132.0500011444.0487062921.0499992371-.0487062921c.0333328247-.0649219053.1000003815-.097382858.2000007629-.0973977211h.0999984741l.0500011444-.1948251683-.0500011444-.3409143185-.0999984741-.1948103053.0499992371-.0974125842v-.0974125842l-.1000003815-.9740663894c0-1.590973121-.6499996185-2.9384147815-1.9499988556-4.0423695709-.8999996185-.7792560842-1.9333324432-1.2825197552-3.1000003815-1.5098058762l-.5500011444-.0487062921-.9499988556-.0973977211h-.0500011444c-1.7999992371,0-3.3166656494.5519551001-4.5499992371,1.6559098894l-.25.2435165974h-.0499992371l-.1500015259.1461040132-.0499992371.0487062921c-1.1666660309,1.0390031578-1.7333335876,2.2890619604-1.7000007629,3.7501615445-.0333328247,1.5585121683.3999996185,2.8410319235,1.3000011444,3.8475592656.8666667938.9416054368,1.9166660309,1.4610995841,3.1499996185,1.5585121683l.3500003815.1461040132,1.25.1461040132,1.1499996185-.1948103053.3999996185-.2922228894.0500011444-.048691429v-.0487062921l.3999996185-.2922228894.1499996185-.2435165974.0499992371-.0487062921.5-1.1201704026.0500011444-.1948103053h.0499992371v-.5357394868c0-.8441928526-.2666664124-1.5585121683-.7999992371-2.1429430841-.5666675568-.5844457789-1.25-.8766686683-2.0500011444-.8766686683-.5333309174,0-1.0166664124.1461040132-1.4499988556.4383269026h-.0500011444l-.6999988556.5844457789v.0487062921c-.5666675568.5519551001-.8500003815,1.2337986-.8500003815,2.0455305,0,.6169067316.1499996185,1.1689064208.4500007629,1.6559247525l-1.4000015259-1.1201852657c-.7999992371-.909129621-1.1999988556-2.0617758394-1.1999988556-3.4579386551,0-1.2013376474.4333324432-2.2565861446,1.2999992371-3.1657157656l.2000007629-.1461040132c1.1666679382-1.0065273421,2.5833339691-1.5098058762,4.25-1.5098058762l.8999996185.0974125842m.7999992371,7.5490145181v.3896206105l-.0499992371.1948103053-.0499992371.0487062921-.4000015259.9253600973-.0499992371.0487062921-.3999996185.3896354736-.1000003815.048691429-.2999992371.1948251683h-.1000003815l-.3500003815.1461040132h-.4500007629l-1.0499992371-.2435165974-.0499992371-.0487062921h-.0500011444l-.3999996185-.3409143185c-.4666671753-.5195090105-.6833343506-1.1039399263-.6499996185-1.7533224736,0-.6818583631.2166652679-1.2500588025.6499996185-1.7046161815l.3500003815-.2922228894.0499992371-.0487062921v-.0487062921c.3333320618-.2272712579.7166671753-.3246838421,1.1499996185-.2922080264.6333351135-.0324758157,1.1666679382.1948103053,1.6000003815.6818435.4333343506.454557379.6499977112,1.0227578184.6499996185,1.7046161815Z" style="fill:url(#_Безымянный_градиент_23);"/><path d="m21.1999993324,185.1700191435v-.3896206105c-.0000019073-.6818583631-.2166652679-1.2500588025-.6499996185-1.7046161815-.4333324432-.4870331947-.9666652679-.7143193157-1.6000003815-.6818435-.4333324432-.0324758157-.8166675568.0649367684-1.1499996185.2922080264v.0487062921l-.0499992371.0487062921-.3500003815.2922228894c-.4333343506.454557379-.6499996185,1.0227578184-.6499996185,1.7046161815-.0333347321.6493825473.1833324432,1.2338134631.6499996185,1.7533224736l.3999996185.3409143185h.0500011444l.0499992371.0487062921,1.0499992371.2435165974h.4500007629l.3500003815-.1461040132h.1000003815l.2999992371-.1948251683.1000003815-.048691429.3999996185-.3896354736.0499992371-.0487062921.4000015259-.9253600973.0499992371-.0487062921.0499992371-.1948103053Z" style="fill:url(#_Безымянный_градиент_24);"/></g></svg>